<?xml version="1.0" encoding="utf-8"?>
<!-- Generator: Adobe Illustrator 24.3.0, SVG Export Plug-In . SVG Version: 6.00 Build 0)  -->
<svg version="1.1" id="Layer_1" xmlns="http://www.w3.org/2000/svg" xmlns:xlink="http://www.w3.org/1999/xlink" x="0px" y="0px"
	 viewBox="0 0 1287.27 894.55" style="enable-background:new 0 0 1287.27 894.55;" xml:space="preserve">
<style type="text/css">
	.st0{fill:#FFFFFF;}
	.st1{fill:none;}
</style>
<path class="st0" d="M271.89,235.36c0,4.37,0.56,8.22-0.11,11.83c-1.67,9-3.27,18.11-6.03,26.81
	c-11.75,37.07-24.11,73.95-35.84,111.03c-6,18.96-11.24,38.17-16.57,57.34c-1.6,5.76,0.54,9.83,4.9,11.15
	c4.4,1.34,8.43-1.17,10.38-6.84c1.8-5.24,3.28-10.59,4.88-15.89c3.05-10.17,5.07-20.64,9.75-30.31c15.34-31.73,32.62-62.32,53-91.09
	c4.61-6.51,9.71-12.75,15.25-18.48c5.27-5.46,11.34-10.16,17.18-15.05c1.28-1.07,3.08-1.53,4.65-2.27c0.34,0.23,0.68,0.46,1.02,0.7
	c-0.63,3.13-0.88,6.4-1.96,9.38c-5.71,15.8-11.25,31.68-17.55,47.25c-10.93,26.98-20.6,54.39-28.65,82.36
	c-1.07,3.73-1.74,7.63-2.05,11.5c-0.27,3.42,2.09,6.24,5.17,7.23c3.11,1.01,6.45,0.02,8.5-2.74c0.91-1.22,1.63-2.64,2.14-4.08
	c1.38-3.94,2.57-7.96,3.89-11.92c2.42-7.23,4.27-14.74,7.46-21.62c8.36-18.05,19.17-34.67,31.76-50.07
	c7.28-8.91,15.64-16.74,25.57-22.71c1.35-0.81,2.83-1.42,4.72-2.35c0,3.92,0.6,7.36-0.12,10.51c-1.83,7.95-3.87,15.9-6.5,23.61
	c-8.28,24.26-16.72,48.47-21.77,73.68c-3.83,19.12-6.73,38.31-4.66,57.93c1.21,11.46,4.65,22.02,11.55,31.32
	c3.09,4.16,6.85,7.54,11.9,9.18c7,2.29,14.44-0.5,16.95-6.47c0.45-1.08,0.78-2.75,0.26-3.54c-0.48-0.72-2.19-0.75-3.38-0.81
	c-0.97-0.05-2.01,0.17-2.95,0.48c-4.21,1.39-7.24-0.26-9.66-3.6c-3.83-5.28-6.3-11.19-6.44-17.68c-0.22-10.07-0.49-20.2,0.31-30.22
	c1.85-23.45,7.08-46.33,12.98-69.05c4.34-16.71,8.9-33.36,12.96-50.14c2.1-8.69,2.86-17.64,0.52-26.47
	c-2.21-8.32-8.42-11.6-16.29-8.21c-4.96,2.14-9.71,4.99-14.1,8.15c-10.18,7.31-18.76,16.33-26.41,26.25
	c-0.6,0.78-1.24,1.52-1.86,2.28c0.04-1.67,0.5-3.03,1.01-4.38c6.29-16.77,12.35-33.63,15.7-51.28c0.87-4.58,1.35-9.43,0.83-14.03
	c-0.81-7.11-7.09-10.69-13.9-8.34c-2.87,0.99-5.62,2.59-8.13,4.34c-10.51,7.36-19.75,16.22-27.26,26.52
	c-12.31,16.88-23.9,34.27-35.8,51.45c-0.58,0.84-1.12,1.7-1.68,2.55c0.23-2.19,0.82-4.18,1.41-6.17
	c7.72-26.05,15.51-52.09,20.76-78.78c1.79-9.12,2.92-18.34,0.87-27.61c-2.08-9.47-6.81-11.98-15.33-7.29
	c-9.22,5.07-18.29,10.51-26.94,16.48c-23.19,16.02-41.68,36.39-55.05,61.29c-0.85,1.59-1.68,3.27-2.01,5.01
	c-0.16,0.85,0.67,2.44,1.42,2.73c0.69,0.27,2.26-0.51,2.78-1.27c2.08-3.09,3.85-6.37,5.81-9.54c18.5-29.86,44-51.97,75.22-67.71
	C267.83,236.92,269.45,236.37,271.89,235.36z"/>
<path class="st0" d="M766.21,560.92c3.72-11.86,7.43-23.16,10.79-34.57c2.54-8.63,4.8-17.36,4.73-26.47
	c-0.09-10.95-6.3-15.78-16.76-12.59c-4.82,1.47-9.52,3.65-13.9,6.17c-20.94,12.04-34.71,30.55-45.66,51.49
	c-0.17,0.32-0.43,0.71-0.37,1.01c0.21,0.99,0.26,2.38,0.91,2.8c0.66,0.44,2.17,0.24,2.91-0.26c1-0.67,1.71-1.85,2.41-2.9
	c2.76-4.17,5.39-8.42,8.21-12.55c9.5-13.93,21.15-25.67,35.79-34.17c4.12-2.39,8.65-4.26,13.2-5.66c4.31-1.33,6.57,0.48,6.52,5
	c-0.06,4.6-0.16,9.39-1.42,13.75c-3.99,13.77-8.06,27.54-12.97,41c-8.25,22.6-17.36,44.89-25.7,67.45c-2.95,7.97-4.82,16.35-7,24.59
	c-0.75,2.82,0.49,4.95,2.62,5.54c2.05,0.56,3.83-0.55,4.9-3.26c1.3-3.29,2.51-6.63,3.71-9.96c3.63-9.98,6.41-20.37,11.01-29.89
	c11.61-24.01,26.59-45.91,44.63-65.6c4.33-4.73,9.49-8.71,14.37-12.91c1.16-1,2.74-1.51,4.27-2.32c2.01,4.76,1.95,9.3,1.09,13.61
	c-2.25,11.3-4.56,22.62-7.59,33.73c-2.92,10.67-6.77,21.09-10.21,31.62c-1.2,3.68-0.36,6.4,2.3,7.46c2.73,1.08,5.29-0.26,6.81-3.76
	c1.13-2.58,2.19-5.2,3.06-7.87c6.68-20.58,18.8-37.8,33.24-53.53c5.67-6.18,11.98-11.68,19.42-15.7c1.45-0.78,3.08-1.22,4.78-1.87
	c0.22,0.93,0.46,1.38,0.4,1.79c-0.6,4.03-0.66,8.26-1.99,12.04c-5.98,16.96-12.07,33.88-18.59,50.63
	c-9.79,25.15-20.14,50.09-27.14,76.22c-4.53,16.92-7.94,34-6.89,51.66c0.95,15.9,7.21,29.15,20.05,38.92
	c6.13,4.66,13.03,7.23,20.85,6.51c6.58-0.61,12.33-3.01,16.54-8.36c0.4-0.5,0.46-1.27,0.68-1.92c-0.73-0.12-1.51-0.48-2.19-0.33
	c-1.77,0.39-3.53,0.9-5.23,1.53c-13.59,5.04-22.76-1.15-29.22-8.98c-6.4-7.75-7.89-16.93-7.86-26.6
	c0.04-13.09,2.28-25.86,5.31-38.53c6.69-27.99,16.55-54.96,26.07-82.05c6.41-18.25,12.27-36.69,18.06-55.15
	c1.82-5.79,2.7-11.9,1.48-18.05c-1.38-6.94-6.83-10.58-13.53-8.29c-4.49,1.53-8.83,3.86-12.79,6.5
	c-10.19,6.78-18.15,15.88-25.43,25.61c-0.61,0.82-1.25,1.61-1.88,2.42c-0.3-0.77-0.18-1.29-0.11-1.82
	c0.83-6.57,2.01-13.12,2.34-19.71c0.17-3.52-0.66-7.28-1.87-10.63c-2.25-6.25-7.69-8.61-13.86-6.16c-3.08,1.22-6.02,3.01-8.71,4.97
	c-9.42,6.85-17.12,15.44-24.21,24.6C773.14,551.57,769.82,556.1,766.21,560.92z"/>
<path class="st0" d="M307.22,684.49c1.81-6.57,3.63-12.56,5.08-18.63c1.8-7.52,3.42-15.13,2.02-22.92
	c-1.24-6.91-6.81-9.29-12.52-5.25c-2.79,1.98-5.27,4.46-7.65,6.95c-15.17,15.85-27.24,34.02-38.97,52.44
	c-0.56,0.88-1.15,1.76-1.72,2.63c-0.2-1.53,0.13-2.83,0.44-4.13c4.93-20.58,10.11-41.1,14.63-61.76c1.31-6.01,1.37-12.48,0.85-18.65
	c-0.53-6.39-5.09-9.23-11.45-8.13c-2.56,0.44-5.13,1.32-7.45,2.49c-20.36,10.24-35.57,25.85-46.84,45.46
	c-0.85,1.47-1.43,3.15-1.82,4.81c-0.4,1.73,0.07,3.42,2.08,3.83c1.96,0.4,3.22-0.71,4.01-2.5c0.92-2.05,1.72-4.2,2.98-6.04
	c7.86-11.47,17.07-21.75,28.18-30.15c4.33-3.27,9.1-5.98,13.79-8.74c1.68-0.99,3.7-1.47,5.62-1.99c1.93-0.52,3.24,0.25,3.37,2.37
	c0.12,1.9,0.44,3.87,0.08,5.69c-1.85,9.44-3.36,18.99-5.95,28.23c-6.98,24.93-14.66,49.66-21.62,74.6
	c-3.76,13.46-6.69,27.16-9.81,40.79c-0.86,3.77,0.93,6.54,3.98,7.3c2.98,0.74,5.78-1.02,6.94-4.66c0.94-2.94,1.84-5.93,2.32-8.96
	c2.47-15.5,8.85-29.46,16.35-43.07c9.23-16.75,19.46-32.84,30.88-48.16c4.99-6.69,10.57-12.95,15.95-19.35
	c1.2-1.43,2.69-2.62,4.63-4.47c0,2.55,0.12,4.33-0.02,6.08c-0.86,10.73-4.58,20.72-8.1,30.74c-7.36,20.91-14.7,41.83-19.5,63.53
	c-0.29,1.33-0.66,2.67-0.73,4.01c-0.14,2.62,1.43,4.82,3.67,5.45c2.48,0.69,4.9-0.36,6.1-2.89c0.7-1.46,1.1-3.07,1.57-4.63
	c2.21-7.39,3.67-15.11,6.73-22.12c11.4-26.13,27.14-49.5,46.54-70.39c0.62-0.67,1.34-1.25,2.51-2.35c-0.2,1.78-0.22,2.79-0.44,3.75
	c-2.39,10.63-4.51,21.34-7.3,31.86c-5.02,18.97-10.78,37.74-15.58,56.76c-3.27,12.95-5.25,26.2-4.26,39.7
	c0.66,9,3.03,17.34,8.78,24.5c2.91,3.62,6.37,6.49,10.92,7.79c6.19,1.77,13.14-1.3,15.09-6.62c0.98-2.68,0.05-3.85-2.77-3.38
	c-1.25,0.21-2.51,0.5-3.7,0.92c-3.41,1.22-6.03,0.09-8.2-2.56c-3.03-3.69-4.64-7.97-5.29-12.66c-1.8-12.88,0.06-25.57,1.94-38.26
	c2.86-19.28,8.18-38,13.09-56.82c3.58-13.73,6.86-27.53,8.1-41.7c0.29-3.29,0.19-6.79-0.6-9.97c-1.2-4.81-5.85-6.55-10.12-4.14
	c-1.71,0.97-3.34,2.26-4.65,3.72c-5.87,6.57-11.8,13.11-17.36,19.94C316.99,671.01,312.4,677.56,307.22,684.49z"/>
<path class="st0" d="M546.63,350.74c0.14,1.35,0.23,1.87,0.25,2.39c0.9,28.7,1.97,57.4,2.61,86.11c0.34,15-0.68,29.98-3.53,44.77
	c-2.33,12.07-5.88,23.63-13.61,33.51c-6.48,8.29-14.7,14.04-24.91,16.67c-7.43,1.91-14.65,1.61-20.92-3.57
	c-5.89-4.87-9.7-11.02-10.91-18.62c-1.3-8.18-0.12-16.3,0.68-24.44c0.14-1.38-0.35-2.82-0.55-4.23c-0.88,1.24-2.34,2.38-2.54,3.72
	c-1.41,9.41-3.42,18.84-3.63,28.29c-0.47,21.54,17.61,36.68,38.84,33.06c17.57-2.99,30.59-12.81,39.76-27.87
	c5.01-8.22,8.18-17.22,10.4-26.55c4.92-20.64,5.3-41.62,4.19-62.63c-1.63-30.76-3.76-61.5-5.58-92.26
	c-0.09-1.56,0.51-3.39,1.36-4.74c4.3-6.85,8.96-13.47,13.18-20.37c11.97-19.58,22.75-39.75,29.56-61.79
	c2.02-6.54,3.5-13.17,3.09-20.09c-0.79-13.33-11.6-21.81-24.03-18.76c-4.99,1.22-9.13,3.99-12.78,7.51
	c-5.99,5.76-10.36,12.62-13.4,20.33c-5.28,13.4-8.4,27.38-8.7,41.69c-0.37,17.79,0.33,35.6,0.78,53.4c0.08,3.27-0.47,5.87-2.56,8.49
	c-10.66,13.35-21.16,26.83-31.7,40.27c-1.51,1.93-3.12,3.82-4.31,5.94c-0.49,0.87-0.01,2.29,0.02,3.46c1.15-0.13,2.56,0.11,3.4-0.47
	c1.55-1.06,2.9-2.49,4.09-3.97c8.89-10.92,17.72-21.89,26.55-32.86C543.27,355.25,544.7,353.28,546.63,350.74z"/>
<path class="st0" d="M807.9,185.05c0.49-1.41,0.9-2.59,1.3-3.77c3.84-11.36,7.94-22.63,11.41-34.1c1.91-6.3,3.44-12.87,3.97-19.41
	c0.78-9.7-5.17-14.31-14.5-11.65c-4.22,1.21-8.34,3.14-12.15,5.36c-12.7,7.42-22.99,17.69-32.81,28.49
	c-4.2,4.63-8.75,8.94-13.13,13.41c-0.51,0.52-1.25,1-1.41,1.62c-0.24,0.95-0.46,2.32,0.04,2.94c0.5,0.63,2.07,1.02,2.82,0.7
	c1.54-0.66,3.03-1.69,4.23-2.89c5.08-5.07,10.1-10.2,15.06-15.4c8.95-9.37,18.4-18.15,29.8-24.48c3.28-1.82,6.95-3.13,10.6-4.07
	c3.07-0.79,4.62,0.64,4.35,3.8c-0.29,3.41-0.74,6.93-1.88,10.13c-6.04,16.93-12.14,33.85-18.55,50.64
	C786.88,213.01,776,239.4,769,267.15c-1.15,4.57-0.49,6.95,2.33,7.86c2.88,0.92,5.25-0.73,6.79-5.09c2.17-6.17,4.37-12.34,6.23-18.6
	c6.64-22.35,15.45-43.63,29.46-62.53c7.97-10.75,16.02-21.39,26.15-30.25c0.82-0.72,1.72-1.36,2.58-2.04
	c0.27,0.18,0.53,0.36,0.8,0.54c-1.57,4.99-2.92,10.07-4.74,14.97c-7.38,19.85-16.03,39.15-25.51,58.1
	c-3.28,6.55-5.64,13.58-8.26,20.44c-1.07,2.79-0.16,5.09,1.93,6.17c2.14,1.1,4.71,0.33,6.33-2.15c1.14-1.74,2.14-3.6,2.97-5.51
	c5.48-12.57,10.88-25.18,16.36-37.76c0.87-1.99,1.77-4.02,3.04-5.76c8.43-11.56,17.68-22.4,28.59-31.73
	c1.15-0.98,2.36-1.9,3.54-2.85c-0.38,3.25-1.21,6.2-2.28,9.04c-9.42,24.99-19.03,49.9-28.28,74.95
	c-8.81,23.85-15.63,48.26-17.53,73.75c-1.05,14.01-0.62,28.02,3.58,41.59c0.99,3.2,2.75,6.37,4.86,8.99
	c4,4.95,12.14,2.68,15.24-4.54c-1.99,0.68-3.65,1.26-5.31,1.82c-4.27,1.44-6.24,0.86-7.61-3.42c-1.51-4.72-2.65-9.64-3.24-14.56
	c-1.95-16.31,0.8-32.24,4.52-48.06c7.35-31.2,18.08-61.31,28.95-91.39c5.18-14.35,10.22-28.75,15.07-43.21
	c0.98-2.92,1.27-6.27,1.03-9.36c-0.32-4.17-4.07-6.25-8-4.72c-2.08,0.81-4.17,1.95-5.82,3.44c-5.74,5.15-11.3,10.5-16.88,15.83
	c-0.57,0.54-0.79,1.45-1.18,2.19c-0.29-0.27-0.58-0.55-0.88-0.82c0.64-1.88,1.41-3.72,1.91-5.64c1.68-6.4,3.46-12.78,4.81-19.26
	c0.66-3.16,0.28-6.55-3-8.42c-3.18-1.81-5.96-0.19-8.58,1.6c-1.05,0.72-2.08,1.49-2.99,2.36c-3.6,3.47-7.4,6.76-10.65,10.54
	C819.41,170.53,813.84,177.7,807.9,185.05z"/>
<path class="st0" d="M475.15,831.66c10.46-0.14,20.74-2.41,30.07-8.12c11.08-6.78,16.81-16.77,17.51-29.69
	c0.44-8.05-1.25-15.71-4.28-23.13c-3.88-9.5-9.28-18.1-15.43-26.25c-7.28-9.65-15-18.98-21.97-28.84
	c-5.06-7.17-9.81-14.69-13.59-22.58c-5.27-10.99-7.64-22.72-4.87-34.99c4.08-18.1,19.97-33.05,37.32-34.78
	c10.51-1.05,19.92,1.57,26.94,9.99c5.26,6.31,5.45,12.42,0.93,19.28c-0.95,1.44-2.24,2.7-2.96,4.23c-0.47,0.99-0.68,2.73-0.12,3.39
	c0.55,0.65,2.23,0.55,3.38,0.44c0.74-0.07,1.49-0.68,2.11-1.19c6.84-5.66,10.09-12.89,8.44-21.7c-1.79-9.51-8.05-15.69-16.54-19.66
	c-9.16-4.28-18.82-4.69-28.54-2.52c-28.78,6.39-47.14,34.88-41.7,64.34c2.58,13.95,8.56,26.43,16.48,37.98
	c8.06,11.77,16.84,23.05,24.77,34.89c5.09,7.59,9.54,15.66,13.66,23.82c2,3.97,3.09,8.59,3.66,13.04c1.83,14.08-4,23.22-17.62,27.3
	c-14.57,4.37-29.25,3.82-42.71-3.28c-11.36-5.99-20.88-14.35-21.92-28.73c-0.17-2.32-1.64-2.91-3.63-1.59
	c-3.57,2.36-4.59,6.06-3.72,9.83c0.89,3.82,2.24,7.75,4.32,11.04C436.62,822.35,453.27,831.47,475.15,831.66z"/>
<path class="st0" d="M951.37,741.58c13.93,0.21,27.65-2.46,40.62-8.56c13.84-6.51,25.62-15.57,33.92-28.63
	c8.36-13.14,9.88-27.04,3.32-41.3c-2.83-6.15-6.2-12.19-10.19-17.65c-6.91-9.45-14.32-18.57-21.86-27.53
	c-6.37-7.58-13.29-14.7-19.86-22.11c-3.25-3.67-6.43-7.43-9.38-11.33c-7.72-10.2-8.43-21.14-2.27-32.2
	c9.6-17.26,23.78-29.2,42.9-34.73c3.94-1.14,8.24-1.44,12.37-1.41c6.51,0.05,11.75,2.81,14.92,8.83c0.5,0.96,1.07,1.96,1.86,2.66
	c0.58,0.52,1.56,0.59,2.36,0.86c0.2-0.73,0.63-1.49,0.57-2.2c-0.64-7.13-4.43-11.95-11.01-14.59c-5.57-2.24-11.44-2.5-17.19-1.46
	c-23.05,4.17-40.81,16.34-52.66,36.53c-8.54,14.56-7.76,29.04,2.73,42.5c4.58,5.87,9.58,11.42,14.62,16.9
	c11.27,12.25,22.37,24.63,31.91,38.32c5.1,7.32,9.74,14.92,12.74,23.39c3.94,11.09,2.73,21.61-3.41,31.62
	c-3.86,6.29-8.91,11.47-14.7,15.95c-22.44,17.38-47.84,21.29-75.09,16.18c-8.82-1.65-17.23-4.62-24.19-10.63
	c-9.69-8.37-9.1-18.9,1.53-26.08c2.37-1.61,5.06-3.18,7.81-3.71c4.95-0.95,10.15-2,15.07-1.44c23.93,2.75,45.79,10.39,62.82,28.53
	c0.64,0.68,2.17,1.36,2.76,1.05c0.82-0.43,1.76-1.96,1.56-2.75c-0.58-2.3-1.15-5.03-2.73-6.58c-3.91-3.87-8.04-7.69-12.66-10.61
	c-15.56-9.82-32.7-14.75-51.09-15.26c-10.43-0.29-20.28,1.67-28.74,8.28c-10.37,8.11-11.77,19.89-3.58,30.16
	c4.48,5.62,10.33,9.35,16.84,12.17C925.81,739.85,938.24,741.59,951.37,741.58z"/>
<path class="st0" d="M954.65,300.12c-0.87-0.53-1.49-1.15-2.2-1.29c-1.8-0.37-1.82-1.49-1.83-3.01c-0.1-17.99-0.17-35.98-0.49-53.96
	c-0.22-12.71-0.79-25.42-1.27-38.13c-0.08-2.24,0.86-3.3,2.9-4.21c15.84-7.05,28.02-18.05,35.56-33.82
	c1.35-2.83,2.42-5.92,2.96-9.01c1.78-10.1-5.65-17.27-15.6-14.88c-3.71,0.89-7.37,2.64-10.61,4.7
	c-7.81,4.95-12.59,12.45-16.02,20.85c-3.66,8.96-5.92,18.32-7.17,27.9c-0.36,2.73-1.38,4.05-4.07,4.34
	c-3.06,0.33-6.11,1.1-9.17,1.18c-6.72,0.16-13.45-0.15-20.16,0.02c-7.28,0.19-14.34,1.63-20.34,6.02c-2.27,1.66-4.15,4.03-5.73,6.39
	c-1.02,1.53-0.94,3.58,1.56,4.85c0.71-4.16,3.47-6.34,6.59-8.09c1.97-1.1,4.06-2.3,6.23-2.65c5.34-0.87,10.75-1.54,16.16-1.81
	c7.15-0.37,14.33-0.22,21.5-0.44c2.02-0.06,4.02-0.64,6.13-1.01c0.06,0.66,0.11,1.01,0.12,1.37c0.28,11.53,0.61,23.07,0.83,34.6
	c0.36,18.44,0.64,36.88,1.01,55.32c0.04,2.27-0.68,3.23-3.11,3.69c-10.33,1.94-20.18,5.37-29.32,10.65
	c-5.8,3.35-10.5,7.79-13.21,14.05c-3.53,8.17-1.81,16.92,4.45,22.8c6.54,6.15,16.74,7.13,25.67,2.39
	c6.53-3.47,11.33-8.7,15.04-15.02c4.87-8.31,7.21-17.42,8.48-26.84c0.38-2.83,0.32-5.7,4.23-5.91
	C953.96,301.11,954.12,300.75,954.65,300.12z"/>
<path class="st0" d="M438.42,406.42c-0.29-7.92-0.64-14.85-4.15-21.08c-4.53-8.02-13.61-9.99-20.98-4.61
	c-0.56,0.41-0.8,1.27-1.18,1.91c0.69,0.35,1.35,0.91,2.07,1.01c1.23,0.16,2.88-0.49,3.7,0.11c3.34,2.42,6.84,4.73,7.9,9.29
	c3.82,16.43,0.66,31.39-9.34,44.85c-1.91,2.56-4.58,4.68-7.23,6.54c-4.19,2.95-5.7,2.39-7.24-2.43c-0.77-2.4-1.6-4.98-1.49-7.43
	c0.41-9.24,1.06-18.47,1.9-27.68c0.67-7.42,1.79-14.79,2.61-22.19c0.21-1.91,0.22-3.97-2.19-4.71c-2.24-0.69-3.99,0.31-5.18,2.07
	c-0.96,1.41-1.75,3-2.25,4.62c-1.66,5.47-3.31,10.96-4.69,16.51c-2.43,9.79-4.81,19.61-4.55,29.81c0.17,6.45,1.46,12.65,4.93,18.2
	c4.82,7.71,12.47,9.96,20.47,5.69c3.32-1.77,6.51-4.08,9.18-6.72C433.16,437.91,437.5,422.34,438.42,406.42z"/>
<path class="st0" d="M476.09,416.95c0.16,0.03,0.31,0.05,0.47,0.08c0.08,0.6,0.17,1.2,0.25,1.8c1.41,11.14,5.15,21.53,10.35,31.4
	c1.19,2.26,3.07,4.24,4.93,6.03c0.59,0.57,2.15,0.15,3.26,0.18c-0.01-1.08,0.24-2.25-0.09-3.22c-2.49-7.28-5.83-14.35-7.52-21.8
	c-3.53-15.51-3.34-31.39-2.99-47.22c0.04-1.63,0.28-3.3,0.04-4.89c-0.15-1.02-0.88-2.59-1.6-2.73c-0.98-0.2-2.57,0.41-3.2,1.21
	c-1.03,1.31-1.68,3-2.15,4.63c-2.25,7.76-4.22,15.61-6.61,23.33c-2.92,9.45-6.04,18.84-9.32,28.17c-0.96,2.74-2.73,5.2-4.13,7.79
	c-0.26-0.07-0.52-0.14-0.77-0.22c-0.21-0.94-0.55-1.87-0.6-2.82c-0.36-6.07-0.96-12.15-0.9-18.22c0.09-9.72,0.66-19.43,0.96-29.15
	c0.12-3.9,0.17-7.81,0.01-11.71c-0.1-2.36-0.89-4.57-3.78-4.89c-2.19-0.24-3.74,1.24-4.35,4.33c-0.75,3.83-1.56,7.68-1.89,11.56
	c-1.13,13.29-2.31,26.59-2.96,39.91c-0.3,6.06,0.58,12.2,3.68,17.68c3.92,6.93,11.49,7.82,16.68,1.79c1.98-2.3,3.71-5.05,4.7-7.9
	c2.46-7.01,4.43-14.19,6.58-21.31C475.5,419.51,475.77,418.22,476.09,416.95z"/>
<path class="st0" d="M584.65,394.01c0-1.46,0.02-2.41,0-3.36c-0.55-21.52-1.08-43.04-1.76-64.55c-0.04-1.25-1.05-3.11-2.09-3.55
	c-1.87-0.79-3.2,0.8-3.96,2.45c-0.6,1.31-1.14,2.7-1.38,4.11c-0.55,3.22-1.12,6.46-1.28,9.71c-1.31,26.12-2.53,52.25-3.77,78.38
	c-0.17,3.63-0.5,7.26-0.45,10.88c0.04,3.03,2.08,5.14,4.73,5.5c2.64,0.35,5.08-1.22,6.07-4.02c0.39-1.11,0.58-2.29,0.79-3.44
	c0.72-3.93,1.09-7.95,2.18-11.77c2.05-7.17,5.38-13.71,11.28-18.58c2.6-2.15,3.63-1.81,4.62,1.34c0.43,1.38,0.74,2.81,0.94,4.25
	c0.57,4.05,0.97,8.12,1.6,12.15c1.29,8.28,4.68,15.52,11.5,20.64c1.97,1.48,4.69,2.28,7.18,2.62c1.14,0.16,2.78-1.35,3.76-2.48
	c0.87-1,0.3-2.26-1.19-2.19c-3.12,0.15-4.76-1.91-6.42-3.97c-3.72-4.62-5.06-10.16-6.1-15.83c-1.03-5.62-1.7-11.36-3.37-16.79
	c-2.91-9.46-10.3-11.5-18.18-5.44C587.86,391.19,586.49,392.46,584.65,394.01z"/>
<path class="st0" d="M1069.67,628.81c0.17,0.14,0.34,0.28,0.51,0.42c-0.16,0.6-0.31,1.2-0.49,1.79c-1.76,5.72-3.97,11.35-5.14,17.19
	c-1.09,5.45-1.73,11.16-1.38,16.69c0.4,6.43,7.43,11.54,13.85,10.78c1.44-0.17,3.32-1.38,3.93-2.63c0.98-2.02-1.13-2.62-2.63-3.28
	c-2.09-0.92-3.33-2.5-3.39-4.84c-0.04-1.81-0.1-3.64,0.03-5.44c0.45-6.34,1.21-12.67,1.4-19.02c0.15-4.69-0.13-9.44-0.72-14.09
	c-0.4-3.2-2.68-3.95-5.38-2.09c-1.71,1.18-3.53,2.43-4.71,4.07c-4.18,5.81-8.11,11.79-12.11,17.73c-0.48,0.72-0.85,1.52-1.27,2.28
	c-0.29-0.93-0.24-1.72-0.16-2.51c1.9-17.79,3.82-35.59,5.69-53.39c0.19-1.8,0.38-3.69,0-5.41c-0.23-1.08-1.44-2.58-2.36-2.69
	c-0.95-0.12-2.39,1-3.06,1.96c-0.74,1.06-0.98,2.53-1.19,3.86c-2.05,12.91-4.31,25.8-5.98,38.76c-1.53,11.88-2.42,23.84-3.52,35.77
	c-0.28,3.03,0.99,4.85,3.24,5.15c2.41,0.33,4.15-1.19,4.77-4.15c0.24-1.15,0.33-2.37,0.78-3.44c4.43-10.67,9.12-21.21,16.43-30.31
	C1067.67,630.84,1068.7,629.85,1069.67,628.81z"/>
<path class="st0" d="M911.3,638.04c-0.33-0.05-0.66-0.11-1-0.16c0-3.68-0.28-7.38,0.05-11.03c1.04-11.31,2.32-22.6,3.49-33.9
	c0.13-1.26,0.41-2.61,0.1-3.78c-0.27-0.99-1.14-2.26-2.01-2.53c-0.89-0.28-2.44,0.21-3.1,0.92c-1.01,1.08-1.75,2.57-2.19,4.01
	c-1.16,3.73-2.28,7.48-3.08,11.29c-2.13,10.15-4.16,20.36-3.58,30.78c0.23,4.18,1.04,8.55,2.66,12.38
	c2.22,5.26,8.07,5.79,11.72,1.39c1.71-2.06,3.08-4.52,4.1-7.01c1.89-4.62,3.41-9.39,5.1-14.09c0.31-0.87,0.7-1.72,1.02-2.53
	c0.54,4.81,0.67,9.57,1.69,14.15c0.89,4.01,2.55,7.91,4.3,11.66c1.1,2.36,3.33,3.84,6.09,4.1c2.71,0.26,4.63-1.13,5.03-3.85
	c-7.02,0.51-7.48-4.9-8.53-9.67c-1.37-6.24-0.63-12.47,0.38-18.69c1.08-6.63,2.15-13.27,3.02-19.93c0.3-2.31-0.67-4.41-3.14-5.14
	c-2.55-0.75-4.18,0.74-5.24,2.85c-2.03,4.06-4.14,8.1-5.89,12.28c-2.87,6.87-5.45,13.86-8.23,20.77
	C913.29,634.27,912.23,636.13,911.3,638.04z"/>
<path class="st0" d="M403.81,741.79c-0.33-0.12-0.65-0.24-0.98-0.36c0-2.53-0.08-5.06,0.01-7.58c0.39-10.53,0.85-21.07,1.22-31.6
	c0.06-1.71,0.12-3.56-0.46-5.11c-0.42-1.13-1.83-2.5-2.92-2.62c-1.1-0.12-2.79,0.9-3.44,1.91c-0.83,1.3-1.01,3.07-1.24,4.68
	c-0.58,4.05-1.14,8.1-1.5,12.17c-0.62,6.97-1.35,13.94-1.49,20.92c-0.07,3.35,0.53,6.98,1.85,10.04c2.63,6.12,9.25,7.05,13.32,1.79
	c2.85-3.68,4.71-8.12,6.98-12.24c0.5-0.91,0.83-1.9,1.24-2.85c0.24,0.04,0.49,0.08,0.73,0.12c0,2.33-0.13,4.67,0.03,6.99
	c0.3,4.48,1.68,8.67,4.98,11.78c1.77,1.67,4.12,2.98,6.44,3.75c2.8,0.92,6.01-0.75,6.98-2.95c0.84-1.88,0.17-2.97-1.89-3.09
	c-4.59-0.25-6.25-1.65-6.74-6.27c-0.33-3.15-0.49-6.37-0.24-9.52c0.84-10.5,1.88-20.98,2.9-31.47c0.35-3.59-0.54-5.73-2.8-6.34
	c-2.32-0.62-4.04,0.78-5.26,4.3c-3.29,9.43-6.49,18.9-9.9,28.28c-1.42,3.91-3.2,7.71-5,11.47
	C405.97,739.4,404.77,740.54,403.81,741.79z"/>
<path class="st0" d="M883,596.91c0.14-0.7,0.27-1.39,0.41-2.08c0.15-0.71,0.57-1.48,0.42-2.11c-0.31-1.29-0.63-3.18-1.5-3.56
	c-0.9-0.39-2.64,0.46-3.68,1.22c-0.97,0.71-1.59,1.97-2.2,3.08c-6.95,12.78-12.15,26.24-14.41,40.61c-0.74,4.7-0.39,9.88,0.8,14.5
	c1.94,7.54,8.97,9.68,15.47,5.4c0.76-0.5,1.52-1.02,2.16-1.66c9.76-9.69,15.98-21.12,16.67-35.06c0.52-10.48-3.48-16.17-13.33-19.88
	C883.57,597.28,883.35,597.11,883,596.91z"/>
<path class="st0" d="M565.59,711.96c0.27,0.1,0.53,0.2,0.8,0.3c0,1.41,0.07,2.83-0.01,4.24c-0.47,7.8-1.07,15.59-1.44,23.39
	c-0.34,7.11,1.24,13.91,4.05,20.41c0.66,1.53,1.79,2.93,2.96,4.14c0.46,0.47,1.85,0.57,2.44,0.21c0.52-0.31,0.76-1.52,0.7-2.29
	c-0.51-5.95-1.45-11.88-1.63-17.83c-0.28-9.08,0.08-18.17-0.11-27.26c-0.06-2.85-0.63-5.81-1.62-8.48
	c-1.26-3.38-4.57-4.22-7.63-2.28c-1.29,0.81-2.6,1.8-3.49,3c-3.46,4.66-6.76,9.43-10.09,14.17c-0.53,0.76-0.96,1.59-1.68,2.8
	c-0.15-0.89-0.24-1.16-0.24-1.42c0.31-14.53,0.66-29.06,0.89-43.6c0.01-0.93-0.88-1.87-1.36-2.81c-0.9,0.62-2.22,1.05-2.61,1.91
	c-0.69,1.53-1.03,3.3-1.16,4.99c-0.94,12.04-1.82,24.09-2.66,36.15c-0.62,8.88-1.16,17.77-1.7,26.66c-0.13,2.21,0.51,4.09,3.03,4.39
	c2.37,0.28,3.45-1.31,3.92-3.34c2.52-10.85,7.49-20.62,13.23-30.03C561.76,716.77,563.77,714.42,565.59,711.96z"/>
<path class="st0" d="M366.24,703.14c-2.82-1.46-4.72-0.42-6.13,1.87c-0.66,1.08-1.26,2.22-1.71,3.4c-4.26,11.03-6.4,22.49-6.53,34.3
	c-0.05,4.65,0.7,9.24,3.12,13.37c2.86,4.91,7.64,6.43,12.53,3.57c2.61-1.53,5.13-3.55,7.07-5.86c11.05-13.2,15.23-28.6,13.79-45.6
	c-0.31-3.69-1.77-7.03-4.57-9.64C378.44,693.57,368.43,696.08,366.24,703.14z"/>
<path class="st0" d="M927.41,268.63c-0.19-0.26-0.37-0.51-0.56-0.77c-1.08,0.34-2.24,0.52-3.24,1.03c-5.68,2.89-6.71-0.35-6.75-4.95
	c-0.01-1.08,0.14-2.18,0.34-3.25c0.92-5,1.88-9.99,2.82-14.98c0.3-1.6,0.69-3.2,0.84-4.82c0.19-2.1-0.6-3.81-2.72-4.5
	c-2.15-0.7-3.7,0.33-4.79,2.14c-0.47,0.77-0.8,1.63-1.23,2.43c-3.48,6.47-6.95,12.95-10.46,19.4c-0.46,0.84-1.1,1.58-1.66,2.36
	c-0.33-0.7-0.31-1.21-0.2-1.71c2.03-9.4,4.05-18.8,6.12-28.2c0.35-1.57,0.83-3.46-1.18-3.8c-1.15-0.2-2.73,0.85-3.77,1.74
	c-0.82,0.71-1.29,1.99-1.61,3.1c-2.69,9.12-5.51,18.22-7.83,27.44c-0.7,2.77-0.42,6.02,0.25,8.85c0.95,3.99,5.17,5.28,8.39,2.71
	c1.94-1.56,3.48-3.67,5.03-5.67c1.3-1.68,2.34-3.56,3.74-5.75c0.28,1.54,0.28,2.67,0.7,3.6c1.22,2.68,2.26,5.55,4.02,7.85
	c1.87,2.45,4.87,2.66,7.74,1.63C924.31,273.47,926.44,271.56,927.41,268.63z"/>
<path class="st0" d="M993.03,280.47c-6.38,0.69-6.49-3.78-7.15-7.76c-0.19-1.16-0.15-2.36-0.3-3.53c-0.47-3.6-0.62-7.28-1.55-10.76
	c-1.66-6.21-6.17-7.38-11.11-3.24c-2.15,1.8-4.39,3.49-6.58,5.23c0.67-0.21,0.75-1.16,0.92-2.09c2.58-13.66,5.23-27.3,7.73-40.97
	c0.83-4.55,1.4-9.16,1.81-13.77c0.09-0.95-1.04-2.01-1.6-3.01c-0.9,0.74-2,1.34-2.64,2.25c-0.6,0.85-0.82,2.01-1.05,3.07
	c-4.53,20.3-9.09,40.59-13.51,60.91c-0.63,2.9-0.91,5.96-0.78,8.92c0.05,1.14,1.52,2.81,2.66,3.14c0.97,0.28,2.55-0.82,3.58-1.65
	c0.71-0.57,0.87-1.77,1.4-2.61c3.01-4.85,5.96-9.74,9.15-14.46c0.78-1.16,2.41-1.75,3.64-2.6c0.5,1.38,1.22,2.73,1.46,4.16
	c0.81,4.83,1.13,9.77,2.29,14.51c0.59,2.38,2.22,4.82,4.06,6.49C987.9,284.91,991.2,283.93,993.03,280.47z"/>
<path class="st0" d="M882.16,233.3c0.96-1.03,1.73-1.68,2.26-2.48c0.4-0.61,0.85-1.54,0.64-2.1c-0.22-0.61-1.2-1.38-1.79-1.33
	c-1.2,0.1-2.6,0.42-3.47,1.17c-1.56,1.35-3.02,2.93-4.12,4.67c-5.76,9.13-10.08,18.95-12.56,29.44c-0.81,3.42-0.83,7.27-0.16,10.73
	c0.91,4.72,5.45,6.25,9.55,3.66c1.66-1.05,3.18-2.44,4.51-3.91c4.65-5.13,7.63-11.23,10.1-17.63
	C890.37,247.15,890.43,239.49,882.16,233.3z"/>
<path class="st0" d="M1118.72,673.19c-0.06-2.32-1.95-4.06-4.3-3.96c-2.21,0.09-3.91,1.86-3.91,4.08c0,2.32,1.85,4.15,4.16,4.12
	C1116.99,677.4,1118.78,675.52,1118.72,673.19z"/>
<path d="M271.89,235.36c-2.44,1.01-4.06,1.56-5.57,2.32c-31.22,15.74-56.71,37.84-75.22,67.71c-1.96,3.17-3.74,6.45-5.81,9.54
	c-0.51,0.77-2.09,1.54-2.78,1.27c-0.75-0.29-1.58-1.88-1.42-2.73c0.33-1.74,1.16-3.42,2.01-5.01c13.37-24.9,31.87-45.27,55.05-61.29
	c8.65-5.98,17.72-11.41,26.94-16.48c8.52-4.68,13.25-2.17,15.33,7.29c2.04,9.27,0.92,18.49-0.87,27.61
	c-5.25,26.69-13.04,52.73-20.76,78.78c-0.59,1.99-1.18,3.98-1.41,6.17c0.56-0.85,1.1-1.71,1.68-2.55
	c11.89-17.18,23.49-34.58,35.8-51.45c7.51-10.3,16.75-19.16,27.26-26.52c2.5-1.75,5.25-3.35,8.13-4.34
	c6.8-2.34,13.08,1.23,13.9,8.34c0.52,4.59,0.04,9.45-0.83,14.03c-3.35,17.65-9.41,34.51-15.7,51.28c-0.5,1.35-0.97,2.71-1.01,4.38
	c0.62-0.76,1.26-1.5,1.86-2.28c7.64-9.92,16.22-18.94,26.41-26.25c4.4-3.16,9.15-6.01,14.1-8.15c7.87-3.39,14.08-0.1,16.29,8.21
	c2.35,8.83,1.59,17.78-0.52,26.47c-4.06,16.78-8.62,33.43-12.96,50.14c-5.9,22.72-11.13,45.6-12.98,69.05
	c-0.79,10.02-0.53,20.15-0.31,30.22c0.14,6.49,2.62,12.4,6.44,17.68c2.42,3.34,5.45,4.99,9.66,3.6c0.94-0.31,1.97-0.54,2.95-0.48
	c1.18,0.06,2.9,0.09,3.38,0.81c0.53,0.79,0.2,2.46-0.26,3.54c-2.51,5.96-9.94,8.75-16.95,6.47c-5.05-1.65-8.81-5.02-11.9-9.18
	c-6.9-9.3-10.34-19.87-11.55-31.32c-2.07-19.62,0.83-38.81,4.66-57.93c5.05-25.21,13.49-49.41,21.77-73.68
	c2.63-7.72,4.68-15.66,6.5-23.61c0.72-3.14,0.12-6.59,0.12-10.51c-1.89,0.93-3.37,1.54-4.72,2.35
	c-9.94,5.97-18.29,13.79-25.57,22.71c-12.58,15.4-23.39,32.02-31.76,50.07c-3.19,6.88-5.04,14.39-7.46,21.62
	c-1.33,3.96-2.51,7.98-3.89,11.92c-0.5,1.44-1.23,2.86-2.14,4.08c-2.05,2.76-5.39,3.75-8.5,2.74c-3.07-1-5.44-3.82-5.17-7.23
	c0.31-3.87,0.97-7.77,2.05-11.5c8.05-27.97,17.72-55.37,28.65-82.36c6.31-15.57,11.84-31.45,17.55-47.25
	c1.07-2.97,1.33-6.24,1.96-9.38c-0.34-0.23-0.68-0.47-1.02-0.7c-1.56,0.74-3.36,1.2-4.65,2.27c-5.84,4.89-11.91,9.59-17.18,15.05
	c-5.53,5.73-10.64,11.98-15.25,18.48c-20.38,28.77-37.67,59.36-53,91.09c-4.68,9.67-6.69,20.15-9.75,30.31
	c-1.59,5.31-3.08,10.66-4.88,15.89c-1.95,5.68-5.98,8.18-10.38,6.84c-4.36-1.32-6.5-5.4-4.9-11.15
	c5.34-19.17,10.58-38.38,16.57-57.34c11.73-37.08,24.09-73.96,35.84-111.03c2.76-8.7,4.35-17.81,6.03-26.81
	C272.45,243.58,271.89,239.74,271.89,235.36z"/>
<path d="M766.21,560.92c3.62-4.82,6.93-9.36,10.37-13.8c7.09-9.16,14.79-17.75,24.21-24.6c2.69-1.96,5.63-3.74,8.71-4.97
	c6.17-2.45,11.61-0.09,13.86,6.16c1.21,3.35,2.04,7.11,1.87,10.63c-0.33,6.59-1.5,13.14-2.34,19.71c-0.07,0.53-0.19,1.05,0.11,1.82
	c0.63-0.81,1.27-1.6,1.88-2.42c7.28-9.73,15.24-18.83,25.43-25.61c3.96-2.64,8.3-4.96,12.79-6.5c6.69-2.29,12.15,1.34,13.53,8.29
	c1.22,6.15,0.34,12.26-1.48,18.05c-5.8,18.45-11.65,36.9-18.06,55.15c-9.52,27.09-19.38,54.06-26.07,82.05
	c-3.03,12.67-5.27,25.44-5.31,38.53c-0.03,9.67,1.47,18.86,7.86,26.6c6.46,7.83,15.64,14.03,29.22,8.98
	c1.7-0.63,3.46-1.14,5.23-1.53c0.67-0.15,1.45,0.2,2.19,0.33c-0.22,0.64-0.28,1.41-0.68,1.92c-4.2,5.35-9.96,7.75-16.54,8.36
	c-7.82,0.72-14.72-1.85-20.85-6.51c-12.84-9.77-19.1-23.02-20.05-38.92c-1.06-17.66,2.36-34.74,6.89-51.66
	c7-26.14,17.34-51.08,27.14-76.22c6.52-16.75,12.62-33.68,18.59-50.63c1.33-3.78,1.39-8.01,1.99-12.04c0.06-0.4-0.18-0.85-0.4-1.79
	c-1.7,0.65-3.33,1.09-4.78,1.87c-7.44,4.02-13.75,9.52-19.42,15.7c-14.44,15.74-26.56,32.95-33.24,53.53
	c-0.87,2.67-1.94,5.29-3.06,7.87c-1.53,3.5-4.09,4.84-6.81,3.76c-2.66-1.05-3.5-3.78-2.3-7.46c3.44-10.53,7.3-20.95,10.21-31.62
	c3.03-11.11,5.34-22.43,7.59-33.73c0.86-4.31,0.92-8.85-1.09-13.61c-1.54,0.81-3.12,1.32-4.27,2.32
	c-4.88,4.2-10.04,8.18-14.37,12.91c-18.04,19.68-33.02,41.58-44.63,65.6c-4.6,9.51-7.38,19.9-11.01,29.89
	c-1.21,3.33-2.41,6.66-3.71,9.96c-1.07,2.72-2.85,3.83-4.9,3.26c-2.13-0.59-3.37-2.72-2.62-5.54c2.18-8.24,4.05-16.62,7-24.59
	c8.35-22.57,17.46-44.85,25.7-67.45c4.91-13.46,8.98-27.23,12.97-41c1.27-4.36,1.36-9.15,1.42-13.75c0.06-4.53-2.2-6.34-6.52-5
	c-4.56,1.41-9.08,3.27-13.2,5.66c-14.63,8.5-26.29,20.24-35.79,34.17c-2.81,4.13-5.45,8.38-8.21,12.55c-0.7,1.05-1.41,2.23-2.41,2.9
	c-0.75,0.5-2.25,0.7-2.91,0.26c-0.65-0.42-0.7-1.81-0.91-2.8c-0.06-0.3,0.2-0.69,0.37-1.01c10.96-20.95,24.72-39.45,45.66-51.49
	c4.38-2.52,9.08-4.7,13.9-6.17c10.47-3.19,16.67,1.64,16.76,12.59c0.08,9.11-2.19,17.85-4.73,26.47
	C773.64,537.76,769.93,549.06,766.21,560.92z"/>
<path d="M307.22,684.49c5.18-6.93,9.77-13.49,14.8-19.68c5.56-6.83,11.48-13.37,17.36-19.94c1.31-1.46,2.94-2.76,4.65-3.72
	c4.27-2.41,8.93-0.67,10.12,4.14c0.79,3.18,0.89,6.68,0.6,9.97c-1.24,14.17-4.51,27.97-8.1,41.7
	c-4.91,18.81-10.22,37.54-13.09,56.82c-1.88,12.68-3.74,25.38-1.94,38.26c0.66,4.69,2.27,8.97,5.29,12.66
	c2.17,2.65,4.79,3.78,8.2,2.56c1.19-0.43,2.45-0.72,3.7-0.92c2.82-0.47,3.75,0.71,2.77,3.38c-1.95,5.32-8.9,8.39-15.09,6.62
	c-4.55-1.3-8.01-4.17-10.92-7.79c-5.74-7.15-8.12-15.5-8.78-24.5c-0.99-13.5,0.99-26.74,4.26-39.7
	c4.8-19.02,10.56-37.79,15.58-56.76c2.79-10.53,4.9-21.23,7.3-31.86c0.22-0.96,0.24-1.96,0.44-3.75c-1.18,1.09-1.89,1.68-2.51,2.35
	c-19.4,20.89-35.15,44.26-46.54,70.39c-3.06,7.02-4.52,14.73-6.73,22.12c-0.47,1.56-0.87,3.17-1.57,4.63
	c-1.2,2.53-3.62,3.58-6.1,2.89c-2.24-0.62-3.81-2.82-3.67-5.45c0.07-1.35,0.43-2.68,0.73-4.01c4.8-21.7,12.14-42.61,19.5-63.53
	c3.53-10.02,7.25-20.02,8.1-30.74c0.14-1.76,0.02-3.53,0.02-6.08c-1.93,1.85-3.43,3.04-4.63,4.47c-5.38,6.4-10.96,12.65-15.95,19.35
	c-11.42,15.32-21.65,31.41-30.88,48.16c-7.5,13.61-13.88,27.57-16.35,43.07c-0.48,3.04-1.39,6.03-2.32,8.96
	c-1.16,3.64-3.96,5.4-6.94,4.66c-3.05-0.76-4.85-3.54-3.98-7.3c3.12-13.63,6.06-27.33,9.81-40.79c6.96-24.94,14.65-49.67,21.62-74.6
	c2.59-9.24,4.1-18.79,5.95-28.23c0.36-1.82,0.03-3.79-0.08-5.69c-0.13-2.12-1.44-2.89-3.37-2.37c-1.92,0.52-3.93,1-5.62,1.99
	c-4.69,2.76-9.46,5.47-13.79,8.74c-11.11,8.4-20.32,18.68-28.18,30.15c-1.26,1.83-2.06,3.99-2.98,6.04c-0.8,1.78-2.05,2.9-4.01,2.5
	c-2.01-0.41-2.48-2.11-2.08-3.83c0.38-1.66,0.97-3.34,1.82-4.81c11.27-19.61,26.48-35.22,46.84-45.46c2.32-1.17,4.9-2.04,7.45-2.49
	c6.36-1.1,10.92,1.75,11.45,8.13c0.51,6.16,0.46,12.64-0.85,18.65c-4.52,20.67-9.7,41.19-14.63,61.76c-0.31,1.3-0.64,2.6-0.44,4.13
	c0.57-0.88,1.16-1.75,1.72-2.63c11.72-18.42,23.8-36.58,38.97-52.44c2.38-2.49,4.86-4.97,7.65-6.95c5.71-4.05,11.28-1.66,12.52,5.25
	c1.4,7.79-0.22,15.4-2.02,22.92C310.84,671.94,309.03,677.92,307.22,684.49z"/>
<path d="M546.63,350.74c-1.93,2.54-3.36,4.51-4.89,6.41c-8.83,10.97-17.67,21.93-26.55,32.86c-1.2,1.47-2.55,2.9-4.09,3.97
	c-0.84,0.58-2.25,0.34-3.4,0.47c-0.04-1.17-0.52-2.59-0.02-3.46c1.2-2.12,2.8-4.01,4.31-5.94c10.54-13.45,21.04-26.92,31.7-40.27
	c2.09-2.62,2.64-5.21,2.56-8.49c-0.45-17.8-1.15-35.61-0.78-53.4c0.3-14.31,3.42-28.29,8.7-41.69c3.04-7.71,7.4-14.56,13.4-20.33
	c3.66-3.52,7.8-6.29,12.78-7.51c12.43-3.05,23.24,5.43,24.03,18.76c0.41,6.92-1.07,13.55-3.09,20.09
	c-6.82,22.05-17.59,42.22-29.56,61.79c-4.22,6.9-8.88,13.52-13.18,20.37c-0.85,1.35-1.45,3.18-1.36,4.74
	c1.81,30.76,3.94,61.49,5.58,92.26c1.11,21.01,0.73,41.99-4.19,62.63c-2.22,9.33-5.4,18.32-10.4,26.55
	c-9.17,15.06-22.2,24.87-39.76,27.87c-21.24,3.62-39.31-11.52-38.84-33.06c0.21-9.46,2.22-18.89,3.63-28.29
	c0.2-1.34,1.66-2.49,2.54-3.72c0.2,1.41,0.68,2.85,0.55,4.23c-0.8,8.14-1.99,16.26-0.68,24.44c1.21,7.6,5.02,13.75,10.91,18.62
	c6.27,5.18,13.49,5.48,20.92,3.57c10.21-2.63,18.43-8.38,24.91-16.67c7.72-9.88,11.28-21.44,13.61-33.51
	c2.86-14.79,3.87-29.76,3.53-44.77c-0.65-28.71-1.71-57.41-2.61-86.11C546.86,352.61,546.77,352.08,546.63,350.74z M556.11,326.43
	c0.23,0.04,0.46,0.09,0.69,0.13c0.58-0.79,1.2-1.54,1.72-2.37c5.57-8.94,11.35-17.77,16.63-26.88c8.4-14.48,15.93-29.4,20.68-45.55
	c1.75-5.96,3-11.98,2.55-18.25c-0.88-12.26-11.57-17.73-21.83-10.97c-2.75,1.82-5.17,4.3-7.33,6.83
	c-5.23,6.15-8.08,13.52-10.14,21.22c-4.62,17.23-5.24,34.8-4.39,52.49C555.07,310.86,555.63,318.64,556.11,326.43z"/>
<path d="M807.9,185.05c5.95-7.34,11.51-14.52,17.42-21.4c3.24-3.78,7.05-7.07,10.65-10.54c0.91-0.88,1.95-1.64,2.99-2.36
	c2.61-1.8,5.4-3.41,8.58-1.6c3.28,1.87,3.66,5.26,3,8.42c-1.35,6.47-3.13,12.86-4.81,19.26c-0.5,1.91-1.27,3.76-1.91,5.64
	c0.29,0.27,0.58,0.55,0.88,0.82c0.38-0.74,0.61-1.64,1.18-2.19c5.58-5.33,11.14-10.68,16.88-15.83c1.65-1.48,3.74-2.62,5.82-3.44
	c3.93-1.53,7.68,0.55,8,4.72c0.24,3.09-0.05,6.44-1.03,9.36c-4.85,14.46-9.89,28.86-15.07,43.21
	c-10.86,30.08-21.6,60.19-28.95,91.39c-3.73,15.82-6.47,31.75-4.52,48.06c0.59,4.92,1.73,9.84,3.24,14.56
	c1.37,4.28,3.34,4.86,7.61,3.42c1.66-0.56,3.32-1.14,5.31-1.82c-3.1,7.23-11.25,9.5-15.24,4.54c-2.11-2.62-3.87-5.78-4.86-8.99
	c-4.2-13.57-4.63-27.58-3.58-41.59c1.91-25.49,8.72-49.89,17.53-73.75c9.25-25.05,18.87-49.96,28.28-74.95
	c1.07-2.85,1.9-5.79,2.28-9.04c-1.18,0.95-2.39,1.87-3.54,2.85c-10.91,9.33-20.16,20.17-28.59,31.73c-1.27,1.74-2.17,3.77-3.04,5.76
	c-5.48,12.57-10.88,25.18-16.36,37.76c-0.83,1.91-1.83,3.77-2.97,5.51c-1.63,2.48-4.19,3.25-6.33,2.15c-2.09-1.08-3-3.37-1.93-6.17
	c2.62-6.87,4.98-13.89,8.26-20.44c9.49-18.95,18.13-38.24,25.51-58.1c1.82-4.9,3.18-9.97,4.74-14.97c-0.27-0.18-0.53-0.36-0.8-0.54
	c-0.86,0.68-1.75,1.32-2.58,2.04c-10.13,8.86-18.18,19.5-26.15,30.25c-14.01,18.9-22.82,40.18-29.46,62.53
	c-1.86,6.26-4.05,12.44-6.23,18.6c-1.54,4.36-3.91,6.01-6.79,5.09c-2.83-0.9-3.48-3.29-2.33-7.86
	c7.01-27.74,17.89-54.13,28.05-80.78c6.41-16.8,12.51-33.71,18.55-50.64c1.14-3.2,1.59-6.72,1.88-10.13c0.27-3.16-1.28-4.6-4.35-3.8
	c-3.65,0.94-7.32,2.25-10.6,4.07c-11.4,6.33-20.86,15.11-29.8,24.48c-4.96,5.19-9.97,10.33-15.06,15.4
	c-1.2,1.19-2.68,2.22-4.23,2.89c-0.75,0.32-2.32-0.07-2.82-0.7c-0.49-0.62-0.28-1.98-0.04-2.94c0.16-0.62,0.9-1.1,1.41-1.62
	c4.38-4.46,8.93-8.78,13.13-13.41c9.82-10.8,20.1-21.07,32.81-28.49c3.8-2.22,7.93-4.15,12.15-5.36c9.33-2.66,15.28,1.95,14.5,11.65
	c-0.53,6.54-2.05,13.11-3.97,19.41c-3.48,11.47-7.57,22.74-11.41,34.1C808.8,182.46,808.38,183.64,807.9,185.05z"/>
<path d="M475.15,831.66c-21.88-0.19-38.53-9.31-50.02-27.47c-2.08-3.29-3.44-7.22-4.32-11.04c-0.88-3.77,0.15-7.47,3.72-9.83
	c2-1.32,3.46-0.73,3.63,1.59c1.03,14.38,10.56,22.74,21.92,28.73c13.46,7.1,28.14,7.65,42.71,3.28
	c13.62-4.09,19.45-13.22,17.62-27.3c-0.58-4.45-1.67-9.07-3.66-13.04c-4.11-8.17-8.57-16.23-13.66-23.82
	c-7.94-11.84-16.71-23.13-24.77-34.89c-7.92-11.55-13.9-24.03-16.48-37.98c-5.44-29.46,12.92-57.95,41.7-64.34
	c9.73-2.16,19.39-1.75,28.54,2.52c8.49,3.96,14.75,10.14,16.54,19.66c1.66,8.81-1.6,16.04-8.44,21.7c-0.62,0.51-1.37,1.12-2.11,1.19
	c-1.15,0.11-2.82,0.22-3.38-0.44c-0.56-0.66-0.35-2.4,0.12-3.39c0.73-1.53,2.01-2.79,2.96-4.23c4.52-6.85,4.33-12.97-0.93-19.28
	c-7.03-8.43-16.43-11.04-26.94-9.99c-17.34,1.73-33.24,16.68-37.32,34.78c-2.76,12.27-0.39,24,4.87,34.99
	c3.78,7.89,8.53,15.41,13.59,22.58c6.96,9.87,14.69,19.19,21.97,28.84c6.15,8.15,11.55,16.75,15.43,26.25
	c3.03,7.42,4.71,15.08,4.28,23.13c-0.7,12.92-6.43,22.91-17.51,29.69C495.88,829.24,485.61,831.52,475.15,831.66z"/>
<path d="M951.37,741.58c-13.14,0.01-25.57-1.73-37.38-6.84c-6.51-2.82-12.36-6.55-16.84-12.17c-8.19-10.27-6.8-22.05,3.58-30.16
	c8.46-6.61,18.3-8.57,28.74-8.28c18.39,0.5,35.53,5.44,51.09,15.26c4.62,2.92,8.76,6.75,12.66,10.61c1.57,1.55,2.14,4.28,2.73,6.58
	c0.2,0.78-0.74,2.31-1.56,2.75c-0.59,0.31-2.12-0.37-2.76-1.05c-17.03-18.15-38.89-25.78-62.82-28.53
	c-4.92-0.57-10.12,0.48-15.07,1.44c-2.75,0.53-5.44,2.1-7.81,3.71c-10.63,7.18-11.21,17.71-1.53,26.08
	c6.95,6.01,15.36,8.98,24.19,10.63c27.25,5.11,52.65,1.2,75.09-16.18c5.79-4.49,10.84-9.67,14.7-15.95
	c6.14-10.01,7.35-20.54,3.41-31.62c-3.01-8.47-7.64-16.06-12.74-23.39c-9.54-13.69-20.64-26.07-31.91-38.32
	c-5.04-5.48-10.04-11.03-14.62-16.9c-10.5-13.46-11.28-27.94-2.73-42.5c11.85-20.19,29.61-32.36,52.66-36.53
	c5.75-1.04,11.62-0.78,17.19,1.46c6.58,2.64,10.37,7.46,11.01,14.59c0.06,0.71-0.37,1.47-0.57,2.2c-0.8-0.27-1.78-0.34-2.36-0.86
	c-0.79-0.71-1.36-1.7-1.86-2.66c-3.16-6.02-8.41-8.77-14.92-8.83c-4.13-0.03-8.43,0.27-12.37,1.41
	c-19.12,5.53-33.3,17.47-42.9,34.73c-6.15,11.06-5.45,22,2.27,32.2c2.96,3.91,6.13,7.67,9.38,11.33
	c6.57,7.41,13.49,14.53,19.86,22.11c7.54,8.97,14.95,18.08,21.86,27.53c3.99,5.46,7.36,11.5,10.19,17.65
	c6.56,14.26,5.04,28.16-3.32,41.3c-8.31,13.05-20.08,22.11-33.92,28.63C979.02,739.12,965.3,741.79,951.37,741.58z"/>
<path d="M954.65,300.12c-0.53,0.63-0.69,0.99-0.87,1c-3.91,0.21-3.85,3.08-4.23,5.91c-1.27,9.43-3.61,18.54-8.48,26.84
	c-3.7,6.32-8.5,11.56-15.04,15.02c-8.93,4.74-19.13,3.76-25.67-2.39c-6.26-5.88-7.98-14.63-4.45-22.8
	c2.71-6.27,7.41-10.7,13.21-14.05c9.14-5.27,18.98-8.71,29.32-10.65c2.43-0.45,3.15-1.42,3.11-3.69
	c-0.37-18.44-0.65-36.88-1.01-55.32c-0.23-11.53-0.55-23.07-0.83-34.6c-0.01-0.35-0.06-0.71-0.12-1.37
	c-2.11,0.36-4.12,0.94-6.13,1.01c-7.16,0.22-14.34,0.08-21.5,0.44c-5.41,0.28-10.81,0.94-16.16,1.81c-2.17,0.35-4.26,1.55-6.23,2.65
	c-3.12,1.75-5.87,3.93-6.59,8.09c-2.5-1.27-2.59-3.31-1.56-4.85c1.58-2.37,3.46-4.73,5.73-6.39c5.99-4.39,13.06-5.83,20.34-6.02
	c6.72-0.17,13.45,0.14,20.16-0.02c3.06-0.07,6.1-0.85,9.17-1.18c2.68-0.29,3.71-1.6,4.07-4.34c1.25-9.57,3.51-18.93,7.17-27.9
	c3.43-8.4,8.21-15.9,16.02-20.85c3.24-2.06,6.9-3.81,10.61-4.7c9.94-2.39,17.37,4.78,15.6,14.88c-0.54,3.09-1.61,6.17-2.96,9.01
	c-7.54,15.77-19.72,26.77-35.56,33.82c-2.04,0.91-2.98,1.97-2.9,4.21c0.48,12.71,1.04,25.41,1.27,38.13
	c0.32,17.98,0.38,35.97,0.49,53.96c0.01,1.51,0.04,2.63,1.83,3.01C953.16,298.98,953.78,299.59,954.65,300.12z M940.88,303.89
	c-0.72,0-1.08-0.08-1.4,0.01c-9.58,2.64-18.81,6.12-27.03,11.82c-4.3,2.98-7.99,6.62-10.03,11.57c-3.34,8.07,2.16,16.28,10.89,16.37
	c5.28,0.05,9.72-2.12,13.53-5.55C936.96,329,939.25,316.7,940.88,303.89z M949.68,195.13c16.36-7.71,28.23-18.73,34.67-35.04
	c0.65-1.64,0.82-3.55,0.81-5.34c-0.02-5.49-3.71-8.35-9.02-7.03c-6.39,1.59-11.23,5.49-14.88,10.8
	C953.83,169.33,951.86,181.89,949.68,195.13z"/>
<path d="M438.42,406.42c-0.92,15.92-5.26,31.49-17.71,43.76c-2.68,2.64-5.86,4.95-9.18,6.72c-7.99,4.26-15.65,2.01-20.47-5.69
	c-3.47-5.55-4.76-11.75-4.93-18.2c-0.27-10.2,2.12-20.02,4.55-29.81c1.38-5.55,3.03-11.03,4.69-16.51c0.49-1.62,1.29-3.22,2.25-4.62
	c1.19-1.76,2.94-2.75,5.18-2.07c2.41,0.74,2.4,2.8,2.19,4.71c-0.82,7.4-1.94,14.78-2.61,22.19c-0.84,9.21-1.49,18.44-1.9,27.68
	c-0.11,2.46,0.73,5.03,1.49,7.43c1.54,4.82,3.04,5.38,7.24,2.43c2.64-1.86,5.32-3.98,7.23-6.54c10-13.46,13.16-28.42,9.34-44.85
	c-1.06-4.57-4.55-6.87-7.9-9.29c-0.82-0.59-2.46,0.05-3.7-0.11c-0.72-0.09-1.38-0.65-2.07-1.01c0.39-0.65,0.62-1.5,1.18-1.91
	c7.37-5.38,16.45-3.41,20.98,4.61C437.79,391.57,438.13,398.5,438.42,406.42z"/>
<path d="M476.09,416.95c-0.32,1.28-0.58,2.57-0.96,3.82c-2.15,7.12-4.12,14.3-6.58,21.31c-1,2.84-2.73,5.6-4.7,7.9
	c-5.19,6.03-12.76,5.14-16.68-1.79c-3.1-5.48-3.97-11.62-3.68-17.68c0.65-13.32,1.83-26.62,2.96-39.91
	c0.33-3.88,1.14-7.73,1.89-11.56c0.6-3.09,2.16-4.56,4.35-4.33c2.89,0.31,3.68,2.53,3.78,4.89c0.16,3.9,0.11,7.81-0.01,11.71
	c-0.3,9.72-0.87,19.43-0.96,29.15c-0.06,6.07,0.54,12.15,0.9,18.22c0.06,0.95,0.39,1.88,0.6,2.82c0.26,0.07,0.52,0.14,0.77,0.22
	c1.4-2.59,3.17-5.05,4.13-7.79c3.27-9.33,6.4-18.72,9.32-28.17c2.39-7.72,4.36-15.57,6.61-23.33c0.47-1.63,1.12-3.33,2.15-4.63
	c0.63-0.81,2.23-1.42,3.2-1.21c0.72,0.15,1.44,1.71,1.6,2.73c0.24,1.59,0,3.26-0.04,4.89c-0.35,15.83-0.54,31.7,2.99,47.22
	c1.69,7.45,5.03,14.52,7.52,21.8c0.33,0.97,0.07,2.14,0.09,3.22c-1.12-0.03-2.67,0.4-3.26-0.18c-1.86-1.8-3.74-3.77-4.93-6.03
	c-5.2-9.87-8.93-20.26-10.35-31.4c-0.08-0.6-0.17-1.2-0.25-1.8C476.4,417,476.24,416.97,476.09,416.95z"/>
<path d="M584.65,394.01c1.83-1.55,3.21-2.83,4.68-3.96c7.88-6.05,15.27-4.02,18.18,5.44c1.67,5.43,2.34,11.17,3.37,16.79
	c1.04,5.67,2.38,11.22,6.1,15.83c1.66,2.06,3.3,4.11,6.42,3.97c1.49-0.07,2.06,1.19,1.19,2.19c-0.98,1.13-2.61,2.63-3.76,2.48
	c-2.48-0.34-5.2-1.14-7.18-2.62c-6.82-5.11-10.22-12.35-11.5-20.64c-0.63-4.04-1.03-8.11-1.6-12.15c-0.2-1.43-0.51-2.87-0.94-4.25
	c-0.99-3.15-2.02-3.48-4.62-1.34c-5.9,4.87-9.23,11.41-11.28,18.58c-1.09,3.82-1.46,7.84-2.18,11.77c-0.21,1.16-0.4,2.34-0.79,3.44
	c-0.98,2.81-3.42,4.38-6.07,4.02c-2.65-0.35-4.69-2.47-4.73-5.5c-0.05-3.63,0.28-7.26,0.45-10.88c1.24-26.13,2.46-52.25,3.77-78.38
	c0.16-3.25,0.73-6.49,1.28-9.71c0.24-1.41,0.78-2.8,1.38-4.11c0.76-1.65,2.09-3.24,3.96-2.45c1.04,0.44,2.05,2.3,2.09,3.55
	c0.68,21.51,1.2,43.03,1.76,64.55C584.68,391.6,584.65,392.56,584.65,394.01z"/>
<path d="M1069.67,628.81c-0.96,1.04-2,2.03-2.88,3.13c-7.31,9.11-11.99,19.65-16.43,30.31c-0.45,1.07-0.54,2.29-0.78,3.44
	c-0.61,2.96-2.35,4.48-4.77,4.15c-2.25-0.31-3.52-2.13-3.24-5.15c1.1-11.93,2-23.89,3.52-35.77c1.67-12.96,3.93-25.85,5.98-38.76
	c0.21-1.33,0.46-2.81,1.19-3.86c0.67-0.96,2.11-2.08,3.06-1.96c0.92,0.12,2.13,1.62,2.36,2.69c0.37,1.73,0.18,3.62,0,5.41
	c-1.87,17.8-3.79,35.59-5.69,53.39c-0.08,0.79-0.13,1.58,0.16,2.51c0.42-0.76,0.79-1.56,1.27-2.28c4-5.93,7.93-11.92,12.11-17.73
	c1.18-1.64,3.01-2.9,4.71-4.07c2.7-1.86,4.98-1.11,5.38,2.09c0.59,4.66,0.87,9.4,0.72,14.09c-0.2,6.35-0.95,12.68-1.4,19.02
	c-0.13,1.81-0.07,3.63-0.03,5.44c0.06,2.34,1.3,3.91,3.39,4.84c1.5,0.66,3.61,1.27,2.63,3.28c-0.61,1.25-2.49,2.46-3.93,2.63
	c-6.42,0.76-13.45-4.35-13.85-10.78c-0.34-5.52,0.29-11.24,1.38-16.69c1.17-5.84,3.39-11.47,5.14-17.19
	c0.18-0.59,0.33-1.19,0.49-1.79C1070.01,629.09,1069.84,628.95,1069.67,628.81z"/>
<path d="M911.3,638.04c0.93-1.91,1.98-3.76,2.77-5.73c2.78-6.91,5.36-13.9,8.23-20.77c1.75-4.18,3.86-8.22,5.89-12.28
	c1.06-2.11,2.69-3.6,5.24-2.85c2.47,0.72,3.44,2.83,3.14,5.14c-0.87,6.66-1.94,13.3-3.02,19.93c-1.01,6.22-1.75,12.45-0.38,18.69
	c1.05,4.78,1.51,10.18,8.53,9.67c-0.41,2.71-2.32,4.1-5.03,3.85c-2.76-0.26-4.99-1.74-6.09-4.1c-1.74-3.75-3.4-7.65-4.3-11.66
	c-1.02-4.57-1.16-9.34-1.69-14.15c-0.33,0.8-0.71,1.65-1.02,2.53c-1.69,4.7-3.21,9.47-5.1,14.09c-1.02,2.49-2.39,4.95-4.1,7.01
	c-3.65,4.4-9.5,3.87-11.72-1.39c-1.62-3.83-2.43-8.2-2.66-12.38c-0.58-10.42,1.45-20.64,3.58-30.78c0.8-3.81,1.92-7.57,3.08-11.29
	c0.45-1.44,1.18-2.93,2.19-4.01c0.67-0.71,2.22-1.2,3.1-0.92c0.88,0.27,1.75,1.54,2.01,2.53c0.31,1.17,0.03,2.52-0.1,3.78
	c-1.17,11.3-2.45,22.59-3.49,33.9c-0.34,3.65-0.05,7.35-0.05,11.03C910.64,637.93,910.97,637.98,911.3,638.04z"/>
<path d="M403.81,741.79c0.96-1.26,2.17-2.39,2.83-3.79c1.8-3.76,3.58-7.56,5-11.47c3.41-9.39,6.61-18.85,9.9-28.28
	c1.22-3.51,2.94-4.92,5.26-4.3c2.27,0.6,3.15,2.75,2.8,6.34c-1.01,10.49-2.05,20.97-2.9,31.47c-0.25,3.15-0.09,6.37,0.24,9.52
	c0.49,4.63,2.15,6.02,6.74,6.27c2.06,0.11,2.73,1.2,1.89,3.09c-0.98,2.2-4.18,3.87-6.98,2.95c-2.32-0.76-4.67-2.08-6.44-3.75
	c-3.29-3.11-4.68-7.31-4.98-11.78c-0.16-2.32-0.03-4.66-0.03-6.99c-0.24-0.04-0.49-0.08-0.73-0.12c-0.41,0.95-0.75,1.95-1.24,2.85
	c-2.27,4.12-4.13,8.56-6.98,12.24c-4.08,5.26-10.69,4.34-13.32-1.79c-1.32-3.06-1.91-6.69-1.85-10.04
	c0.14-6.98,0.87-13.96,1.49-20.92c0.36-4.07,0.92-8.13,1.5-12.17c0.23-1.6,0.41-3.38,1.24-4.68c0.65-1.02,2.34-2.03,3.44-1.91
	c1.09,0.12,2.49,1.48,2.92,2.62c0.58,1.55,0.52,3.4,0.46,5.11c-0.37,10.54-0.83,21.07-1.22,31.6c-0.09,2.52-0.01,5.06-0.01,7.58
	C403.16,741.55,403.48,741.67,403.81,741.79z"/>
<path d="M883,596.91c0.35,0.2,0.57,0.37,0.81,0.46c9.85,3.71,13.84,9.41,13.33,19.88c-0.69,13.94-6.91,25.38-16.67,35.06
	c-0.64,0.63-1.4,1.16-2.16,1.66c-6.5,4.28-13.53,2.14-15.47-5.4c-1.19-4.62-1.54-9.8-0.8-14.5c2.26-14.37,7.46-27.84,14.41-40.61
	c0.6-1.11,1.23-2.37,2.2-3.08c1.04-0.76,2.77-1.62,3.68-1.22c0.87,0.38,1.19,2.27,1.5,3.56c0.15,0.63-0.27,1.4-0.42,2.11
	C883.26,595.52,883.14,596.21,883,596.91z M871.8,646.67c0.41,0.13,0.82,0.25,1.23,0.38c1.23-1.01,2.58-1.89,3.66-3.04
	c5.21-5.55,8.79-12.06,10-19.57c0.61-3.77,0.5-7.78,0-11.58c-0.47-3.64-2.65-6.53-6.25-8.51c-3.53,11.55-7.25,22.65-8.6,34.32
	C871.54,641.31,871.8,644,871.8,646.67z"/>
<path d="M565.59,711.96c-1.82,2.46-3.83,4.81-5.42,7.41c-5.74,9.41-10.72,19.18-13.23,30.03c-0.47,2.03-1.55,3.63-3.92,3.34
	c-2.52-0.3-3.17-2.18-3.03-4.39c0.54-8.89,1.08-17.77,1.7-26.66c0.84-12.05,1.72-24.1,2.66-36.15c0.13-1.7,0.47-3.46,1.16-4.99
	c0.39-0.85,1.71-1.29,2.61-1.91c0.47,0.94,1.37,1.88,1.36,2.81c-0.23,14.53-0.57,29.07-0.89,43.6c-0.01,0.26,0.08,0.53,0.24,1.42
	c0.72-1.21,1.14-2.04,1.68-2.8c3.34-4.74,6.64-9.51,10.09-14.17c0.9-1.21,2.2-2.19,3.49-3c3.07-1.94,6.38-1.1,7.63,2.28
	c0.99,2.67,1.57,5.63,1.62,8.48c0.19,9.08-0.17,18.18,0.11,27.26c0.18,5.96,1.12,11.89,1.63,17.83c0.07,0.77-0.18,1.98-0.7,2.29
	c-0.59,0.36-1.98,0.26-2.44-0.21c-1.18-1.2-2.3-2.61-2.96-4.14c-2.81-6.49-4.39-13.3-4.05-20.41c0.37-7.8,0.97-15.59,1.44-23.39
	c0.08-1.41,0.01-2.83,0.01-4.24C566.12,712.16,565.85,712.06,565.59,711.96z"/>
<path d="M366.24,703.14c2.19-7.06,12.19-9.57,17.55-4.6c2.8,2.6,4.26,5.95,4.57,9.64c1.45,17-2.74,32.4-13.79,45.6
	c-1.94,2.32-4.45,4.33-7.07,5.86c-4.89,2.87-9.66,1.34-12.53-3.57c-2.41-4.13-3.17-8.72-3.12-13.37c0.13-11.8,2.27-23.27,6.53-34.3
	c0.46-1.18,1.05-2.32,1.71-3.4C361.52,702.72,363.42,701.68,366.24,703.14z M363.31,751.11c0.41,0.23,0.83,0.46,1.24,0.69
	c2.52-2.28,5.28-4.35,7.5-6.88c5.49-6.24,8.27-13.85,9.64-21.89c0.77-4.5,1.24-9.24,0.71-13.73c-0.85-7.06-5.69-9.09-12.08-5.79
	c-1.01,0.52-2.11,0.86-3.35,1.36C364.46,720.04,361.2,735.39,363.31,751.11z"/>
<path d="M927.41,268.63c-0.97,2.93-3.09,4.84-6.02,5.89c-2.87,1.03-5.87,0.81-7.74-1.63c-1.76-2.3-2.8-5.16-4.02-7.85
	c-0.42-0.93-0.42-2.05-0.7-3.6c-1.41,2.19-2.44,4.07-3.74,5.75c-1.54,2-3.08,4.11-5.03,5.67c-3.22,2.58-7.43,1.28-8.39-2.71
	c-0.68-2.83-0.95-6.08-0.25-8.85c2.32-9.22,5.14-18.31,7.83-27.44c0.33-1.11,0.79-2.39,1.61-3.1c1.04-0.89,2.62-1.94,3.77-1.74
	c2.01,0.35,1.53,2.23,1.18,3.8c-2.06,9.39-4.09,18.8-6.12,28.2c-0.11,0.49-0.13,1.01,0.2,1.71c0.56-0.78,1.2-1.52,1.66-2.36
	c3.51-6.46,6.98-12.93,10.46-19.4c0.43-0.8,0.76-1.65,1.23-2.43c1.09-1.81,2.64-2.84,4.79-2.14c2.12,0.69,2.92,2.4,2.72,4.5
	c-0.15,1.62-0.53,3.22-0.84,4.82c-0.94,4.99-1.9,9.98-2.82,14.98c-0.2,1.07-0.35,2.16-0.34,3.25c0.04,4.6,1.07,7.84,6.75,4.95
	c1-0.51,2.16-0.7,3.24-1.03C927.03,268.12,927.22,268.38,927.41,268.63z"/>
<path d="M993.03,280.47c-1.82,3.46-5.13,4.44-7.57,2.21c-1.83-1.68-3.47-4.11-4.06-6.49c-1.17-4.74-1.48-9.68-2.29-14.51
	c-0.24-1.43-0.96-2.78-1.46-4.16c-1.24,0.85-2.86,1.44-3.64,2.6c-3.19,4.72-6.14,9.61-9.15,14.46c-0.52,0.84-0.69,2.04-1.4,2.61
	c-1.03,0.83-2.61,1.94-3.58,1.65c-1.14-0.33-2.61-2-2.66-3.14c-0.13-2.96,0.15-6.01,0.78-8.92c4.43-20.32,8.98-40.61,13.51-60.91
	c0.24-1.06,0.45-2.22,1.05-3.07c0.65-0.91,1.74-1.51,2.64-2.25c0.57,1.01,1.69,2.06,1.6,3.01c-0.42,4.61-0.98,9.22-1.81,13.77
	c-2.5,13.67-5.15,27.32-7.73,40.97c-0.18,0.93-0.26,1.88-0.92,2.09c2.2-1.74,4.43-3.43,6.58-5.23c4.94-4.14,9.46-2.97,11.11,3.24
	c0.93,3.48,1.08,7.16,1.55,10.76c0.15,1.17,0.11,2.37,0.3,3.53C986.54,276.68,986.65,281.16,993.03,280.47z"/>
<path d="M882.16,233.3c8.28,6.19,8.21,13.85,4.97,22.22c-2.48,6.4-5.45,12.51-10.1,17.63c-1.33,1.47-2.84,2.85-4.51,3.91
	c-4.1,2.59-8.64,1.06-9.55-3.66c-0.67-3.45-0.65-7.31,0.16-10.73c2.48-10.5,6.8-20.31,12.56-29.44c1.1-1.74,2.56-3.33,4.12-4.67
	c0.87-0.75,2.27-1.07,3.47-1.17c0.59-0.05,1.57,0.72,1.79,1.33c0.2,0.56-0.24,1.49-0.64,2.1
	C883.89,231.62,883.12,232.27,882.16,233.3z M869.92,269.72c0.94-0.46,1.22-0.52,1.4-0.69c6.3-6.03,10.14-13.4,11.62-21.94
	c0.56-3.24-0.9-6.03-3.14-9C875.55,248.51,871.43,258.4,869.92,269.72z"/>
<path d="M1118.72,673.19c0.06,2.33-1.73,4.21-4.04,4.24c-2.31,0.03-4.16-1.8-4.16-4.12c0-2.22,1.7-3.99,3.91-4.08
	C1116.77,669.13,1118.66,670.88,1118.72,673.19z"/>
<path class="st0" d="M556.11,326.43c-0.48-7.79-1.04-15.57-1.42-23.36c-0.85-17.68-0.22-35.26,4.39-52.49
	c2.06-7.7,4.91-15.07,10.14-21.22c2.15-2.53,4.57-5.02,7.33-6.83c10.26-6.76,20.94-1.29,21.83,10.97
	c0.45,6.27-0.79,12.29-2.55,18.25c-4.75,16.16-12.28,31.07-20.68,45.55c-5.28,9.11-11.06,17.94-16.63,26.88
	c-0.52,0.83-1.14,1.58-1.72,2.37C556.57,326.52,556.34,326.47,556.11,326.43z"/>
<path class="st0" d="M940.88,303.89c-1.63,12.82-3.91,25.12-14.04,34.22c-3.81,3.42-8.25,5.6-13.53,5.55
	c-8.73-0.09-14.23-8.3-10.89-16.37c2.04-4.94,5.74-8.59,10.03-11.57c8.22-5.7,17.45-9.18,27.03-11.82
	C939.8,303.81,940.16,303.89,940.88,303.89z"/>
<path class="st0" d="M949.68,195.13c2.17-13.24,4.15-25.8,11.58-36.61c3.65-5.31,8.49-9.21,14.88-10.8c5.31-1.32,9,1.55,9.02,7.03
	c0.01,1.79-0.17,3.7-0.81,5.34C977.91,176.4,966.05,187.42,949.68,195.13z"/>
<path class="st0" d="M871.8,646.67c0-2.67-0.26-5.37,0.04-8c1.35-11.68,5.07-22.77,8.6-34.32c3.6,1.98,5.79,4.87,6.25,8.51
	c0.49,3.81,0.61,7.81,0,11.58c-1.22,7.5-4.8,14.01-10,19.57c-1.08,1.15-2.43,2.04-3.66,3.04
	C872.62,646.93,872.21,646.8,871.8,646.67z"/>
<path class="st0" d="M363.31,751.11c-2.11-15.72,1.15-31.06,3.66-46.24c1.24-0.5,2.34-0.84,3.35-1.36
	c6.39-3.31,11.24-1.27,12.08,5.79c0.54,4.49,0.06,9.23-0.71,13.73c-1.37,8.04-4.15,15.65-9.64,21.89c-2.23,2.53-4.99,4.6-7.5,6.88
	C364.14,751.57,363.72,751.34,363.31,751.11z"/>
<path class="st0" d="M869.92,269.72c1.51-11.32,5.64-21.21,9.87-31.63c2.24,2.97,3.7,5.76,3.14,9c-1.48,8.54-5.32,15.91-11.62,21.94
	C871.13,269.2,870.85,269.26,869.92,269.72z"/>
<rect class="st1" width="1287.27" height="894.55"/>
</svg>
