<?xml version="1.0" encoding="utf-8" standalone="no"?>
<!DOCTYPE svg PUBLIC "-//W3C//DTD SVG 1.1//EN"
  "http://www.w3.org/Graphics/SVG/1.1/DTD/svg11.dtd">
<!-- Created with matplotlib (https://matplotlib.org/) -->
<svg height="263.63625pt" version="1.1" viewBox="0 0 377.304688 263.63625" width="377.304688pt" xmlns="http://www.w3.org/2000/svg" xmlns:xlink="http://www.w3.org/1999/xlink">
 <defs>
  <style type="text/css">
*{stroke-linecap:butt;stroke-linejoin:round;}
  </style>
 </defs>
 <g id="figure_1">
  <g id="patch_1">
   <path d="M 0 263.63625 
L 377.304688 263.63625 
L 377.304688 0 
L 0 0 
z
" style="fill:#ffffff;"/>
  </g>
  <g id="axes_1">
   <g id="patch_2">
    <path d="M 35.304688 239.758125 
L 370.104688 239.758125 
L 370.104688 22.318125 
L 35.304688 22.318125 
z
" style="fill:#ffffff;"/>
   </g>
   <g id="matplotlib.axis_1">
    <g id="xtick_1">
     <g id="line2d_1">
      <defs>
       <path d="M 0 0 
L 0 3.5 
" id="m46c261bc61" style="stroke:#000000;stroke-width:0.8;"/>
      </defs>
      <g>
       <use style="stroke:#000000;stroke-width:0.8;" x="50.311359" xlink:href="#m46c261bc61" y="239.758125"/>
      </g>
     </g>
     <g id="text_1">
      <!-- 0 -->
      <defs>
       <path d="M 31.78125 66.40625 
Q 24.171875 66.40625 20.328125 58.90625 
Q 16.5 51.421875 16.5 36.375 
Q 16.5 21.390625 20.328125 13.890625 
Q 24.171875 6.390625 31.78125 6.390625 
Q 39.453125 6.390625 43.28125 13.890625 
Q 47.125 21.390625 47.125 36.375 
Q 47.125 51.421875 43.28125 58.90625 
Q 39.453125 66.40625 31.78125 66.40625 
z
M 31.78125 74.21875 
Q 44.046875 74.21875 50.515625 64.515625 
Q 56.984375 54.828125 56.984375 36.375 
Q 56.984375 17.96875 50.515625 8.265625 
Q 44.046875 -1.421875 31.78125 -1.421875 
Q 19.53125 -1.421875 13.0625 8.265625 
Q 6.59375 17.96875 6.59375 36.375 
Q 6.59375 54.828125 13.0625 64.515625 
Q 19.53125 74.21875 31.78125 74.21875 
z
" id="DejaVuSans-48"/>
      </defs>
      <g transform="translate(47.130109 254.356563)scale(0.1 -0.1)">
       <use xlink:href="#DejaVuSans-48"/>
      </g>
     </g>
    </g>
    <g id="xtick_2">
     <g id="line2d_2">
      <g>
       <use style="stroke:#000000;stroke-width:0.8;" x="120.814865" xlink:href="#m46c261bc61" y="239.758125"/>
      </g>
     </g>
     <g id="text_2">
      <!-- 100000 -->
      <defs>
       <path d="M 12.40625 8.296875 
L 28.515625 8.296875 
L 28.515625 63.921875 
L 10.984375 60.40625 
L 10.984375 69.390625 
L 28.421875 72.90625 
L 38.28125 72.90625 
L 38.28125 8.296875 
L 54.390625 8.296875 
L 54.390625 0 
L 12.40625 0 
z
" id="DejaVuSans-49"/>
      </defs>
      <g transform="translate(101.727365 254.356563)scale(0.1 -0.1)">
       <use xlink:href="#DejaVuSans-49"/>
       <use x="63.623047" xlink:href="#DejaVuSans-48"/>
       <use x="127.246094" xlink:href="#DejaVuSans-48"/>
       <use x="190.869141" xlink:href="#DejaVuSans-48"/>
       <use x="254.492188" xlink:href="#DejaVuSans-48"/>
       <use x="318.115234" xlink:href="#DejaVuSans-48"/>
      </g>
     </g>
    </g>
    <g id="xtick_3">
     <g id="line2d_3">
      <g>
       <use style="stroke:#000000;stroke-width:0.8;" x="191.318371" xlink:href="#m46c261bc61" y="239.758125"/>
      </g>
     </g>
     <g id="text_3">
      <!-- 200000 -->
      <defs>
       <path d="M 19.1875 8.296875 
L 53.609375 8.296875 
L 53.609375 0 
L 7.328125 0 
L 7.328125 8.296875 
Q 12.9375 14.109375 22.625 23.890625 
Q 32.328125 33.6875 34.8125 36.53125 
Q 39.546875 41.84375 41.421875 45.53125 
Q 43.3125 49.21875 43.3125 52.78125 
Q 43.3125 58.59375 39.234375 62.25 
Q 35.15625 65.921875 28.609375 65.921875 
Q 23.96875 65.921875 18.8125 64.3125 
Q 13.671875 62.703125 7.8125 59.421875 
L 7.8125 69.390625 
Q 13.765625 71.78125 18.9375 73 
Q 24.125 74.21875 28.421875 74.21875 
Q 39.75 74.21875 46.484375 68.546875 
Q 53.21875 62.890625 53.21875 53.421875 
Q 53.21875 48.921875 51.53125 44.890625 
Q 49.859375 40.875 45.40625 35.40625 
Q 44.1875 33.984375 37.640625 27.21875 
Q 31.109375 20.453125 19.1875 8.296875 
z
" id="DejaVuSans-50"/>
      </defs>
      <g transform="translate(172.230871 254.356563)scale(0.1 -0.1)">
       <use xlink:href="#DejaVuSans-50"/>
       <use x="63.623047" xlink:href="#DejaVuSans-48"/>
       <use x="127.246094" xlink:href="#DejaVuSans-48"/>
       <use x="190.869141" xlink:href="#DejaVuSans-48"/>
       <use x="254.492188" xlink:href="#DejaVuSans-48"/>
       <use x="318.115234" xlink:href="#DejaVuSans-48"/>
      </g>
     </g>
    </g>
    <g id="xtick_4">
     <g id="line2d_4">
      <g>
       <use style="stroke:#000000;stroke-width:0.8;" x="261.821877" xlink:href="#m46c261bc61" y="239.758125"/>
      </g>
     </g>
     <g id="text_4">
      <!-- 300000 -->
      <defs>
       <path d="M 40.578125 39.3125 
Q 47.65625 37.796875 51.625 33 
Q 55.609375 28.21875 55.609375 21.1875 
Q 55.609375 10.40625 48.1875 4.484375 
Q 40.765625 -1.421875 27.09375 -1.421875 
Q 22.515625 -1.421875 17.65625 -0.515625 
Q 12.796875 0.390625 7.625 2.203125 
L 7.625 11.71875 
Q 11.71875 9.328125 16.59375 8.109375 
Q 21.484375 6.890625 26.8125 6.890625 
Q 36.078125 6.890625 40.9375 10.546875 
Q 45.796875 14.203125 45.796875 21.1875 
Q 45.796875 27.640625 41.28125 31.265625 
Q 36.765625 34.90625 28.71875 34.90625 
L 20.21875 34.90625 
L 20.21875 43.015625 
L 29.109375 43.015625 
Q 36.375 43.015625 40.234375 45.921875 
Q 44.09375 48.828125 44.09375 54.296875 
Q 44.09375 59.90625 40.109375 62.90625 
Q 36.140625 65.921875 28.71875 65.921875 
Q 24.65625 65.921875 20.015625 65.03125 
Q 15.375 64.15625 9.8125 62.3125 
L 9.8125 71.09375 
Q 15.4375 72.65625 20.34375 73.4375 
Q 25.25 74.21875 29.59375 74.21875 
Q 40.828125 74.21875 47.359375 69.109375 
Q 53.90625 64.015625 53.90625 55.328125 
Q 53.90625 49.265625 50.4375 45.09375 
Q 46.96875 40.921875 40.578125 39.3125 
z
" id="DejaVuSans-51"/>
      </defs>
      <g transform="translate(242.734377 254.356563)scale(0.1 -0.1)">
       <use xlink:href="#DejaVuSans-51"/>
       <use x="63.623047" xlink:href="#DejaVuSans-48"/>
       <use x="127.246094" xlink:href="#DejaVuSans-48"/>
       <use x="190.869141" xlink:href="#DejaVuSans-48"/>
       <use x="254.492188" xlink:href="#DejaVuSans-48"/>
       <use x="318.115234" xlink:href="#DejaVuSans-48"/>
      </g>
     </g>
    </g>
    <g id="xtick_5">
     <g id="line2d_5">
      <g>
       <use style="stroke:#000000;stroke-width:0.8;" x="332.325384" xlink:href="#m46c261bc61" y="239.758125"/>
      </g>
     </g>
     <g id="text_5">
      <!-- 400000 -->
      <defs>
       <path d="M 37.796875 64.3125 
L 12.890625 25.390625 
L 37.796875 25.390625 
z
M 35.203125 72.90625 
L 47.609375 72.90625 
L 47.609375 25.390625 
L 58.015625 25.390625 
L 58.015625 17.1875 
L 47.609375 17.1875 
L 47.609375 0 
L 37.796875 0 
L 37.796875 17.1875 
L 4.890625 17.1875 
L 4.890625 26.703125 
z
" id="DejaVuSans-52"/>
      </defs>
      <g transform="translate(313.237884 254.356563)scale(0.1 -0.1)">
       <use xlink:href="#DejaVuSans-52"/>
       <use x="63.623047" xlink:href="#DejaVuSans-48"/>
       <use x="127.246094" xlink:href="#DejaVuSans-48"/>
       <use x="190.869141" xlink:href="#DejaVuSans-48"/>
       <use x="254.492188" xlink:href="#DejaVuSans-48"/>
       <use x="318.115234" xlink:href="#DejaVuSans-48"/>
      </g>
     </g>
    </g>
   </g>
   <g id="matplotlib.axis_2">
    <g id="ytick_1">
     <g id="line2d_6">
      <defs>
       <path d="M 0 0 
L -3.5 0 
" id="m0a7fa970b7" style="stroke:#000000;stroke-width:0.8;"/>
      </defs>
      <g>
       <use style="stroke:#000000;stroke-width:0.8;" x="35.304688" xlink:href="#m0a7fa970b7" y="220.14836"/>
      </g>
     </g>
     <g id="text_6">
      <!-- −60 -->
      <defs>
       <path d="M 10.59375 35.5 
L 73.1875 35.5 
L 73.1875 27.203125 
L 10.59375 27.203125 
z
" id="DejaVuSans-8722"/>
       <path d="M 33.015625 40.375 
Q 26.375 40.375 22.484375 35.828125 
Q 18.609375 31.296875 18.609375 23.390625 
Q 18.609375 15.53125 22.484375 10.953125 
Q 26.375 6.390625 33.015625 6.390625 
Q 39.65625 6.390625 43.53125 10.953125 
Q 47.40625 15.53125 47.40625 23.390625 
Q 47.40625 31.296875 43.53125 35.828125 
Q 39.65625 40.375 33.015625 40.375 
z
M 52.59375 71.296875 
L 52.59375 62.3125 
Q 48.875 64.0625 45.09375 64.984375 
Q 41.3125 65.921875 37.59375 65.921875 
Q 27.828125 65.921875 22.671875 59.328125 
Q 17.53125 52.734375 16.796875 39.40625 
Q 19.671875 43.65625 24.015625 45.921875 
Q 28.375 48.1875 33.59375 48.1875 
Q 44.578125 48.1875 50.953125 41.515625 
Q 57.328125 34.859375 57.328125 23.390625 
Q 57.328125 12.15625 50.6875 5.359375 
Q 44.046875 -1.421875 33.015625 -1.421875 
Q 20.359375 -1.421875 13.671875 8.265625 
Q 6.984375 17.96875 6.984375 36.375 
Q 6.984375 53.65625 15.1875 63.9375 
Q 23.390625 74.21875 37.203125 74.21875 
Q 40.921875 74.21875 44.703125 73.484375 
Q 48.484375 72.75 52.59375 71.296875 
z
" id="DejaVuSans-54"/>
      </defs>
      <g transform="translate(7.2 223.947579)scale(0.1 -0.1)">
       <use xlink:href="#DejaVuSans-8722"/>
       <use x="83.789062" xlink:href="#DejaVuSans-54"/>
       <use x="147.412109" xlink:href="#DejaVuSans-48"/>
      </g>
     </g>
    </g>
    <g id="ytick_2">
     <g id="line2d_7">
      <g>
       <use style="stroke:#000000;stroke-width:0.8;" x="35.304688" xlink:href="#m0a7fa970b7" y="195.73931"/>
      </g>
     </g>
     <g id="text_7">
      <!-- −50 -->
      <defs>
       <path d="M 10.796875 72.90625 
L 49.515625 72.90625 
L 49.515625 64.59375 
L 19.828125 64.59375 
L 19.828125 46.734375 
Q 21.96875 47.46875 24.109375 47.828125 
Q 26.265625 48.1875 28.421875 48.1875 
Q 40.625 48.1875 47.75 41.5 
Q 54.890625 34.8125 54.890625 23.390625 
Q 54.890625 11.625 47.5625 5.09375 
Q 40.234375 -1.421875 26.90625 -1.421875 
Q 22.3125 -1.421875 17.546875 -0.640625 
Q 12.796875 0.140625 7.71875 1.703125 
L 7.71875 11.625 
Q 12.109375 9.234375 16.796875 8.0625 
Q 21.484375 6.890625 26.703125 6.890625 
Q 35.15625 6.890625 40.078125 11.328125 
Q 45.015625 15.765625 45.015625 23.390625 
Q 45.015625 31 40.078125 35.4375 
Q 35.15625 39.890625 26.703125 39.890625 
Q 22.75 39.890625 18.8125 39.015625 
Q 14.890625 38.140625 10.796875 36.28125 
z
" id="DejaVuSans-53"/>
      </defs>
      <g transform="translate(7.2 199.538529)scale(0.1 -0.1)">
       <use xlink:href="#DejaVuSans-8722"/>
       <use x="83.789062" xlink:href="#DejaVuSans-53"/>
       <use x="147.412109" xlink:href="#DejaVuSans-48"/>
      </g>
     </g>
    </g>
    <g id="ytick_3">
     <g id="line2d_8">
      <g>
       <use style="stroke:#000000;stroke-width:0.8;" x="35.304688" xlink:href="#m0a7fa970b7" y="171.330261"/>
      </g>
     </g>
     <g id="text_8">
      <!-- −40 -->
      <g transform="translate(7.2 175.12948)scale(0.1 -0.1)">
       <use xlink:href="#DejaVuSans-8722"/>
       <use x="83.789062" xlink:href="#DejaVuSans-52"/>
       <use x="147.412109" xlink:href="#DejaVuSans-48"/>
      </g>
     </g>
    </g>
    <g id="ytick_4">
     <g id="line2d_9">
      <g>
       <use style="stroke:#000000;stroke-width:0.8;" x="35.304688" xlink:href="#m0a7fa970b7" y="146.921211"/>
      </g>
     </g>
     <g id="text_9">
      <!-- −30 -->
      <g transform="translate(7.2 150.72043)scale(0.1 -0.1)">
       <use xlink:href="#DejaVuSans-8722"/>
       <use x="83.789062" xlink:href="#DejaVuSans-51"/>
       <use x="147.412109" xlink:href="#DejaVuSans-48"/>
      </g>
     </g>
    </g>
    <g id="ytick_5">
     <g id="line2d_10">
      <g>
       <use style="stroke:#000000;stroke-width:0.8;" x="35.304688" xlink:href="#m0a7fa970b7" y="122.512162"/>
      </g>
     </g>
     <g id="text_10">
      <!-- −20 -->
      <g transform="translate(7.2 126.311381)scale(0.1 -0.1)">
       <use xlink:href="#DejaVuSans-8722"/>
       <use x="83.789062" xlink:href="#DejaVuSans-50"/>
       <use x="147.412109" xlink:href="#DejaVuSans-48"/>
      </g>
     </g>
    </g>
    <g id="ytick_6">
     <g id="line2d_11">
      <g>
       <use style="stroke:#000000;stroke-width:0.8;" x="35.304688" xlink:href="#m0a7fa970b7" y="98.103112"/>
      </g>
     </g>
     <g id="text_11">
      <!-- −10 -->
      <g transform="translate(7.2 101.902331)scale(0.1 -0.1)">
       <use xlink:href="#DejaVuSans-8722"/>
       <use x="83.789062" xlink:href="#DejaVuSans-49"/>
       <use x="147.412109" xlink:href="#DejaVuSans-48"/>
      </g>
     </g>
    </g>
    <g id="ytick_7">
     <g id="line2d_12">
      <g>
       <use style="stroke:#000000;stroke-width:0.8;" x="35.304688" xlink:href="#m0a7fa970b7" y="73.694063"/>
      </g>
     </g>
     <g id="text_12">
      <!-- 0 -->
      <g transform="translate(21.942188 77.493282)scale(0.1 -0.1)">
       <use xlink:href="#DejaVuSans-48"/>
      </g>
     </g>
    </g>
    <g id="ytick_8">
     <g id="line2d_13">
      <g>
       <use style="stroke:#000000;stroke-width:0.8;" x="35.304688" xlink:href="#m0a7fa970b7" y="49.285014"/>
      </g>
     </g>
     <g id="text_13">
      <!-- 10 -->
      <g transform="translate(15.579688 53.084232)scale(0.1 -0.1)">
       <use xlink:href="#DejaVuSans-49"/>
       <use x="63.623047" xlink:href="#DejaVuSans-48"/>
      </g>
     </g>
    </g>
    <g id="ytick_9">
     <g id="line2d_14">
      <g>
       <use style="stroke:#000000;stroke-width:0.8;" x="35.304688" xlink:href="#m0a7fa970b7" y="24.875964"/>
      </g>
     </g>
     <g id="text_14">
      <!-- 20 -->
      <g transform="translate(15.579688 28.675183)scale(0.1 -0.1)">
       <use xlink:href="#DejaVuSans-50"/>
       <use x="63.623047" xlink:href="#DejaVuSans-48"/>
      </g>
     </g>
    </g>
   </g>
   <g id="line2d_15">
    <path clip-path="url(#pe8f2570611)" d="M 50.522869 128.112863 
L 50.94589 53.868071 
L 51.157401 53.401844 
L 51.580422 57.404007 
L 51.791932 58.591803 
L 52.003443 57.683228 
L 52.214953 61.041031 
L 52.637975 69.525653 
L 52.849485 70.047973 
L 53.060996 79.108145 
L 53.272506 75.150912 
L 53.484017 88.000299 
L 53.695527 83.826182 
L 53.907038 87.029123 
L 54.118548 92.129157 
L 54.330059 90.765885 
L 54.541569 99.326305 
L 54.96459 95.002 
L 55.176101 110.11847 
L 55.387611 90.317789 
L 55.599122 128.663685 
L 55.810632 85.256813 
L 56.022143 141.31328 
L 56.233653 80.747937 
L 56.445164 153.495575 
L 56.656674 77.110301 
L 56.868185 165.302192 
L 57.079695 73.376962 
L 57.291206 174.859609 
L 57.502716 71.965803 
L 57.714227 180.798046 
L 57.925737 47.744011 
L 58.137248 229.874489 
L 58.348759 65.674172 
L 58.560269 164.519582 
L 58.77178 85.328796 
L 58.98329 191.151722 
L 59.194801 60.917346 
L 59.406311 216.748509 
L 59.617822 67.954528 
L 59.829332 189.136725 
L 60.040843 72.227062 
L 60.252353 206.88949 
L 60.463864 63.242859 
L 60.675374 210.446029 
L 60.886885 59.47026 
L 61.098395 215.81599 
L 61.309906 61.551699 
L 61.521416 210.095718 
L 61.732927 56.361808 
L 61.944437 220.385158 
L 62.155948 56.285141 
L 62.367458 213.279424 
L 62.578969 60.570596 
L 62.790479 212.679989 
L 63.00199 64.164405 
L 63.2135 208.480586 
L 63.425011 70.781399 
L 63.636521 201.795299 
L 63.848032 77.547174 
L 64.059543 198.371343 
L 64.271053 83.356555 
L 64.482564 191.012258 
L 64.694074 94.132943 
L 64.905585 185.909318 
L 65.117095 97.510547 
L 65.328606 179.767316 
L 65.540116 107.821518 
L 65.751627 171.04301 
L 65.963137 118.464335 
L 66.174648 164.148566 
L 66.386158 123.955404 
L 66.597669 157.534477 
L 66.809179 130.076824 
L 67.02069 148.426764 
L 67.2322 140.345117 
L 67.443711 141.931782 
L 67.655221 139.269546 
L 67.866732 133.691662 
L 68.078242 148.527293 
L 68.289753 127.630697 
L 68.501263 154.001721 
L 68.712774 126.737255 
L 68.924284 148.935704 
L 69.135795 125.637544 
L 69.347305 151.989227 
L 69.558816 122.93806 
L 69.770327 152.504113 
L 69.981837 121.240264 
L 70.193348 153.27951 
L 70.404858 120.524712 
L 70.616369 151.854235 
L 70.827879 120.669124 
L 71.03939 149.454248 
L 71.2509 124.862016 
L 71.462411 144.699235 
L 71.673921 128.802781 
L 71.885432 139.646096 
L 72.096942 132.094074 
L 72.308453 136.180493 
L 72.519963 134.406355 
L 72.731474 131.630428 
L 73.154495 133.614148 
L 73.366005 131.601779 
L 73.577516 131.952265 
L 74.000537 131.675712 
L 74.212047 130.627826 
L 74.423558 131.362377 
L 74.635068 130.564254 
L 74.846579 128.420687 
L 75.058089 131.703462 
L 75.2696 127.756967 
L 75.481111 129.914388 
L 75.904132 127.412098 
L 76.115642 129.092351 
L 76.327153 126.861316 
L 76.538663 127.592403 
L 76.961684 126.164035 
L 77.173195 126.155599 
L 77.384705 125.420591 
L 77.596216 126.495593 
L 77.807726 124.374874 
L 78.019237 125.21111 
L 78.230747 124.750971 
L 78.442258 123.318679 
L 78.653768 124.173509 
L 79.076789 123.355685 
L 79.2883 121.065082 
L 79.49981 124.364946 
L 79.711321 120.300215 
L 79.922831 122.570502 
L 80.134342 121.63503 
L 80.345852 121.221739 
L 80.557363 119.953536 
L 80.768873 120.119991 
L 80.980384 120.584904 
L 81.403405 119.08843 
L 81.614916 118.647678 
L 81.826426 119.071642 
L 82.037937 118.061093 
L 82.249447 117.606878 
L 82.460958 118.050027 
L 82.672468 117.090197 
L 83.095489 116.290142 
L 83.307 116.809852 
L 83.51851 115.973461 
L 83.730021 115.684772 
L 83.941531 114.556058 
L 84.153042 115.770952 
L 84.364552 114.242746 
L 84.576063 114.66912 
L 84.999084 114.731383 
L 85.210594 114.069481 
L 85.633615 114.039159 
L 86.056636 114.410556 
L 86.479657 115.853154 
L 86.691168 115.663491 
L 86.902679 116.36806 
L 87.114189 116.437571 
L 87.3257 115.388538 
L 87.53721 115.350201 
L 87.748721 115.946087 
L 87.960231 115.329253 
L 88.171742 115.234854 
L 88.383252 115.394624 
L 89.017784 114.524676 
L 89.863826 114.208227 
L 90.286847 113.998604 
L 90.921378 113.718269 
L 91.76742 113.349498 
L 93.882526 112.557723 
L 94.305547 87.477519 
L 94.517057 113.211969 
L 94.728568 97.822191 
L 94.940078 112.037055 
L 95.151589 99.913899 
L 95.363099 108.756484 
L 95.57461 103.065364 
L 95.78612 106.585589 
L 95.997631 103.807108 
L 96.209141 105.368692 
L 96.632162 104.828774 
L 96.843673 105.112122 
L 97.055183 104.865479 
L 97.266694 105.168949 
L 97.478204 105.916959 
L 97.689715 105.687603 
L 97.901225 105.04989 
L 98.535757 105.787273 
L 98.958778 105.56956 
L 99.170289 106.101267 
L 99.381799 105.634391 
L 99.59331 105.882572 
L 99.80482 105.769891 
L 100.016331 106.33407 
L 100.227841 106.276977 
L 100.862373 104.659007 
L 101.073883 100.985119 
L 101.285394 93.223966 
L 101.496904 101.604224 
L 101.919925 102.242314 
L 102.131436 101.562615 
L 102.554457 101.216781 
L 102.765967 98.301169 
L 102.977478 102.553618 
L 103.188988 100.214917 
L 103.400499 101.014286 
L 103.61201 100.825282 
L 104.246541 101.725769 
L 104.458052 101.258737 
L 104.669562 101.530125 
L 104.881073 101.432667 
L 105.092583 101.724489 
L 105.304094 102.324849 
L 105.515604 104.902724 
L 105.727115 103.463457 
L 105.938625 102.866788 
L 106.361646 103.357839 
L 106.573157 103.268902 
L 106.996178 103.733339 
L 107.419199 103.687135 
L 107.630709 103.893935 
L 107.84222 103.84866 
L 108.05373 104.040193 
L 108.265241 103.989316 
L 108.688262 104.312178 
L 108.899772 104.271619 
L 109.322794 104.616101 
L 109.534304 104.575174 
L 110.803367 105.599589 
L 112.07243 107.825503 
L 112.495451 109.363058 
L 113.764514 108.657839 
L 114.187535 103.904484 
L 114.399046 100.366896 
L 114.610556 89.393326 
L 114.822067 91.724442 
L 115.033578 98.33843 
L 115.245088 97.005981 
L 115.456599 97.022687 
L 115.668109 96.889019 
L 115.87962 96.931649 
L 116.09113 97.110761 
L 116.514151 98.088183 
L 116.725662 97.961957 
L 117.783214 98.306171 
L 117.994725 98.428263 
L 118.206235 98.3093 
L 118.629256 98.662391 
L 118.840767 98.568367 
L 119.052277 98.820816 
L 119.263788 98.759905 
L 119.475298 99.041772 
L 119.686809 99.021417 
L 120.10983 99.277395 
L 120.32134 99.576845 
L 122.436446 100.583377 
L 122.859467 100.83595 
L 123.705509 102.805317 
L 124.12853 102.809954 
L 124.551551 104.147354 
L 124.974572 106.912617 
L 125.397593 108.864441 
L 125.609103 109.674289 
L 126.243635 108.565306 
L 126.878167 107.78377 
L 127.089677 107.73925 
L 127.512698 107.498863 
L 134.281035 105.465478 
L 135.338587 105.099755 
L 138.511245 103.88861 
L 139.357287 103.520322 
L 139.568798 103.524549 
L 141.049371 102.864371 
L 141.472392 102.777225 
L 142.106924 102.392076 
L 142.529945 102.312446 
L 142.741455 102.175276 
L 143.164476 102.093422 
L 144.222029 101.754422 
L 144.64505 101.669119 
L 145.279582 101.45226 
L 145.914113 101.379417 
L 146.548645 101.2238 
L 147.394687 101.164864 
L 148.029218 100.998206 
L 149.932813 101.054679 
L 150.355834 101.017446 
L 150.990366 101.091111 
L 151.201876 90.664476 
L 151.413387 41.75171 
L 151.624897 91.693283 
L 151.836408 90.228787 
L 152.047918 90.288513 
L 152.259429 90.494435 
L 152.89396 88.818344 
L 153.105471 88.894039 
L 153.316981 88.06578 
L 153.528492 87.915951 
L 153.740002 87.92927 
L 154.163023 87.17336 
L 154.374534 87.300136 
L 155.220576 85.210354 
L 155.432087 85.721176 
L 155.643597 85.021391 
L 156.066618 87.630776 
L 156.489639 99.669728 
L 156.70115 110.849337 
L 157.124171 96.71205 
L 157.547192 92.794653 
L 157.758702 92.273937 
L 158.181723 92.129698 
L 158.393234 92.156826 
L 158.604744 92.477519 
L 158.816255 93.415625 
L 159.027765 93.469837 
L 159.873807 94.187857 
L 160.085318 94.570116 
L 161.142871 95.391617 
L 161.354381 95.608094 
L 161.777402 69.948738 
L 161.988913 89.952611 
L 162.200423 91.043768 
L 162.411934 91.083341 
L 162.623444 89.411379 
L 162.834955 91.081939 
L 163.046465 90.778428 
L 163.257976 90.999258 
L 163.469486 90.781722 
L 163.892507 90.951369 
L 164.104018 90.702177 
L 164.315528 90.882809 
L 164.527039 90.677134 
L 164.738549 90.891921 
L 165.16157 90.598543 
L 165.373081 90.767666 
L 165.796102 90.531685 
L 166.007613 90.778537 
L 166.430634 90.459142 
L 166.642144 90.598786 
L 167.065165 90.349467 
L 167.276676 89.058443 
L 167.488186 89.184268 
L 168.122718 88.197602 
L 168.334228 88.532101 
L 168.545739 87.619159 
L 168.96876 84.817185 
L 169.18027 79.506254 
L 169.391781 88.688653 
L 169.603291 86.181544 
L 169.814802 86.552452 
L 170.237823 89.524872 
L 170.660844 93.177402 
L 171.295375 106.181574 
L 171.506886 110.069518 
L 171.718397 108.141308 
L 171.929907 103.405354 
L 172.141418 101.865682 
L 172.775949 100.688532 
L 173.19897 100.74401 
L 173.410481 99.207858 
L 173.621991 94.349954 
L 173.833502 93.452639 
L 174.256523 97.016093 
L 174.468033 97.327616 
L 174.679544 98.06135 
L 174.891054 97.820567 
L 175.102565 97.098651 
L 175.314075 97.756917 
L 175.737096 97.544446 
L 175.948607 97.148661 
L 176.160117 97.077365 
L 176.371628 96.417561 
L 176.583138 97.044798 
L 176.794649 96.622636 
L 177.006159 95.410528 
L 177.429181 95.64861 
L 177.640691 95.155578 
L 177.852202 95.179169 
L 178.275223 94.301496 
L 178.486733 92.866673 
L 179.121265 91.391066 
L 179.332775 91.429549 
L 179.544286 90.264921 
L 180.178817 85.515747 
L 180.390328 84.196081 
L 180.813349 85.994177 
L 181.23637 87.407528 
L 181.44788 88.053657 
L 181.870901 91.223094 
L 183.139965 106.665415 
L 183.351475 107.874055 
L 183.562986 107.159763 
L 183.774496 105.03621 
L 184.197517 103.280491 
L 184.832049 102.447639 
L 185.25507 102.303908 
L 185.46658 97.97011 
L 185.678091 96.711926 
L 186.312622 98.130136 
L 186.524133 97.645372 
L 186.735643 97.563645 
L 186.947154 97.861204 
L 187.581685 96.70368 
L 187.793196 95.728387 
L 188.216217 95.902665 
L 188.427727 95.714728 
L 188.850749 94.736907 
L 189.27377 94.104901 
L 189.48528 93.923924 
L 189.696791 94.019432 
L 189.908301 93.319343 
L 190.119812 93.428237 
L 190.331322 92.725071 
L 190.542833 92.492472 
L 190.965854 91.320662 
L 191.177364 91.376489 
L 191.600385 91.1851 
L 192.023406 90.620086 
L 192.234917 90.051224 
L 192.446427 90.062616 
L 192.657938 89.055699 
L 192.869448 88.943735 
L 193.080959 89.228929 
L 193.292469 89.001172 
L 193.50398 88.261815 
L 193.71549 88.314436 
L 193.927001 88.107627 
L 194.138511 87.326741 
L 194.350022 87.457331 
L 194.984554 86.831695 
L 195.196064 88.063465 
L 195.407575 92.309896 
L 195.830596 106.92251 
L 196.042106 109.557879 
L 196.676638 100.049626 
L 197.099659 96.786296 
L 197.52268 95.759683 
L 197.73419 95.595524 
L 198.157211 89.953113 
L 198.368722 90.200422 
L 198.580232 91.710448 
L 198.791743 90.364259 
L 199.003253 91.402333 
L 199.214764 91.182404 
L 199.426274 90.686396 
L 199.637785 90.900385 
L 199.849295 90.814995 
L 200.060806 89.259323 
L 200.272317 90.045824 
L 200.483827 89.45548 
L 200.695338 89.532011 
L 200.906848 88.646684 
L 201.118359 88.922915 
L 201.329869 88.567584 
L 201.54138 86.866285 
L 201.75289 87.815424 
L 201.964401 87.566936 
L 202.175911 85.805166 
L 202.387422 87.020337 
L 202.598932 86.252645 
L 202.810443 86.638916 
L 203.233464 85.100133 
L 203.444974 85.124916 
L 203.867995 84.893797 
L 204.079506 83.759041 
L 204.291016 84.40103 
L 204.502527 85.519723 
L 204.714037 85.130069 
L 204.925548 87.467217 
L 205.348569 95.88263 
L 205.56008 97.902815 
L 205.983101 94.706144 
L 206.194611 94.203251 
L 206.406122 94.288906 
L 206.829143 92.219554 
L 207.040653 91.937935 
L 207.463674 91.862028 
L 207.886695 81.65707 
L 208.098206 81.867407 
L 208.309716 83.788507 
L 208.521227 83.421021 
L 208.732737 84.633169 
L 208.944248 83.92936 
L 209.155758 82.020868 
L 209.367269 83.177493 
L 209.578779 82.12739 
L 210.213311 71.969622 
L 210.424821 86.992438 
L 210.636332 83.036064 
L 210.847842 85.114528 
L 211.059353 83.1785 
L 211.270864 83.394754 
L 211.482374 83.435909 
L 211.693885 83.200306 
L 212.116906 86.432958 
L 212.328416 91.948004 
L 212.539927 93.864719 
L 212.751437 94.576171 
L 213.174458 90.675414 
L 213.385969 90.849534 
L 213.597479 90.531974 
L 213.80899 89.93808 
L 214.232011 90.689393 
L 214.443521 90.372251 
L 214.655032 90.285871 
L 214.866542 87.980187 
L 215.078053 78.247184 
L 215.289563 74.437977 
L 215.501074 82.021941 
L 215.712584 79.942882 
L 215.924095 81.714807 
L 216.135605 77.320028 
L 216.347116 76.758955 
L 216.558626 69.538231 
L 216.770137 80.049355 
L 217.193158 85.642368 
L 217.404669 85.004458 
L 217.616179 88.014376 
L 217.82769 83.89653 
L 218.0392 86.408952 
L 218.250711 84.570048 
L 218.462221 86.126238 
L 218.673732 86.51276 
L 219.096753 92.926988 
L 219.308263 94.667764 
L 219.519774 94.478419 
L 219.731284 95.151559 
L 219.942795 91.002919 
L 220.154305 91.191097 
L 220.365816 90.380978 
L 220.577326 90.28827 
L 220.788837 90.562868 
L 221.000347 86.099781 
L 221.211858 79.219765 
L 221.423368 82.623331 
L 221.634879 82.67391 
L 221.846389 82.943526 
L 222.0579 81.89891 
L 222.26941 78.256007 
L 222.480921 71.605632 
L 222.692432 71.436065 
L 222.903942 88.592524 
L 223.115453 89.177836 
L 223.326963 87.881626 
L 223.538474 88.258152 
L 223.749984 87.826694 
L 223.961495 88.170021 
L 224.173005 88.059019 
L 224.596026 92.211882 
L 224.807537 91.253012 
L 225.019047 91.68099 
L 225.230558 94.697109 
L 225.442068 95.520314 
L 225.653579 98.249489 
L 226.28811 96.052704 
L 226.499621 96.026255 
L 226.711131 94.841042 
L 226.922642 94.621265 
L 227.134152 93.050267 
L 227.557173 86.895105 
L 227.768684 87.406982 
L 227.980194 86.990855 
L 228.614726 81.432791 
L 228.826237 79.069821 
L 229.249258 78.069931 
L 229.460768 86.166263 
L 229.883789 85.375195 
L 230.30681 84.514353 
L 230.518321 84.587909 
L 231.152852 83.17616 
L 231.364363 82.994398 
L 231.575873 82.622373 
L 231.787384 82.917339 
L 231.998894 84.95775 
L 232.210405 90.122725 
L 232.421915 99.402766 
L 232.633426 103.605267 
L 232.844936 103.93314 
L 233.267957 105.20647 
L 234.114 100.34517 
L 234.537021 100.27714 
L 234.748531 99.846978 
L 234.960042 99.769769 
L 235.171552 97.153202 
L 235.383063 92.440777 
L 235.594573 93.502269 
L 235.806084 93.797174 
L 236.017594 95.05991 
L 236.229105 94.00454 
L 236.440615 94.498039 
L 236.652126 95.854652 
L 236.863636 93.358014 
L 237.286657 95.092355 
L 237.498168 94.151829 
L 237.709678 93.757956 
L 237.921189 94.189786 
L 238.132699 93.881771 
L 238.34421 92.947768 
L 238.55572 93.788297 
L 238.767231 93.656678 
L 238.978741 92.539852 
L 239.190252 93.380341 
L 239.401762 93.455547 
L 239.824784 92.888822 
L 240.036294 92.389586 
L 240.247805 92.186625 
L 240.459315 92.42763 
L 240.670826 92.452977 
L 241.516868 91.698062 
L 241.728378 90.602148 
L 242.151399 91.020025 
L 242.36291 90.292432 
L 242.57442 90.467715 
L 243.843483 89.585185 
L 244.266504 89.227586 
L 244.478015 89.160487 
L 245.112546 88.492388 
L 245.324057 88.441182 
L 245.747078 88.055988 
L 245.958589 88.030876 
L 246.170099 89.080512 
L 246.38161 92.803651 
L 246.804631 107.006951 
L 247.016141 110.325734 
L 247.227652 109.928473 
L 247.862183 102.524909 
L 248.073694 102.576581 
L 248.496715 100.98159 
L 248.919736 100.487748 
L 249.342757 95.871376 
L 249.554267 94.686352 
L 249.765778 95.835702 
L 249.977288 95.634663 
L 250.188799 96.634693 
L 250.400309 96.277895 
L 250.61182 96.740374 
L 250.82333 95.971272 
L 251.034841 96.064975 
L 251.246352 95.099055 
L 251.457862 95.080758 
L 251.669373 95.266752 
L 252.515415 94.530558 
L 252.726925 94.200387 
L 253.149946 94.025134 
L 253.784478 91.995446 
L 253.995988 92.508513 
L 254.419009 92.149166 
L 254.63052 91.728683 
L 254.84203 91.646793 
L 255.053541 91.153022 
L 255.265051 91.068969 
L 255.688072 90.07228 
L 255.899583 90.151175 
L 256.534115 89.10268 
L 256.745625 88.832335 
L 256.957136 88.376379 
L 257.168646 88.434381 
L 258.014688 86.984667 
L 258.226199 86.650927 
L 258.437709 85.606255 
L 258.64922 86.066216 
L 258.86073 85.762674 
L 259.072241 85.139782 
L 259.283751 85.315638 
L 259.495262 86.686815 
L 259.706772 90.388074 
L 260.129793 106.188395 
L 260.341304 105.812121 
L 260.552814 101.177412 
L 261.398856 93.72485 
L 261.821877 93.269435 
L 262.033388 93.208611 
L 262.244899 88.164454 
L 262.456409 86.573889 
L 262.87943 88.788202 
L 263.090941 87.482948 
L 263.302451 88.650698 
L 263.513962 87.237056 
L 263.725472 87.467419 
L 263.936983 86.015049 
L 264.148493 86.951536 
L 264.360004 86.766722 
L 264.571514 86.940872 
L 264.783025 86.466691 
L 264.994535 85.716819 
L 265.206046 85.992039 
L 265.417556 85.340674 
L 265.629067 85.281016 
L 265.840577 84.945458 
L 266.052088 84.305008 
L 266.263598 84.145917 
L 266.475109 82.877568 
L 266.686619 83.341558 
L 267.10964 83.008464 
L 267.321151 82.451273 
L 267.532661 82.299172 
L 267.744172 81.758944 
L 267.955683 81.935538 
L 268.167193 81.154329 
L 268.378704 80.887074 
L 268.590214 80.953069 
L 269.013235 80.048431 
L 269.436256 79.476668 
L 269.647767 78.562192 
L 269.859277 78.593656 
L 270.070788 77.581279 
L 270.282298 78.814443 
L 270.493809 77.546277 
L 270.705319 77.811252 
L 270.91683 77.384164 
L 271.12834 76.330714 
L 271.551361 76.716006 
L 271.762872 75.427078 
L 271.974382 75.587776 
L 272.397403 70.769249 
L 272.608914 71.077488 
L 272.820424 79.612365 
L 273.031935 78.425431 
L 273.243445 78.354075 
L 273.454956 81.405809 
L 273.666467 86.390777 
L 274.089488 105.772611 
L 274.300998 101.834093 
L 274.724019 91.50868 
L 275.14704 87.095437 
L 275.358551 86.532411 
L 275.993082 80.5655 
L 276.204593 80.68536 
L 276.416103 82.710579 
L 276.627614 82.68403 
L 276.839124 83.251323 
L 277.050635 80.001757 
L 277.262145 82.815516 
L 277.473656 82.911282 
L 277.685166 83.197953 
L 277.896677 82.668921 
L 278.108187 82.614787 
L 278.319698 82.835016 
L 278.531208 83.428823 
L 278.742719 82.842344 
L 278.954229 81.368225 
L 279.377251 83.837519 
L 279.588761 82.693636 
L 279.800272 83.440125 
L 280.011782 82.702431 
L 280.223293 83.375558 
L 280.434803 82.521264 
L 280.646314 83.34146 
L 280.857824 82.548668 
L 281.280845 83.39039 
L 281.492356 83.02353 
L 281.703866 82.884093 
L 281.915377 80.582948 
L 282.126887 82.649721 
L 282.338398 82.16005 
L 282.549908 82.548202 
L 282.761419 81.755056 
L 282.972929 81.864889 
L 283.18444 81.361359 
L 283.39595 78.377507 
L 283.607461 77.716267 
L 283.818971 74.068068 
L 284.030482 73.66036 
L 284.241992 86.31001 
L 284.453503 87.506429 
L 284.665013 86.253069 
L 284.876524 86.303605 
L 285.088035 90.606109 
L 285.299545 90.684602 
L 285.934077 101.77123 
L 286.145587 101.283612 
L 286.991629 95.745496 
L 287.20314 95.288409 
L 287.41465 95.099655 
L 287.626161 95.089919 
L 287.837671 88.883041 
L 288.049182 86.679091 
L 288.260692 87.495487 
L 288.895224 90.665042 
L 289.106734 87.839163 
L 289.318245 89.040948 
L 289.741266 88.214128 
L 290.164287 88.206505 
L 290.375797 85.227729 
L 290.587308 85.574955 
L 290.798819 84.930555 
L 291.010329 83.74178 
L 291.22184 81.066523 
L 291.43335 81.575716 
L 291.644861 84.873981 
L 291.856371 82.000035 
L 292.067882 84.220082 
L 292.279392 84.13918 
L 292.702413 83.50129 
L 293.336945 80.472174 
L 293.548455 80.811197 
L 293.759966 84.857704 
L 294.394497 103.724032 
L 294.606008 105.582734 
L 294.817518 105.873835 
L 295.029029 105.95718 
L 295.240539 105.29495 
L 295.875071 101.112604 
L 296.086581 100.115281 
L 296.298092 99.719572 
L 296.509603 98.4736 
L 296.721113 95.002627 
L 296.932624 95.168481 
L 297.144134 94.97317 
L 297.355645 95.104013 
L 298.201687 96.172901 
L 298.413197 94.511548 
L 298.836218 95.991499 
L 299.047729 95.10834 
L 299.259239 94.999322 
L 299.47075 93.421003 
L 299.68226 95.122241 
L 299.893771 93.585654 
L 300.105281 94.519182 
L 300.316792 94.734213 
L 300.528302 93.52525 
L 300.739813 93.85659 
L 300.951323 93.030524 
L 301.162834 92.985625 
L 301.374344 93.161632 
L 301.797365 92.835561 
L 302.008876 92.889232 
L 302.220387 91.783068 
L 302.431897 92.393538 
L 302.643408 92.440437 
L 303.066429 91.068455 
L 303.48945 91.538795 
L 303.912471 91.050125 
L 304.123981 90.284814 
L 304.335492 90.542811 
L 305.604555 89.684356 
L 306.027576 89.183636 
L 306.450597 89.028009 
L 306.662107 90.177253 
L 306.873618 93.2185 
L 307.50815 109.677535 
L 307.71966 110.051739 
L 308.354192 103.761261 
L 308.565702 102.28925 
L 308.777213 101.915867 
L 309.623255 101.276623 
L 309.834765 98.854058 
L 310.046276 94.664952 
L 310.257786 94.94811 
L 310.469297 96.898718 
L 310.680807 96.475557 
L 310.892318 96.835504 
L 311.103828 96.919737 
L 311.526849 95.92878 
L 311.73836 95.939742 
L 311.94987 95.751365 
L 312.161381 96.164783 
L 312.584402 95.011306 
L 312.795912 94.963324 
L 313.007423 95.136394 
L 313.641955 94.070422 
L 313.853465 93.84077 
L 314.064976 92.704614 
L 314.276486 92.994793 
L 314.487997 92.91453 
L 314.699507 92.252939 
L 314.911018 92.323183 
L 315.122528 91.840817 
L 315.545549 91.738082 
L 316.180081 90.431103 
L 316.391591 90.295668 
L 316.603102 89.819473 
L 316.814612 89.862138 
L 317.026123 89.454238 
L 317.237633 89.452762 
L 317.449144 90.562012 
L 317.660654 92.380387 
L 318.295186 105.287575 
L 318.506696 104.046974 
L 318.718207 101.147463 
L 318.929718 101.610708 
L 319.352739 98.056193 
L 319.77576 97.091711 
L 319.98727 96.827 
L 320.198781 96.758748 
L 320.621802 88.990536 
L 320.833312 90.777954 
L 321.044823 89.371855 
L 321.256333 90.558991 
L 321.467844 90.205535 
L 321.679354 90.380968 
L 321.890865 90.926985 
L 322.313886 89.587489 
L 322.525396 89.738573 
L 322.736907 88.021299 
L 322.948417 88.945858 
L 323.159928 87.97345 
L 323.371438 88.346212 
L 323.794459 86.891352 
L 324.00597 87.315417 
L 324.21748 86.476301 
L 324.428991 86.350166 
L 324.640502 85.669385 
L 324.852012 84.226158 
L 325.063523 84.891387 
L 325.275033 84.78856 
L 325.698054 83.240625 
L 325.909565 83.279217 
L 326.121075 83.022015 
L 326.332586 82.447968 
L 326.544096 80.915021 
L 326.755607 80.655961 
L 326.967117 79.96999 
L 327.390138 73.893333 
L 327.601649 83.771002 
L 327.813159 83.299791 
L 328.02467 83.17418 
L 328.23618 82.333187 
L 328.447691 85.72405 
L 329.082222 104.335863 
L 329.293733 100.741259 
L 329.505243 99.312224 
L 329.928264 91.529898 
L 330.139775 90.264537 
L 330.351286 89.721359 
L 330.562796 89.503328 
L 330.774307 87.435702 
L 330.985817 82.676345 
L 331.197328 83.287783 
L 331.408838 83.364469 
L 331.620349 85.139281 
L 331.831859 85.050076 
L 332.04337 85.145613 
L 332.25488 84.684169 
L 332.466391 80.909927 
L 332.677901 83.987933 
L 332.889412 83.972916 
L 333.100922 83.434358 
L 333.312433 84.028122 
L 333.735454 81.283788 
L 333.946964 83.826868 
L 334.158475 82.113565 
L 334.581496 82.769709 
L 335.216027 81.113022 
L 335.427538 82.310535 
L 335.850559 80.60957 
L 336.06207 81.171571 
L 336.27358 79.277958 
L 336.485091 80.511401 
L 336.696601 80.274525 
L 336.908112 79.739473 
L 337.119622 78.62041 
L 337.331133 80.638917 
L 337.542643 79.480686 
L 337.754154 79.510126 
L 337.965664 78.766203 
L 338.177175 76.335834 
L 338.600196 76.819071 
L 339.023217 72.742313 
L 339.869259 86.854672 
L 340.080769 88.880368 
L 340.715301 101.145966 
L 340.926811 101.415457 
L 341.349832 94.369699 
L 341.772854 90.826999 
L 342.195875 90.559298 
L 342.618896 82.67133 
L 342.830406 83.887119 
L 343.041917 86.291181 
L 343.253427 83.664178 
L 343.464938 86.786123 
L 343.676448 86.477729 
L 343.887959 86.515622 
L 344.099469 85.982282 
L 344.31098 86.124429 
L 344.52249 85.631239 
L 344.734001 86.036133 
L 344.945511 86.126983 
L 345.157022 85.367701 
L 345.368532 86.857191 
L 345.580043 83.018855 
L 345.791553 85.558166 
L 346.003064 84.734134 
L 346.214574 85.056167 
L 346.637595 82.367664 
L 346.849106 85.345361 
L 347.060616 80.634858 
L 347.272127 81.722965 
L 347.483638 81.054034 
L 347.695148 80.864502 
L 347.906659 80.348369 
L 348.118169 84.292694 
L 348.32968 83.628652 
L 348.54119 79.723241 
L 349.387232 98.857409 
L 349.598743 100.597503 
L 349.810253 104.255871 
L 350.021764 104.120825 
L 350.444785 101.351796 
L 351.079316 98.166422 
L 351.290827 97.342571 
L 351.502337 97.273277 
L 351.925358 90.732662 
L 352.136869 90.361561 
L 352.348379 92.048855 
L 352.55989 91.379165 
L 352.7714 92.300432 
L 352.982911 90.919733 
L 353.194422 92.535785 
L 353.617443 92.811162 
L 353.828953 90.500927 
L 354.040464 90.619272 
L 354.463485 92.587963 
L 354.674995 90.199239 
L 354.886506 89.256127 
L 354.886506 89.256127 
" style="fill:none;stroke:#1f77b4;stroke-linecap:square;stroke-width:1.5;"/>
   </g>
   <g id="line2d_16">
    <path clip-path="url(#pe8f2570611)" d="M 50.522869 103.653476 
L 50.73438 83.827075 
L 50.94589 77.91005 
L 51.157401 76.2041 
L 51.368911 75.598059 
L 51.580422 75.418964 
L 52.003443 75.34536 
L 52.849485 77.06559 
L 53.060996 78.360339 
L 53.272506 77.757827 
L 53.484017 79.665994 
L 53.695527 78.945831 
L 54.118548 80.358107 
L 54.330059 80.198508 
L 54.541569 81.629415 
L 54.75308 81.22175 
L 54.96459 81.076503 
L 55.176101 83.765912 
L 55.387611 80.37908 
L 55.599122 87.443242 
L 55.810632 79.357074 
L 56.022143 90.308001 
L 56.233653 78.569758 
L 56.445164 93.393272 
L 56.656674 77.927106 
L 56.868185 96.683877 
L 57.079695 77.271685 
L 57.291206 99.750445 
L 57.502716 77.011674 
L 57.714227 102.070783 
L 57.925737 73.390192 
L 58.137248 119.664286 
L 58.348759 75.26058 
L 58.560269 98.552878 
L 58.77178 79.817269 
L 58.98329 107.830199 
L 59.194801 75.406264 
L 59.406311 119.126054 
L 59.617822 76.22871 
L 59.829332 109.182051 
L 60.040843 77.438806 
L 60.252353 118.065834 
L 60.463864 75.795184 
L 60.675374 121.340655 
L 60.886885 75.174209 
L 61.098395 125.848669 
L 61.309906 75.500414 
L 61.521416 124.552587 
L 61.732927 74.600276 
L 61.944437 133.463703 
L 62.155948 74.579598 
L 62.367458 131.170876 
L 62.578969 75.335404 
L 62.790479 133.221307 
L 63.00199 76.010103 
L 63.2135 132.602016 
L 63.425011 77.327557 
L 63.636521 130.276469 
L 63.848032 78.812836 
L 64.059543 129.720268 
L 64.271053 80.198091 
L 64.482564 126.810335 
L 64.694074 83.037465 
L 64.905585 124.125706 
L 65.117095 84.083212 
L 65.328606 122.330403 
L 65.540116 87.390505 
L 65.751627 117.749389 
L 65.963137 91.284522 
L 66.174648 113.976301 
L 66.386158 93.7006 
L 66.597669 111.110065 
L 66.809179 96.782511 
L 67.02069 107.197886 
L 67.2322 102.349795 
L 67.443711 103.759629 
L 67.655221 102.879459 
L 67.866732 101.090434 
L 68.078242 110.039979 
L 68.289753 98.209226 
L 68.501263 114.517698 
L 68.712774 97.548482 
L 68.924284 111.924561 
L 69.135795 97.832882 
L 69.347305 115.278564 
L 69.558816 96.587802 
L 69.770327 116.785353 
L 69.981837 95.975708 
L 70.193348 118.42096 
L 70.404858 95.749179 
L 70.616369 118.188784 
L 70.827879 96.082374 
L 71.03939 117.316501 
L 71.2509 98.783527 
L 71.462411 113.723017 
L 71.673921 101.615523 
L 71.885432 110.246888 
L 72.096942 104.412017 
L 72.308453 108.072528 
L 72.731474 105.192083 
L 72.942984 106.879731 
L 73.154495 107.646231 
L 73.366005 106.258267 
L 73.577516 107.001024 
L 74.000537 107.18112 
L 74.212047 106.556914 
L 74.423558 107.419688 
L 74.635068 106.827677 
L 74.846579 105.489101 
L 75.058089 108.618488 
L 75.2696 105.155287 
L 75.481111 107.530322 
L 75.692621 106.266303 
L 75.904132 105.728555 
L 76.115642 107.475802 
L 76.327153 105.485828 
L 76.538663 106.501442 
L 76.961684 105.560153 
L 77.173195 105.851465 
L 77.384705 105.390992 
L 77.596216 106.508937 
L 77.807726 104.54655 
L 78.019237 105.668942 
L 78.230747 105.252614 
L 78.442258 104.091229 
L 78.653768 105.251705 
L 79.076789 104.488012 
L 79.2883 102.560041 
L 79.49981 106.171783 
L 79.711321 101.917698 
L 79.922831 104.692654 
L 80.134342 103.570304 
L 80.345852 103.210549 
L 80.557363 102.12297 
L 80.980384 103.153335 
L 81.191895 102.076744 
L 81.614916 101.468494 
L 81.826426 102.021185 
L 82.037937 100.970063 
L 82.249447 100.655214 
L 82.460958 101.23523 
L 82.672468 100.208706 
L 83.095489 99.651199 
L 83.307 100.267693 
L 83.51851 99.277643 
L 83.730021 99.032207 
L 83.941531 97.9003 
L 84.153042 99.411834 
L 84.364552 97.604706 
L 84.576063 98.223628 
L 84.999084 98.052241 
L 85.210594 97.180107 
L 85.633615 97.048294 
L 86.056636 97.102098 
L 86.268147 97.830734 
L 86.479657 97.832071 
L 86.691168 97.233028 
L 86.902679 97.533656 
L 87.114189 97.204895 
L 87.3257 95.949674 
L 87.53721 95.80977 
L 87.748721 96.219474 
L 87.960231 95.486814 
L 88.171742 95.329355 
L 88.383252 95.394983 
L 89.017784 94.483079 
L 93.459505 92.575795 
L 93.882526 92.436207 
L 94.305547 69.087863 
L 94.517057 100.912018 
L 94.728568 78.350406 
L 94.940078 98.886647 
L 95.151589 80.731778 
L 95.363099 93.362408 
L 95.57461 84.695468 
L 95.78612 89.755158 
L 95.997631 85.757418 
L 96.209141 88.037108 
L 96.632162 87.057073 
L 96.843673 87.402321 
L 97.055183 86.982053 
L 97.266694 87.313377 
L 97.478204 88.168167 
L 97.689715 87.642091 
L 97.901225 86.717949 
L 98.535757 87.463125 
L 98.958778 86.976503 
L 99.170289 87.604439 
L 99.381799 86.95627 
L 99.59331 87.204493 
L 99.80482 87.033448 
L 100.016331 87.705872 
L 100.227841 87.508391 
L 100.862373 85.688265 
L 101.073883 81.417216 
L 101.285394 71.54895 
L 101.496904 84.197863 
L 101.919925 85.203976 
L 102.131436 83.954078 
L 102.554457 83.550074 
L 102.765967 78.800856 
L 102.977478 87.33982 
L 103.188988 82.251046 
L 103.400499 83.983005 
L 103.61201 83.640845 
L 104.035031 84.645997 
L 104.246541 84.912636 
L 104.458052 83.87987 
L 104.669562 84.358643 
L 104.881073 84.12783 
L 105.092583 84.572736 
L 105.304094 85.468024 
L 105.515604 89.373133 
L 105.727115 86.052533 
L 105.938625 85.002966 
L 106.361646 85.648059 
L 106.573157 85.528504 
L 106.996178 86.092912 
L 107.419199 85.924238 
L 107.630709 86.187591 
L 107.84222 86.122604 
L 108.05373 86.373814 
L 108.265241 86.317195 
L 108.688262 86.794714 
L 108.899772 86.741103 
L 109.322794 87.155671 
L 109.534304 87.10379 
L 110.591857 88.033951 
L 111.437899 89.487783 
L 112.07243 90.449206 
L 112.495451 91.897241 
L 112.918472 91.074624 
L 113.341493 90.737016 
L 113.764514 90.709786 
L 114.187535 85.882506 
L 114.399046 82.016779 
L 114.610556 67.259655 
L 114.822067 70.379113 
L 115.033578 95.240078 
L 115.245088 87.096601 
L 115.456599 87.631583 
L 115.668109 87.395773 
L 116.09113 88.323095 
L 116.302641 89.328405 
L 116.514151 89.583359 
L 116.725662 88.091377 
L 117.571704 87.42889 
L 117.783214 87.80196 
L 117.994725 87.660448 
L 118.206235 87.08166 
L 118.417746 87.449775 
L 118.629256 87.350694 
L 118.840767 86.854928 
L 119.052277 87.207567 
L 119.263788 86.75669 
L 119.475298 87.094327 
L 119.686809 86.680518 
L 120.10983 86.638128 
L 120.32134 87.021246 
L 120.744362 86.379834 
L 120.955872 86.388412 
L 121.167383 86.131386 
L 121.378893 86.157894 
L 121.590404 85.937049 
L 121.801914 85.97602 
L 122.224935 85.618188 
L 122.647956 85.702387 
L 122.859467 85.560076 
L 123.070977 86.11232 
L 123.282488 86.098876 
L 123.705509 87.156873 
L 123.917019 86.512291 
L 124.12853 86.236555 
L 124.551551 87.451378 
L 124.763061 89.358215 
L 125.397593 90.892761 
L 125.609103 91.178843 
L 126.032124 89.866045 
L 126.455146 89.173218 
L 127.089677 88.719071 
L 127.512698 88.550831 
L 131.319887 87.749423 
L 131.742908 87.592179 
L 134.492545 86.895161 
L 134.915566 86.81966 
L 136.60765 86.384265 
L 136.819161 86.380611 
L 137.242182 86.261683 
L 143.375987 85.146932 
L 144.010519 85.09758 
L 145.702603 84.958625 
L 146.760155 84.941496 
L 147.606197 84.91494 
L 149.932813 84.969005 
L 150.567345 84.971983 
L 150.990366 84.999341 
L 151.201876 79.111574 
L 151.413387 46.738264 
L 151.624897 68.841718 
L 151.836408 66.399599 
L 152.047918 66.053012 
L 152.259429 66.016165 
L 152.89396 62.232243 
L 153.105471 61.884329 
L 153.316981 59.983996 
L 154.797555 53.692863 
L 155.220576 49.098662 
L 155.432087 49.824143 
L 155.643597 47.382643 
L 156.066618 54.549933 
L 156.70115 93.852945 
L 156.91266 82.706935 
L 157.124171 78.25145 
L 157.335681 77.36934 
L 157.547192 77.134186 
L 157.758702 77.180251 
L 158.604744 78.065608 
L 158.816255 78.796573 
L 160.508339 80.557556 
L 161.354381 81.059884 
L 161.565892 74.41799 
L 161.777402 62.502838 
L 161.988913 71.405452 
L 162.200423 71.883427 
L 162.411934 71.642767 
L 162.623444 69.790616 
L 162.834955 70.812266 
L 163.046465 70.295787 
L 163.257976 70.236764 
L 163.680997 69.586065 
L 163.892507 69.423702 
L 164.104018 68.937836 
L 164.315528 68.857745 
L 164.527039 68.412558 
L 164.738549 68.386199 
L 165.16157 67.624507 
L 165.373081 67.560276 
L 165.796102 66.864997 
L 166.007613 66.927616 
L 166.430634 66.129662 
L 166.642144 66.068077 
L 167.065165 65.36224 
L 167.276676 63.169663 
L 167.488186 62.791672 
L 168.122718 59.606531 
L 168.334228 59.713184 
L 168.545739 57.537404 
L 168.96876 49.580911 
L 169.18027 32.201761 
L 169.391781 74.814348 
L 169.603291 53.643669 
L 169.814802 55.640217 
L 170.449333 67.571015 
L 170.660844 70.652392 
L 171.295375 87.431817 
L 171.506886 90.119873 
L 172.141418 84.179337 
L 172.564439 84.108527 
L 172.98746 84.163191 
L 173.19897 84.239454 
L 173.410481 83.310938 
L 173.621991 80.158438 
L 173.833502 78.792375 
L 174.045012 79.120911 
L 174.256523 79.992648 
L 174.468033 79.996654 
L 174.679544 80.37763 
L 174.891054 80.105131 
L 175.102565 79.38024 
L 175.314075 79.731573 
L 175.737096 79.322692 
L 176.371628 77.825744 
L 176.583138 78.254619 
L 176.794649 77.673227 
L 177.006159 76.234121 
L 177.429181 76.015915 
L 177.640691 75.306681 
L 177.852202 75.120997 
L 178.275223 73.733852 
L 178.698244 70.312152 
L 179.121265 68.395869 
L 179.332775 68.495402 
L 179.544286 66.234573 
L 180.178817 55.225442 
L 180.390328 52.836257 
L 180.601838 66.343409 
L 181.024859 70.495768 
L 181.23637 68.789481 
L 181.44788 69.045106 
L 182.505433 83.923819 
L 182.928454 86.846067 
L 183.351475 88.515242 
L 183.562986 87.753689 
L 183.774496 86.34716 
L 184.197517 85.517177 
L 185.25507 85.125713 
L 185.46658 82.321246 
L 185.678091 81.075644 
L 185.889601 80.967632 
L 186.101112 81.084203 
L 186.312622 81.030355 
L 186.524133 80.436596 
L 186.735643 80.185006 
L 186.947154 80.232013 
L 187.581685 78.803369 
L 187.793196 77.696931 
L 188.216217 77.408642 
L 188.427727 77.016948 
L 189.062259 74.951088 
L 189.48528 74.041934 
L 189.696791 73.975329 
L 189.908301 72.982341 
L 190.119812 72.925221 
L 190.965854 69.255368 
L 191.600385 68.257078 
L 192.023406 67.069698 
L 192.234917 65.963863 
L 192.446427 65.692463 
L 192.657938 63.904172 
L 192.869448 63.321342 
L 193.080959 63.497702 
L 193.292469 62.925223 
L 193.50398 61.437986 
L 193.71549 61.267514 
L 193.927001 60.698041 
L 194.138511 59.059002 
L 194.350022 58.910069 
L 194.984554 57.035047 
L 195.196064 59.28857 
L 195.407575 67.359188 
L 195.830596 87.614065 
L 196.042106 89.080838 
L 196.253617 86.736106 
L 196.465127 86.141268 
L 196.676638 84.810561 
L 197.099659 83.867046 
L 197.73419 83.493777 
L 198.368722 80.211554 
L 198.580232 80.550669 
L 198.791743 79.614043 
L 199.003253 79.819386 
L 199.849295 78.739119 
L 200.060806 77.684694 
L 200.272317 77.828763 
L 200.483827 77.305285 
L 200.695338 77.131524 
L 200.906848 76.427625 
L 201.118359 76.340967 
L 201.329869 75.942482 
L 201.54138 74.649897 
L 201.75289 74.852631 
L 201.964401 74.483909 
L 202.175911 73.101639 
L 202.387422 73.451812 
L 202.598932 72.752984 
L 202.810443 72.75085 
L 203.233464 71.258761 
L 203.867995 70.328141 
L 204.079506 69.301534 
L 204.291016 69.420617 
L 204.502527 70.198707 
L 204.714037 70.115903 
L 204.925548 72.063832 
L 205.56008 82.350346 
L 205.77159 82.510572 
L 205.983101 82.464962 
L 206.406122 83.121575 
L 206.829143 82.611609 
L 207.463674 82.490584 
L 207.886695 77.306061 
L 208.098206 76.264172 
L 208.309716 76.14359 
L 208.521227 75.206418 
L 208.732737 75.15539 
L 208.944248 74.273772 
L 209.155758 72.56045 
L 209.367269 72.393307 
L 209.578779 71.123776 
L 210.0018 65.026773 
L 210.213311 58.704567 
L 210.424821 67.995981 
L 210.636332 65.518001 
L 210.847842 67.418386 
L 211.059353 66.431021 
L 211.482374 67.125185 
L 211.693885 67.247505 
L 212.116906 70.91797 
L 212.539927 78.722558 
L 212.751437 80.520012 
L 212.962948 80.754451 
L 213.174458 80.34611 
L 213.385969 80.851792 
L 213.597479 81.03908 
L 213.80899 80.987339 
L 214.232011 81.541401 
L 214.655032 81.444151 
L 214.866542 80.386229 
L 215.289563 71.989004 
L 215.501074 73.539109 
L 215.712584 71.277062 
L 215.924095 70.949489 
L 216.347116 64.188817 
L 216.558626 55.411889 
L 216.981648 61.459214 
L 217.193158 63.596389 
L 217.404669 63.605929 
L 217.616179 67.212793 
L 217.82769 64.49597 
L 218.0392 67.063181 
L 218.250711 66.225195 
L 218.673732 68.978868 
L 219.096753 76.094373 
L 219.308263 78.66163 
L 219.731284 81.091398 
L 219.942795 79.653456 
L 220.154305 80.029166 
L 220.365816 79.820841 
L 220.577326 79.828823 
L 220.788837 79.965419 
L 221.000347 77.640699 
L 221.211858 73.259017 
L 221.423368 73.226719 
L 222.0579 68.770408 
L 222.26941 64.254771 
L 222.692432 46.370662 
L 222.903942 62.094409 
L 223.115453 63.68967 
L 223.326963 62.775144 
L 223.538474 63.818535 
L 223.749984 63.940001 
L 224.173005 65.280797 
L 224.596026 71.283798 
L 224.807537 71.396032 
L 225.019047 72.675577 
L 225.442068 77.752424 
L 225.653579 80.714558 
L 226.0766 81.411179 
L 226.28811 81.442659 
L 226.499621 81.756184 
L 226.711131 81.309134 
L 226.922642 81.234469 
L 227.134152 80.319426 
L 227.557173 75.581678 
L 227.768684 74.631093 
L 227.980194 73.142634 
L 228.403216 67.625309 
L 228.826237 55.863149 
L 229.249258 39.163401 
L 229.460768 55.341012 
L 230.30681 50.223009 
L 230.518321 51.043348 
L 230.729831 49.512802 
L 230.941342 47.068961 
L 231.364363 48.3926 
L 231.575873 47.408665 
L 231.787384 51.079331 
L 232.210405 81.415435 
L 232.421915 96.127909 
L 232.844936 84.458385 
L 233.056447 84.743877 
L 233.267957 85.454816 
L 233.690978 84.787828 
L 234.114 84.109439 
L 234.537021 84.366818 
L 234.960042 84.149855 
L 235.171552 82.620258 
L 235.383063 79.523919 
L 235.594573 79.291243 
L 235.806084 78.758757 
L 236.017594 79.049344 
L 236.229105 77.820871 
L 236.440615 77.657235 
L 236.652126 78.372296 
L 236.863636 75.984201 
L 237.075147 76.110365 
L 237.286657 76.602627 
L 237.709678 74.692467 
L 237.921189 74.815936 
L 238.132699 74.20784 
L 238.34421 72.844848 
L 238.55572 73.500576 
L 238.767231 73.158021 
L 238.978741 71.502409 
L 239.190252 72.333948 
L 239.401762 72.353152 
L 239.613273 72.016076 
L 240.247805 70.020849 
L 240.459315 70.335493 
L 240.670826 70.29966 
L 241.516868 68.804529 
L 241.728378 66.721197 
L 242.151399 67.439681 
L 242.36291 65.903921 
L 242.57442 66.30527 
L 243.208952 65.477685 
L 243.420462 64.830777 
L 243.843483 64.326048 
L 244.054994 63.702959 
L 244.478015 63.184921 
L 245.112546 61.472801 
L 245.324057 61.286184 
L 245.747078 60.206878 
L 245.958589 60.01005 
L 246.170099 63.033546 
L 246.38161 72.570516 
L 246.59312 87.576083 
L 246.804631 92.283439 
L 247.016141 91.903149 
L 247.650673 86.355747 
L 247.862183 85.51722 
L 248.073694 85.776767 
L 248.496715 85.179831 
L 248.919736 84.961624 
L 249.554267 81.136243 
L 249.765778 81.323394 
L 249.977288 80.873755 
L 250.188799 81.217005 
L 250.400309 80.818514 
L 250.61182 80.945627 
L 250.82333 80.304554 
L 251.034841 80.199617 
L 251.246352 79.349298 
L 251.457862 79.095794 
L 251.669373 79.041355 
L 253.149946 77.030388 
L 253.572967 75.95973 
L 253.784478 74.805504 
L 253.995988 74.927767 
L 254.419009 74.24503 
L 255.053541 72.803723 
L 255.265051 72.519426 
L 256.111093 70.395244 
L 256.745625 68.811567 
L 256.957136 68.134878 
L 257.168646 67.931812 
L 258.226199 64.920056 
L 258.437709 63.443504 
L 258.64922 63.487572 
L 258.86073 62.91055 
L 259.072241 61.94917 
L 259.283751 61.813053 
L 259.495262 63.357464 
L 259.706772 68.097909 
L 260.129793 86.164066 
L 260.341304 86.625259 
L 260.552814 84.82485 
L 260.764325 84.501633 
L 261.187346 83.273911 
L 261.398856 82.983519 
L 262.033388 82.79391 
L 262.456409 79.294589 
L 262.66792 79.227059 
L 262.87943 79.326461 
L 263.090941 78.380491 
L 263.302451 78.595064 
L 263.513962 77.62303 
L 263.725472 77.38471 
L 263.936983 76.267737 
L 264.148493 76.34225 
L 264.360004 75.969532 
L 264.571514 75.82463 
L 266.263598 72.110252 
L 266.475109 70.941927 
L 266.686619 70.75396 
L 267.955683 67.803853 
L 268.378704 66.363238 
L 268.590214 66.0462 
L 269.859277 61.678756 
L 270.070788 60.249788 
L 270.282298 60.558658 
L 270.493809 59.164163 
L 270.705319 58.777214 
L 270.91683 57.944923 
L 271.12834 56.438183 
L 271.551361 55.262765 
L 272.185893 49.070295 
L 272.608914 40.025723 
L 272.820424 47.734986 
L 273.031935 47.616547 
L 273.243445 48.649195 
L 273.454956 53.73279 
L 273.666467 61.981315 
L 274.089488 85.314851 
L 274.300998 85.101143 
L 274.512509 83.579445 
L 275.14704 82.194926 
L 275.358551 82.04667 
L 275.570061 81.208911 
L 275.993082 79.118807 
L 276.204593 78.607855 
L 276.416103 78.909348 
L 276.627614 78.574693 
L 276.839124 78.499024 
L 277.050635 76.766303 
L 277.262145 77.364578 
L 277.685166 76.949755 
L 278.108187 76.017074 
L 278.319698 75.767101 
L 278.531208 75.731004 
L 278.742719 75.156172 
L 278.954229 73.962389 
L 279.377251 74.398485 
L 279.588761 73.526307 
L 279.800272 73.546195 
L 280.011782 72.799049 
L 280.223293 72.769343 
L 280.434803 71.900697 
L 280.646314 71.928936 
L 280.857824 71.05809 
L 281.280845 70.67705 
L 281.703866 69.496524 
L 281.915377 67.286571 
L 282.126887 67.695046 
L 282.338398 66.730899 
L 282.549908 66.324694 
L 283.18444 62.87789 
L 283.607461 55.711826 
L 284.030482 40.638408 
L 284.241992 55.497176 
L 284.453503 58.43248 
L 284.665013 57.688257 
L 284.876524 58.677777 
L 285.088035 65.632471 
L 285.299545 67.365061 
L 285.934077 82.607236 
L 286.145587 83.59448 
L 286.357098 83.852184 
L 286.568608 83.499045 
L 287.626161 83.163108 
L 288.049182 78.265195 
L 288.260692 77.576215 
L 288.683713 77.016651 
L 288.895224 77.122953 
L 289.106734 74.771062 
L 289.318245 74.61167 
L 290.164287 70.520305 
L 290.375797 66.6698 
L 290.587308 65.087461 
L 291.010329 58.734001 
L 291.43335 47.474626 
L 291.644861 51.91804 
L 291.856371 42.780715 
L 292.067882 50.455528 
L 292.279392 50.923102 
L 292.702413 49.666295 
L 293.336945 39.197359 
L 293.548455 53.129312 
L 293.759966 87.51982 
L 293.971476 90.12189 
L 294.182987 94.79548 
L 294.394497 88.223646 
L 294.606008 86.750197 
L 294.817518 86.102484 
L 295.029029 86.338397 
L 295.240539 86.26985 
L 295.45205 85.696076 
L 295.66356 84.754065 
L 295.875071 84.808985 
L 296.509603 83.481901 
L 296.721113 81.329844 
L 297.778666 79.403956 
L 297.990176 79.207968 
L 298.201687 79.18606 
L 298.413197 77.598911 
L 298.624708 77.66153 
L 298.836218 78.123297 
L 299.047729 77.157821 
L 299.259239 76.743916 
L 299.47075 74.898142 
L 299.68226 76.211518 
L 299.893771 74.347663 
L 300.105281 75.088189 
L 300.316792 75.167124 
L 300.528302 73.579771 
L 300.739813 73.707814 
L 300.951323 72.464362 
L 301.162834 72.129933 
L 301.374344 72.187572 
L 301.797365 71.433492 
L 302.008876 71.462855 
L 302.220387 69.587199 
L 302.431897 70.509087 
L 302.643408 70.505757 
L 302.854918 69.503841 
L 303.066429 67.955528 
L 303.277939 68.221023 
L 303.48945 68.714601 
L 303.912471 67.76236 
L 304.123981 66.160186 
L 304.335492 66.674386 
L 304.970023 65.837325 
L 305.181534 65.098526 
L 305.604555 64.58507 
L 306.027576 63.409927 
L 306.450597 62.867936 
L 306.662107 65.89016 
L 306.873618 72.895449 
L 307.085128 85.556724 
L 307.296639 90.794631 
L 307.50815 91.924309 
L 308.354192 86.136515 
L 308.565702 85.496427 
L 308.988723 85.418215 
L 309.200234 85.410086 
L 309.623255 85.219132 
L 309.834765 83.84146 
L 310.046276 81.227918 
L 310.257786 80.765624 
L 310.469297 81.515608 
L 310.680807 80.983926 
L 310.892318 80.975383 
L 311.103828 80.843462 
L 311.94987 79.231661 
L 312.161381 79.35957 
L 312.584402 78.173565 
L 312.795912 77.943682 
L 313.007423 77.913843 
L 313.853465 76.20095 
L 314.064976 74.958531 
L 314.276486 74.917199 
L 314.487997 74.656399 
L 314.699507 73.837486 
L 314.911018 73.653766 
L 315.122528 72.982805 
L 315.545549 72.483577 
L 316.603102 69.480132 
L 316.814612 69.27958 
L 317.026123 68.657474 
L 317.237633 68.422759 
L 317.449144 69.609982 
L 317.660654 71.810031 
L 318.295186 86.057463 
L 318.506696 85.717986 
L 318.718207 84.576329 
L 318.929718 85.311526 
L 319.352739 84.09844 
L 319.77576 83.795424 
L 320.198781 83.651686 
L 320.410291 82.078901 
L 320.621802 79.479437 
L 320.833312 79.642735 
L 321.044823 78.353307 
L 321.256333 78.407762 
L 321.467844 77.796749 
L 321.679354 77.530446 
L 321.890865 77.56897 
L 322.525396 76.071513 
L 322.736907 74.673805 
L 322.948417 74.8463 
L 323.159928 73.920524 
L 323.371438 73.821996 
L 323.794459 72.241327 
L 324.00597 72.161195 
L 325.063523 68.346221 
L 325.275033 67.851463 
L 325.909565 65.104777 
L 326.332586 63.388626 
L 327.178628 54.322132 
L 327.390138 47.486829 
L 327.601649 56.053599 
L 327.813159 56.296483 
L 328.02467 56.936049 
L 328.23618 56.833368 
L 328.447691 61.538149 
L 329.082222 84.854977 
L 329.293733 84.314871 
L 329.505243 84.852513 
L 329.716754 83.43288 
L 330.139775 82.546472 
L 330.562796 82.323012 
L 330.774307 81.479163 
L 330.985817 79.356928 
L 331.408838 78.430014 
L 331.620349 78.73634 
L 332.25488 77.722015 
L 332.466391 75.552243 
L 332.677901 76.327349 
L 332.889412 76.009433 
L 333.100922 75.428839 
L 333.312433 75.401446 
L 333.735454 73.18003 
L 333.946964 73.999439 
L 334.158475 72.825268 
L 334.581496 72.427891 
L 335.216027 70.407352 
L 335.427538 70.644864 
L 335.850559 68.792167 
L 336.06207 68.600067 
L 336.27358 66.805116 
L 336.485091 66.808139 
L 336.908112 65.133156 
L 337.119622 63.537997 
L 337.331133 64.199064 
L 337.965664 60.954516 
L 338.388685 56.003452 
L 338.600196 54.228668 
L 339.023217 43.758868 
L 339.234727 43.476286 
L 339.446238 47.209925 
L 339.869259 58.864254 
L 340.29228 70.31752 
L 340.715301 82.40132 
L 340.926811 84.375405 
L 341.138322 83.56913 
L 341.772854 82.459763 
L 342.195875 82.39024 
L 342.618896 78.49907 
L 342.830406 78.150705 
L 343.041917 78.53398 
L 343.253427 76.763247 
L 343.464938 77.587818 
L 344.31098 75.43513 
L 344.52249 74.594414 
L 344.945511 73.710286 
L 345.157022 72.639444 
L 345.368532 72.988945 
L 345.580043 69.765258 
L 345.791553 70.318498 
L 346.426085 65.707566 
L 346.637595 63.390708 
L 346.849106 64.533716 
L 347.060616 58.594345 
L 347.272127 56.96333 
L 347.906659 45.342381 
L 348.118169 49.971221 
L 348.32968 47.693757 
L 348.54119 36.507767 
L 348.752701 49.283764 
L 348.964211 70.120656 
L 349.175722 72.696451 
L 349.387232 78.828495 
L 349.598743 79.914425 
L 349.810253 84.041374 
L 350.021764 84.407248 
L 350.233274 84.492174 
L 350.444785 84.227063 
L 350.656295 84.172344 
L 351.290827 83.489491 
L 351.502337 83.464407 
L 352.136869 78.502479 
L 352.348379 78.684352 
L 352.55989 77.673309 
L 352.7714 77.584852 
L 352.982911 76.023672 
L 353.194422 76.490791 
L 353.617443 75.800351 
L 353.828953 73.41544 
L 354.040464 72.700269 
L 354.463485 73.36055 
L 354.886506 68.638291 
L 354.886506 68.638291 
" style="fill:none;stroke:#ff7f0e;stroke-linecap:square;stroke-width:1.5;"/>
   </g>
   <g id="patch_3">
    <path d="M 35.304688 239.758125 
L 35.304688 22.318125 
" style="fill:none;stroke:#000000;stroke-linecap:square;stroke-linejoin:miter;stroke-width:0.8;"/>
   </g>
   <g id="patch_4">
    <path d="M 370.104688 239.758125 
L 370.104688 22.318125 
" style="fill:none;stroke:#000000;stroke-linecap:square;stroke-linejoin:miter;stroke-width:0.8;"/>
   </g>
   <g id="patch_5">
    <path d="M 35.304688 239.758125 
L 370.104688 239.758125 
" style="fill:none;stroke:#000000;stroke-linecap:square;stroke-linejoin:miter;stroke-width:0.8;"/>
   </g>
   <g id="patch_6">
    <path d="M 35.304688 22.318125 
L 370.104688 22.318125 
" style="fill:none;stroke:#000000;stroke-linecap:square;stroke-linejoin:miter;stroke-width:0.8;"/>
   </g>
   <g id="text_15">
    <!-- Percent Qin volume change -->
    <defs>
     <path d="M 19.671875 64.796875 
L 19.671875 37.40625 
L 32.078125 37.40625 
Q 38.96875 37.40625 42.71875 40.96875 
Q 46.484375 44.53125 46.484375 51.125 
Q 46.484375 57.671875 42.71875 61.234375 
Q 38.96875 64.796875 32.078125 64.796875 
z
M 9.8125 72.90625 
L 32.078125 72.90625 
Q 44.34375 72.90625 50.609375 67.359375 
Q 56.890625 61.8125 56.890625 51.125 
Q 56.890625 40.328125 50.609375 34.8125 
Q 44.34375 29.296875 32.078125 29.296875 
L 19.671875 29.296875 
L 19.671875 0 
L 9.8125 0 
z
" id="DejaVuSans-80"/>
     <path d="M 56.203125 29.59375 
L 56.203125 25.203125 
L 14.890625 25.203125 
Q 15.484375 15.921875 20.484375 11.0625 
Q 25.484375 6.203125 34.421875 6.203125 
Q 39.59375 6.203125 44.453125 7.46875 
Q 49.3125 8.734375 54.109375 11.28125 
L 54.109375 2.78125 
Q 49.265625 0.734375 44.1875 -0.34375 
Q 39.109375 -1.421875 33.890625 -1.421875 
Q 20.796875 -1.421875 13.15625 6.1875 
Q 5.515625 13.8125 5.515625 26.8125 
Q 5.515625 40.234375 12.765625 48.109375 
Q 20.015625 56 32.328125 56 
Q 43.359375 56 49.78125 48.890625 
Q 56.203125 41.796875 56.203125 29.59375 
z
M 47.21875 32.234375 
Q 47.125 39.59375 43.09375 43.984375 
Q 39.0625 48.390625 32.421875 48.390625 
Q 24.90625 48.390625 20.390625 44.140625 
Q 15.875 39.890625 15.1875 32.171875 
z
" id="DejaVuSans-101"/>
     <path d="M 41.109375 46.296875 
Q 39.59375 47.171875 37.8125 47.578125 
Q 36.03125 48 33.890625 48 
Q 26.265625 48 22.1875 43.046875 
Q 18.109375 38.09375 18.109375 28.8125 
L 18.109375 0 
L 9.078125 0 
L 9.078125 54.6875 
L 18.109375 54.6875 
L 18.109375 46.1875 
Q 20.953125 51.171875 25.484375 53.578125 
Q 30.03125 56 36.53125 56 
Q 37.453125 56 38.578125 55.875 
Q 39.703125 55.765625 41.0625 55.515625 
z
" id="DejaVuSans-114"/>
     <path d="M 48.78125 52.59375 
L 48.78125 44.1875 
Q 44.96875 46.296875 41.140625 47.34375 
Q 37.3125 48.390625 33.40625 48.390625 
Q 24.65625 48.390625 19.8125 42.84375 
Q 14.984375 37.3125 14.984375 27.296875 
Q 14.984375 17.28125 19.8125 11.734375 
Q 24.65625 6.203125 33.40625 6.203125 
Q 37.3125 6.203125 41.140625 7.25 
Q 44.96875 8.296875 48.78125 10.40625 
L 48.78125 2.09375 
Q 45.015625 0.34375 40.984375 -0.53125 
Q 36.96875 -1.421875 32.421875 -1.421875 
Q 20.0625 -1.421875 12.78125 6.34375 
Q 5.515625 14.109375 5.515625 27.296875 
Q 5.515625 40.671875 12.859375 48.328125 
Q 20.21875 56 33.015625 56 
Q 37.15625 56 41.109375 55.140625 
Q 45.0625 54.296875 48.78125 52.59375 
z
" id="DejaVuSans-99"/>
     <path d="M 54.890625 33.015625 
L 54.890625 0 
L 45.90625 0 
L 45.90625 32.71875 
Q 45.90625 40.484375 42.875 44.328125 
Q 39.84375 48.1875 33.796875 48.1875 
Q 26.515625 48.1875 22.3125 43.546875 
Q 18.109375 38.921875 18.109375 30.90625 
L 18.109375 0 
L 9.078125 0 
L 9.078125 54.6875 
L 18.109375 54.6875 
L 18.109375 46.1875 
Q 21.34375 51.125 25.703125 53.5625 
Q 30.078125 56 35.796875 56 
Q 45.21875 56 50.046875 50.171875 
Q 54.890625 44.34375 54.890625 33.015625 
z
" id="DejaVuSans-110"/>
     <path d="M 18.3125 70.21875 
L 18.3125 54.6875 
L 36.8125 54.6875 
L 36.8125 47.703125 
L 18.3125 47.703125 
L 18.3125 18.015625 
Q 18.3125 11.328125 20.140625 9.421875 
Q 21.96875 7.515625 27.59375 7.515625 
L 36.8125 7.515625 
L 36.8125 0 
L 27.59375 0 
Q 17.1875 0 13.234375 3.875 
Q 9.28125 7.765625 9.28125 18.015625 
L 9.28125 47.703125 
L 2.6875 47.703125 
L 2.6875 54.6875 
L 9.28125 54.6875 
L 9.28125 70.21875 
z
" id="DejaVuSans-116"/>
     <path id="DejaVuSans-32"/>
     <path d="M 39.40625 66.21875 
Q 28.65625 66.21875 22.328125 58.203125 
Q 16.015625 50.203125 16.015625 36.375 
Q 16.015625 22.609375 22.328125 14.59375 
Q 28.65625 6.59375 39.40625 6.59375 
Q 50.140625 6.59375 56.421875 14.59375 
Q 62.703125 22.609375 62.703125 36.375 
Q 62.703125 50.203125 56.421875 58.203125 
Q 50.140625 66.21875 39.40625 66.21875 
z
M 53.21875 1.3125 
L 66.21875 -12.890625 
L 54.296875 -12.890625 
L 43.5 -1.21875 
Q 41.890625 -1.3125 41.03125 -1.359375 
Q 40.1875 -1.421875 39.40625 -1.421875 
Q 24.03125 -1.421875 14.8125 8.859375 
Q 5.609375 19.140625 5.609375 36.375 
Q 5.609375 53.65625 14.8125 63.9375 
Q 24.03125 74.21875 39.40625 74.21875 
Q 54.734375 74.21875 63.90625 63.9375 
Q 73.09375 53.65625 73.09375 36.375 
Q 73.09375 23.6875 67.984375 14.640625 
Q 62.890625 5.609375 53.21875 1.3125 
z
" id="DejaVuSans-81"/>
     <path d="M 9.421875 54.6875 
L 18.40625 54.6875 
L 18.40625 0 
L 9.421875 0 
z
M 9.421875 75.984375 
L 18.40625 75.984375 
L 18.40625 64.59375 
L 9.421875 64.59375 
z
" id="DejaVuSans-105"/>
     <path d="M 2.984375 54.6875 
L 12.5 54.6875 
L 29.59375 8.796875 
L 46.6875 54.6875 
L 56.203125 54.6875 
L 35.6875 0 
L 23.484375 0 
z
" id="DejaVuSans-118"/>
     <path d="M 30.609375 48.390625 
Q 23.390625 48.390625 19.1875 42.75 
Q 14.984375 37.109375 14.984375 27.296875 
Q 14.984375 17.484375 19.15625 11.84375 
Q 23.34375 6.203125 30.609375 6.203125 
Q 37.796875 6.203125 41.984375 11.859375 
Q 46.1875 17.53125 46.1875 27.296875 
Q 46.1875 37.015625 41.984375 42.703125 
Q 37.796875 48.390625 30.609375 48.390625 
z
M 30.609375 56 
Q 42.328125 56 49.015625 48.375 
Q 55.71875 40.765625 55.71875 27.296875 
Q 55.71875 13.875 49.015625 6.21875 
Q 42.328125 -1.421875 30.609375 -1.421875 
Q 18.84375 -1.421875 12.171875 6.21875 
Q 5.515625 13.875 5.515625 27.296875 
Q 5.515625 40.765625 12.171875 48.375 
Q 18.84375 56 30.609375 56 
z
" id="DejaVuSans-111"/>
     <path d="M 9.421875 75.984375 
L 18.40625 75.984375 
L 18.40625 0 
L 9.421875 0 
z
" id="DejaVuSans-108"/>
     <path d="M 8.5 21.578125 
L 8.5 54.6875 
L 17.484375 54.6875 
L 17.484375 21.921875 
Q 17.484375 14.15625 20.5 10.265625 
Q 23.53125 6.390625 29.59375 6.390625 
Q 36.859375 6.390625 41.078125 11.03125 
Q 45.3125 15.671875 45.3125 23.6875 
L 45.3125 54.6875 
L 54.296875 54.6875 
L 54.296875 0 
L 45.3125 0 
L 45.3125 8.40625 
Q 42.046875 3.421875 37.71875 1 
Q 33.40625 -1.421875 27.6875 -1.421875 
Q 18.265625 -1.421875 13.375 4.4375 
Q 8.5 10.296875 8.5 21.578125 
z
M 31.109375 56 
z
" id="DejaVuSans-117"/>
     <path d="M 52 44.1875 
Q 55.375 50.25 60.0625 53.125 
Q 64.75 56 71.09375 56 
Q 79.640625 56 84.28125 50.015625 
Q 88.921875 44.046875 88.921875 33.015625 
L 88.921875 0 
L 79.890625 0 
L 79.890625 32.71875 
Q 79.890625 40.578125 77.09375 44.375 
Q 74.3125 48.1875 68.609375 48.1875 
Q 61.625 48.1875 57.5625 43.546875 
Q 53.515625 38.921875 53.515625 30.90625 
L 53.515625 0 
L 44.484375 0 
L 44.484375 32.71875 
Q 44.484375 40.625 41.703125 44.40625 
Q 38.921875 48.1875 33.109375 48.1875 
Q 26.21875 48.1875 22.15625 43.53125 
Q 18.109375 38.875 18.109375 30.90625 
L 18.109375 0 
L 9.078125 0 
L 9.078125 54.6875 
L 18.109375 54.6875 
L 18.109375 46.1875 
Q 21.1875 51.21875 25.484375 53.609375 
Q 29.78125 56 35.6875 56 
Q 41.65625 56 45.828125 52.96875 
Q 50 49.953125 52 44.1875 
z
" id="DejaVuSans-109"/>
     <path d="M 54.890625 33.015625 
L 54.890625 0 
L 45.90625 0 
L 45.90625 32.71875 
Q 45.90625 40.484375 42.875 44.328125 
Q 39.84375 48.1875 33.796875 48.1875 
Q 26.515625 48.1875 22.3125 43.546875 
Q 18.109375 38.921875 18.109375 30.90625 
L 18.109375 0 
L 9.078125 0 
L 9.078125 75.984375 
L 18.109375 75.984375 
L 18.109375 46.1875 
Q 21.34375 51.125 25.703125 53.5625 
Q 30.078125 56 35.796875 56 
Q 45.21875 56 50.046875 50.171875 
Q 54.890625 44.34375 54.890625 33.015625 
z
" id="DejaVuSans-104"/>
     <path d="M 34.28125 27.484375 
Q 23.390625 27.484375 19.1875 25 
Q 14.984375 22.515625 14.984375 16.5 
Q 14.984375 11.71875 18.140625 8.90625 
Q 21.296875 6.109375 26.703125 6.109375 
Q 34.1875 6.109375 38.703125 11.40625 
Q 43.21875 16.703125 43.21875 25.484375 
L 43.21875 27.484375 
z
M 52.203125 31.203125 
L 52.203125 0 
L 43.21875 0 
L 43.21875 8.296875 
Q 40.140625 3.328125 35.546875 0.953125 
Q 30.953125 -1.421875 24.3125 -1.421875 
Q 15.921875 -1.421875 10.953125 3.296875 
Q 6 8.015625 6 15.921875 
Q 6 25.140625 12.171875 29.828125 
Q 18.359375 34.515625 30.609375 34.515625 
L 43.21875 34.515625 
L 43.21875 35.40625 
Q 43.21875 41.609375 39.140625 45 
Q 35.0625 48.390625 27.6875 48.390625 
Q 23 48.390625 18.546875 47.265625 
Q 14.109375 46.140625 10.015625 43.890625 
L 10.015625 52.203125 
Q 14.9375 54.109375 19.578125 55.046875 
Q 24.21875 56 28.609375 56 
Q 40.484375 56 46.34375 49.84375 
Q 52.203125 43.703125 52.203125 31.203125 
z
" id="DejaVuSans-97"/>
     <path d="M 45.40625 27.984375 
Q 45.40625 37.75 41.375 43.109375 
Q 37.359375 48.484375 30.078125 48.484375 
Q 22.859375 48.484375 18.828125 43.109375 
Q 14.796875 37.75 14.796875 27.984375 
Q 14.796875 18.265625 18.828125 12.890625 
Q 22.859375 7.515625 30.078125 7.515625 
Q 37.359375 7.515625 41.375 12.890625 
Q 45.40625 18.265625 45.40625 27.984375 
z
M 54.390625 6.78125 
Q 54.390625 -7.171875 48.1875 -13.984375 
Q 42 -20.796875 29.203125 -20.796875 
Q 24.46875 -20.796875 20.265625 -20.09375 
Q 16.0625 -19.390625 12.109375 -17.921875 
L 12.109375 -9.1875 
Q 16.0625 -11.328125 19.921875 -12.34375 
Q 23.78125 -13.375 27.78125 -13.375 
Q 36.625 -13.375 41.015625 -8.765625 
Q 45.40625 -4.15625 45.40625 5.171875 
L 45.40625 9.625 
Q 42.625 4.78125 38.28125 2.390625 
Q 33.9375 0 27.875 0 
Q 17.828125 0 11.671875 7.65625 
Q 5.515625 15.328125 5.515625 27.984375 
Q 5.515625 40.671875 11.671875 48.328125 
Q 17.828125 56 27.875 56 
Q 33.9375 56 38.28125 53.609375 
Q 42.625 51.21875 45.40625 46.390625 
L 45.40625 54.6875 
L 54.390625 54.6875 
z
" id="DejaVuSans-103"/>
    </defs>
    <g transform="translate(119.564375 16.318125)scale(0.12 -0.12)">
     <use xlink:href="#DejaVuSans-80"/>
     <use x="60.255859" xlink:href="#DejaVuSans-101"/>
     <use x="121.779297" xlink:href="#DejaVuSans-114"/>
     <use x="162.861328" xlink:href="#DejaVuSans-99"/>
     <use x="217.841797" xlink:href="#DejaVuSans-101"/>
     <use x="279.365234" xlink:href="#DejaVuSans-110"/>
     <use x="342.744141" xlink:href="#DejaVuSans-116"/>
     <use x="381.953125" xlink:href="#DejaVuSans-32"/>
     <use x="413.740234" xlink:href="#DejaVuSans-81"/>
     <use x="492.451172" xlink:href="#DejaVuSans-105"/>
     <use x="520.234375" xlink:href="#DejaVuSans-110"/>
     <use x="583.613281" xlink:href="#DejaVuSans-32"/>
     <use x="615.400391" xlink:href="#DejaVuSans-118"/>
     <use x="674.580078" xlink:href="#DejaVuSans-111"/>
     <use x="735.761719" xlink:href="#DejaVuSans-108"/>
     <use x="763.544922" xlink:href="#DejaVuSans-117"/>
     <use x="826.923828" xlink:href="#DejaVuSans-109"/>
     <use x="924.335938" xlink:href="#DejaVuSans-101"/>
     <use x="985.859375" xlink:href="#DejaVuSans-32"/>
     <use x="1017.646484" xlink:href="#DejaVuSans-99"/>
     <use x="1072.626953" xlink:href="#DejaVuSans-104"/>
     <use x="1136.005859" xlink:href="#DejaVuSans-97"/>
     <use x="1197.285156" xlink:href="#DejaVuSans-110"/>
     <use x="1260.664062" xlink:href="#DejaVuSans-103"/>
     <use x="1324.140625" xlink:href="#DejaVuSans-101"/>
    </g>
   </g>
   <g id="legend_1">
    <g id="patch_7">
     <path d="M 293.467188 234.758125 
L 363.104688 234.758125 
Q 365.104688 234.758125 365.104688 232.758125 
L 365.104688 203.845625 
Q 365.104688 201.845625 363.104688 201.845625 
L 293.467188 201.845625 
Q 291.467188 201.845625 291.467188 203.845625 
L 291.467188 232.758125 
Q 291.467188 234.758125 293.467188 234.758125 
z
" style="fill:#ffffff;opacity:0.8;stroke:#cccccc;stroke-linejoin:miter;"/>
    </g>
    <g id="line2d_17">
     <path d="M 295.467188 209.944063 
L 315.467188 209.944063 
" style="fill:none;stroke:#1f77b4;stroke-linecap:square;stroke-width:1.5;"/>
    </g>
    <g id="line2d_18"/>
    <g id="text_16">
     <!-- Vadd_C -->
     <defs>
      <path d="M 28.609375 0 
L 0.78125 72.90625 
L 11.078125 72.90625 
L 34.1875 11.53125 
L 57.328125 72.90625 
L 67.578125 72.90625 
L 39.796875 0 
z
" id="DejaVuSans-86"/>
      <path d="M 45.40625 46.390625 
L 45.40625 75.984375 
L 54.390625 75.984375 
L 54.390625 0 
L 45.40625 0 
L 45.40625 8.203125 
Q 42.578125 3.328125 38.25 0.953125 
Q 33.9375 -1.421875 27.875 -1.421875 
Q 17.96875 -1.421875 11.734375 6.484375 
Q 5.515625 14.40625 5.515625 27.296875 
Q 5.515625 40.1875 11.734375 48.09375 
Q 17.96875 56 27.875 56 
Q 33.9375 56 38.25 53.625 
Q 42.578125 51.265625 45.40625 46.390625 
z
M 14.796875 27.296875 
Q 14.796875 17.390625 18.875 11.75 
Q 22.953125 6.109375 30.078125 6.109375 
Q 37.203125 6.109375 41.296875 11.75 
Q 45.40625 17.390625 45.40625 27.296875 
Q 45.40625 37.203125 41.296875 42.84375 
Q 37.203125 48.484375 30.078125 48.484375 
Q 22.953125 48.484375 18.875 42.84375 
Q 14.796875 37.203125 14.796875 27.296875 
z
" id="DejaVuSans-100"/>
      <path d="M 50.984375 -16.609375 
L 50.984375 -23.578125 
L -0.984375 -23.578125 
L -0.984375 -16.609375 
z
" id="DejaVuSans-95"/>
      <path d="M 64.40625 67.28125 
L 64.40625 56.890625 
Q 59.421875 61.53125 53.78125 63.8125 
Q 48.140625 66.109375 41.796875 66.109375 
Q 29.296875 66.109375 22.65625 58.46875 
Q 16.015625 50.828125 16.015625 36.375 
Q 16.015625 21.96875 22.65625 14.328125 
Q 29.296875 6.6875 41.796875 6.6875 
Q 48.140625 6.6875 53.78125 8.984375 
Q 59.421875 11.28125 64.40625 15.921875 
L 64.40625 5.609375 
Q 59.234375 2.09375 53.4375 0.328125 
Q 47.65625 -1.421875 41.21875 -1.421875 
Q 24.65625 -1.421875 15.125 8.703125 
Q 5.609375 18.84375 5.609375 36.375 
Q 5.609375 53.953125 15.125 64.078125 
Q 24.65625 74.21875 41.21875 74.21875 
Q 47.75 74.21875 53.53125 72.484375 
Q 59.328125 70.75 64.40625 67.28125 
z
" id="DejaVuSans-67"/>
     </defs>
     <g transform="translate(323.467188 213.444063)scale(0.1 -0.1)">
      <use xlink:href="#DejaVuSans-86"/>
      <use x="68.298828" xlink:href="#DejaVuSans-97"/>
      <use x="129.578125" xlink:href="#DejaVuSans-100"/>
      <use x="193.054688" xlink:href="#DejaVuSans-100"/>
      <use x="256.53125" xlink:href="#DejaVuSans-95"/>
      <use x="306.53125" xlink:href="#DejaVuSans-67"/>
     </g>
    </g>
    <g id="line2d_19">
     <path d="M 295.467188 224.900313 
L 315.467188 224.900313 
" style="fill:none;stroke:#ff7f0e;stroke-linecap:square;stroke-width:1.5;"/>
    </g>
    <g id="line2d_20"/>
    <g id="text_17">
     <!-- Vadd_E -->
     <defs>
      <path d="M 9.8125 72.90625 
L 55.90625 72.90625 
L 55.90625 64.59375 
L 19.671875 64.59375 
L 19.671875 43.015625 
L 54.390625 43.015625 
L 54.390625 34.71875 
L 19.671875 34.71875 
L 19.671875 8.296875 
L 56.78125 8.296875 
L 56.78125 0 
L 9.8125 0 
z
" id="DejaVuSans-69"/>
     </defs>
     <g transform="translate(323.467188 228.400313)scale(0.1 -0.1)">
      <use xlink:href="#DejaVuSans-86"/>
      <use x="68.298828" xlink:href="#DejaVuSans-97"/>
      <use x="129.578125" xlink:href="#DejaVuSans-100"/>
      <use x="193.054688" xlink:href="#DejaVuSans-100"/>
      <use x="256.53125" xlink:href="#DejaVuSans-95"/>
      <use x="306.53125" xlink:href="#DejaVuSans-69"/>
     </g>
    </g>
   </g>
  </g>
 </g>
 <defs>
  <clipPath id="pe8f2570611">
   <rect height="217.44" width="334.8" x="35.304688" y="22.318125"/>
  </clipPath>
 </defs>
</svg>
