<?xml version="1.0" encoding="utf-8" standalone="no"?>
<!DOCTYPE svg PUBLIC "-//W3C//DTD SVG 1.1//EN"
  "http://www.w3.org/Graphics/SVG/1.1/DTD/svg11.dtd">
<!-- Created with matplotlib (https://matplotlib.org/) -->
<svg height="263.63625pt" version="1.1" viewBox="0 0 372.103125 263.63625" width="372.103125pt" xmlns="http://www.w3.org/2000/svg" xmlns:xlink="http://www.w3.org/1999/xlink">
 <defs>
  <style type="text/css">
*{stroke-linecap:butt;stroke-linejoin:round;}
  </style>
 </defs>
 <g id="figure_1">
  <g id="patch_1">
   <path d="M 0 263.63625 
L 372.103125 263.63625 
L 372.103125 0 
L 0 0 
z
" style="fill:#ffffff;"/>
  </g>
  <g id="axes_1">
   <g id="patch_2">
    <path d="M 30.103125 121.154489 
L 364.903125 121.154489 
L 364.903125 22.318125 
L 30.103125 22.318125 
z
" style="fill:#ffffff;"/>
   </g>
   <g id="matplotlib.axis_1">
    <g id="xtick_1">
     <g id="line2d_1">
      <path clip-path="url(#pdd12a0a10d)" d="M 45.109796 121.154489 
L 45.109796 22.318125 
" style="fill:none;stroke:#b0b0b0;stroke-linecap:square;stroke-width:0.8;"/>
     </g>
     <g id="line2d_2">
      <defs>
       <path d="M 0 0 
L 0 3.5 
" id="m1904e8226b" style="stroke:#000000;stroke-width:0.8;"/>
      </defs>
      <g>
       <use style="stroke:#000000;stroke-width:0.8;" x="45.109796" xlink:href="#m1904e8226b" y="121.154489"/>
      </g>
     </g>
     <g id="text_1">
      <!-- 0 -->
      <defs>
       <path d="M 31.78125 66.40625 
Q 24.171875 66.40625 20.328125 58.90625 
Q 16.5 51.421875 16.5 36.375 
Q 16.5 21.390625 20.328125 13.890625 
Q 24.171875 6.390625 31.78125 6.390625 
Q 39.453125 6.390625 43.28125 13.890625 
Q 47.125 21.390625 47.125 36.375 
Q 47.125 51.421875 43.28125 58.90625 
Q 39.453125 66.40625 31.78125 66.40625 
z
M 31.78125 74.21875 
Q 44.046875 74.21875 50.515625 64.515625 
Q 56.984375 54.828125 56.984375 36.375 
Q 56.984375 17.96875 50.515625 8.265625 
Q 44.046875 -1.421875 31.78125 -1.421875 
Q 19.53125 -1.421875 13.0625 8.265625 
Q 6.59375 17.96875 6.59375 36.375 
Q 6.59375 54.828125 13.0625 64.515625 
Q 19.53125 74.21875 31.78125 74.21875 
z
" id="DejaVuSans-48"/>
      </defs>
      <g transform="translate(41.928546 135.752926)scale(0.1 -0.1)">
       <use xlink:href="#DejaVuSans-48"/>
      </g>
     </g>
    </g>
    <g id="xtick_2">
     <g id="line2d_3">
      <path clip-path="url(#pdd12a0a10d)" d="M 115.613303 121.154489 
L 115.613303 22.318125 
" style="fill:none;stroke:#b0b0b0;stroke-linecap:square;stroke-width:0.8;"/>
     </g>
     <g id="line2d_4">
      <g>
       <use style="stroke:#000000;stroke-width:0.8;" x="115.613303" xlink:href="#m1904e8226b" y="121.154489"/>
      </g>
     </g>
     <g id="text_2">
      <!-- 100000 -->
      <defs>
       <path d="M 12.40625 8.296875 
L 28.515625 8.296875 
L 28.515625 63.921875 
L 10.984375 60.40625 
L 10.984375 69.390625 
L 28.421875 72.90625 
L 38.28125 72.90625 
L 38.28125 8.296875 
L 54.390625 8.296875 
L 54.390625 0 
L 12.40625 0 
z
" id="DejaVuSans-49"/>
      </defs>
      <g transform="translate(96.525803 135.752926)scale(0.1 -0.1)">
       <use xlink:href="#DejaVuSans-49"/>
       <use x="63.623047" xlink:href="#DejaVuSans-48"/>
       <use x="127.246094" xlink:href="#DejaVuSans-48"/>
       <use x="190.869141" xlink:href="#DejaVuSans-48"/>
       <use x="254.492188" xlink:href="#DejaVuSans-48"/>
       <use x="318.115234" xlink:href="#DejaVuSans-48"/>
      </g>
     </g>
    </g>
    <g id="xtick_3">
     <g id="line2d_5">
      <path clip-path="url(#pdd12a0a10d)" d="M 186.116809 121.154489 
L 186.116809 22.318125 
" style="fill:none;stroke:#b0b0b0;stroke-linecap:square;stroke-width:0.8;"/>
     </g>
     <g id="line2d_6">
      <g>
       <use style="stroke:#000000;stroke-width:0.8;" x="186.116809" xlink:href="#m1904e8226b" y="121.154489"/>
      </g>
     </g>
     <g id="text_3">
      <!-- 200000 -->
      <defs>
       <path d="M 19.1875 8.296875 
L 53.609375 8.296875 
L 53.609375 0 
L 7.328125 0 
L 7.328125 8.296875 
Q 12.9375 14.109375 22.625 23.890625 
Q 32.328125 33.6875 34.8125 36.53125 
Q 39.546875 41.84375 41.421875 45.53125 
Q 43.3125 49.21875 43.3125 52.78125 
Q 43.3125 58.59375 39.234375 62.25 
Q 35.15625 65.921875 28.609375 65.921875 
Q 23.96875 65.921875 18.8125 64.3125 
Q 13.671875 62.703125 7.8125 59.421875 
L 7.8125 69.390625 
Q 13.765625 71.78125 18.9375 73 
Q 24.125 74.21875 28.421875 74.21875 
Q 39.75 74.21875 46.484375 68.546875 
Q 53.21875 62.890625 53.21875 53.421875 
Q 53.21875 48.921875 51.53125 44.890625 
Q 49.859375 40.875 45.40625 35.40625 
Q 44.1875 33.984375 37.640625 27.21875 
Q 31.109375 20.453125 19.1875 8.296875 
z
" id="DejaVuSans-50"/>
      </defs>
      <g transform="translate(167.029309 135.752926)scale(0.1 -0.1)">
       <use xlink:href="#DejaVuSans-50"/>
       <use x="63.623047" xlink:href="#DejaVuSans-48"/>
       <use x="127.246094" xlink:href="#DejaVuSans-48"/>
       <use x="190.869141" xlink:href="#DejaVuSans-48"/>
       <use x="254.492188" xlink:href="#DejaVuSans-48"/>
       <use x="318.115234" xlink:href="#DejaVuSans-48"/>
      </g>
     </g>
    </g>
    <g id="xtick_4">
     <g id="line2d_7">
      <path clip-path="url(#pdd12a0a10d)" d="M 256.620315 121.154489 
L 256.620315 22.318125 
" style="fill:none;stroke:#b0b0b0;stroke-linecap:square;stroke-width:0.8;"/>
     </g>
     <g id="line2d_8">
      <g>
       <use style="stroke:#000000;stroke-width:0.8;" x="256.620315" xlink:href="#m1904e8226b" y="121.154489"/>
      </g>
     </g>
     <g id="text_4">
      <!-- 300000 -->
      <defs>
       <path d="M 40.578125 39.3125 
Q 47.65625 37.796875 51.625 33 
Q 55.609375 28.21875 55.609375 21.1875 
Q 55.609375 10.40625 48.1875 4.484375 
Q 40.765625 -1.421875 27.09375 -1.421875 
Q 22.515625 -1.421875 17.65625 -0.515625 
Q 12.796875 0.390625 7.625 2.203125 
L 7.625 11.71875 
Q 11.71875 9.328125 16.59375 8.109375 
Q 21.484375 6.890625 26.8125 6.890625 
Q 36.078125 6.890625 40.9375 10.546875 
Q 45.796875 14.203125 45.796875 21.1875 
Q 45.796875 27.640625 41.28125 31.265625 
Q 36.765625 34.90625 28.71875 34.90625 
L 20.21875 34.90625 
L 20.21875 43.015625 
L 29.109375 43.015625 
Q 36.375 43.015625 40.234375 45.921875 
Q 44.09375 48.828125 44.09375 54.296875 
Q 44.09375 59.90625 40.109375 62.90625 
Q 36.140625 65.921875 28.71875 65.921875 
Q 24.65625 65.921875 20.015625 65.03125 
Q 15.375 64.15625 9.8125 62.3125 
L 9.8125 71.09375 
Q 15.4375 72.65625 20.34375 73.4375 
Q 25.25 74.21875 29.59375 74.21875 
Q 40.828125 74.21875 47.359375 69.109375 
Q 53.90625 64.015625 53.90625 55.328125 
Q 53.90625 49.265625 50.4375 45.09375 
Q 46.96875 40.921875 40.578125 39.3125 
z
" id="DejaVuSans-51"/>
      </defs>
      <g transform="translate(237.532815 135.752926)scale(0.1 -0.1)">
       <use xlink:href="#DejaVuSans-51"/>
       <use x="63.623047" xlink:href="#DejaVuSans-48"/>
       <use x="127.246094" xlink:href="#DejaVuSans-48"/>
       <use x="190.869141" xlink:href="#DejaVuSans-48"/>
       <use x="254.492188" xlink:href="#DejaVuSans-48"/>
       <use x="318.115234" xlink:href="#DejaVuSans-48"/>
      </g>
     </g>
    </g>
    <g id="xtick_5">
     <g id="line2d_9">
      <path clip-path="url(#pdd12a0a10d)" d="M 327.123821 121.154489 
L 327.123821 22.318125 
" style="fill:none;stroke:#b0b0b0;stroke-linecap:square;stroke-width:0.8;"/>
     </g>
     <g id="line2d_10">
      <g>
       <use style="stroke:#000000;stroke-width:0.8;" x="327.123821" xlink:href="#m1904e8226b" y="121.154489"/>
      </g>
     </g>
     <g id="text_5">
      <!-- 400000 -->
      <defs>
       <path d="M 37.796875 64.3125 
L 12.890625 25.390625 
L 37.796875 25.390625 
z
M 35.203125 72.90625 
L 47.609375 72.90625 
L 47.609375 25.390625 
L 58.015625 25.390625 
L 58.015625 17.1875 
L 47.609375 17.1875 
L 47.609375 0 
L 37.796875 0 
L 37.796875 17.1875 
L 4.890625 17.1875 
L 4.890625 26.703125 
z
" id="DejaVuSans-52"/>
      </defs>
      <g transform="translate(308.036321 135.752926)scale(0.1 -0.1)">
       <use xlink:href="#DejaVuSans-52"/>
       <use x="63.623047" xlink:href="#DejaVuSans-48"/>
       <use x="127.246094" xlink:href="#DejaVuSans-48"/>
       <use x="190.869141" xlink:href="#DejaVuSans-48"/>
       <use x="254.492188" xlink:href="#DejaVuSans-48"/>
       <use x="318.115234" xlink:href="#DejaVuSans-48"/>
      </g>
     </g>
    </g>
   </g>
   <g id="matplotlib.axis_2">
    <g id="ytick_1">
     <g id="line2d_11">
      <path clip-path="url(#pdd12a0a10d)" d="M 30.103125 92.386474 
L 364.903125 92.386474 
" style="fill:none;stroke:#b0b0b0;stroke-linecap:square;stroke-width:0.8;"/>
     </g>
     <g id="line2d_12">
      <defs>
       <path d="M 0 0 
L -3.5 0 
" id="m52262a020f" style="stroke:#000000;stroke-width:0.8;"/>
      </defs>
      <g>
       <use style="stroke:#000000;stroke-width:0.8;" x="30.103125" xlink:href="#m52262a020f" y="92.386474"/>
      </g>
     </g>
     <g id="text_6">
      <!-- 0.0 -->
      <defs>
       <path d="M 10.6875 12.40625 
L 21 12.40625 
L 21 0 
L 10.6875 0 
z
" id="DejaVuSans-46"/>
      </defs>
      <g transform="translate(7.2 96.185693)scale(0.1 -0.1)">
       <use xlink:href="#DejaVuSans-48"/>
       <use x="63.623047" xlink:href="#DejaVuSans-46"/>
       <use x="95.410156" xlink:href="#DejaVuSans-48"/>
      </g>
     </g>
    </g>
    <g id="ytick_2">
     <g id="line2d_13">
      <path clip-path="url(#pdd12a0a10d)" d="M 30.103125 63.305897 
L 364.903125 63.305897 
" style="fill:none;stroke:#b0b0b0;stroke-linecap:square;stroke-width:0.8;"/>
     </g>
     <g id="line2d_14">
      <g>
       <use style="stroke:#000000;stroke-width:0.8;" x="30.103125" xlink:href="#m52262a020f" y="63.305897"/>
      </g>
     </g>
     <g id="text_7">
      <!-- 0.1 -->
      <g transform="translate(7.2 67.105116)scale(0.1 -0.1)">
       <use xlink:href="#DejaVuSans-48"/>
       <use x="63.623047" xlink:href="#DejaVuSans-46"/>
       <use x="95.410156" xlink:href="#DejaVuSans-49"/>
      </g>
     </g>
    </g>
    <g id="ytick_3">
     <g id="line2d_15">
      <path clip-path="url(#pdd12a0a10d)" d="M 30.103125 34.225321 
L 364.903125 34.225321 
" style="fill:none;stroke:#b0b0b0;stroke-linecap:square;stroke-width:0.8;"/>
     </g>
     <g id="line2d_16">
      <g>
       <use style="stroke:#000000;stroke-width:0.8;" x="30.103125" xlink:href="#m52262a020f" y="34.225321"/>
      </g>
     </g>
     <g id="text_8">
      <!-- 0.2 -->
      <g transform="translate(7.2 38.024539)scale(0.1 -0.1)">
       <use xlink:href="#DejaVuSans-48"/>
       <use x="63.623047" xlink:href="#DejaVuSans-46"/>
       <use x="95.410156" xlink:href="#DejaVuSans-50"/>
      </g>
     </g>
    </g>
   </g>
   <g id="line2d_17">
    <path clip-path="url(#pdd12a0a10d)" d="M 45.321307 107.801852 
L 45.532817 110.312756 
L 45.955838 93.571107 
L 46.167349 89.661611 
L 46.378859 88.054129 
L 46.59037 87.557624 
L 46.80188 87.652873 
L 47.013391 84.436439 
L 47.224901 84.390439 
L 47.436412 84.02677 
L 47.647923 85.908046 
L 47.859433 86.491499 
L 48.493965 94.241098 
L 48.705475 94.568946 
L 49.551517 101.827421 
L 50.186049 104.101257 
L 50.397559 102.83811 
L 50.82058 103.648907 
L 51.032091 103.599157 
L 51.243601 103.979736 
L 51.666622 103.969465 
L 51.878133 103.628029 
L 52.089643 103.706437 
L 52.301154 103.454516 
L 52.512664 102.899128 
L 52.724175 102.756958 
L 53.358707 101.62061 
L 53.570217 101.350447 
L 54.204749 99.908641 
L 54.416259 99.533744 
L 54.62777 98.907 
L 54.83928 97.115741 
L 57.165896 91.822722 
L 58.011938 89.427644 
L 58.434959 88.182877 
L 58.646469 89.349296 
L 58.85798 86.699496 
L 59.069491 87.937702 
L 59.281001 85.243531 
L 59.915533 88.767633 
L 60.550064 91.391013 
L 60.761575 94.500985 
L 60.973085 95.052785 
L 61.184596 97.444687 
L 61.396106 97.841736 
L 62.030638 100.76357 
L 62.242148 101.537452 
L 62.453659 101.6369 
L 62.87668 102.914932 
L 63.08819 102.971065 
L 63.511211 103.979552 
L 63.722722 104.005083 
L 64.145743 104.715158 
L 64.568764 104.721674 
L 65.203296 105.44132 
L 65.414806 105.421005 
L 65.626317 105.574156 
L 65.837827 105.546727 
L 66.049338 105.671411 
L 66.260848 105.637203 
L 66.472359 105.735446 
L 66.683869 105.694716 
L 67.10689 105.772922 
L 67.529911 105.763733 
L 67.952932 105.727329 
L 68.375953 105.605116 
L 70.491059 104.856244 
L 71.337101 104.405211 
L 73.029185 103.585465 
L 73.875227 103.140205 
L 77.259395 101.753939 
L 78.951479 101.288841 
L 81.489606 101.109843 
L 81.912627 101.12978 
L 82.124137 94.118734 
L 82.758669 94.952311 
L 82.970179 77.805666 
L 83.18169 78.906835 
L 83.3932 71.979792 
L 83.604711 73.437348 
L 83.816221 65.045029 
L 84.027732 61.286698 
L 84.239242 63.528001 
L 84.662263 54.207515 
L 85.085284 50.181383 
L 85.296795 53.520435 
L 85.508305 45.947321 
L 86.777368 36.252073 
L 87.623411 31.63241 
L 87.834921 31.276941 
L 88.257942 29.488084 
L 88.469453 29.344236 
L 88.892474 27.733131 
L 89.103984 27.788723 
L 89.315495 27.229447 
L 89.527005 27.39663 
L 89.738516 26.953856 
L 89.950026 27.260019 
L 90.161537 26.810687 
L 90.584558 27.635278 
L 90.796068 27.400054 
L 91.219089 28.550777 
L 91.4306 28.439069 
L 93.545705 35.356542 
L 94.814768 40.599872 
L 95.026279 40.861537 
L 95.66081 43.397418 
L 95.872321 43.416369 
L 96.083831 43.278781 
L 96.295342 43.405417 
L 96.506852 42.681879 
L 96.929873 34.569729 
L 97.775915 44.389531 
L 98.198936 48.215005 
L 99.256489 58.021982 
L 99.67951 61.257852 
L 100.525552 67.638033 
L 100.948573 70.355077 
L 101.583105 74.145288 
L 102.429147 78.571662 
L 103.063678 81.605508 
L 103.69821 84.271482 
L 105.390294 89.068526 
L 106.447847 91.231459 
L 106.659357 91.367002 
L 107.505399 92.558912 
L 107.71691 92.650523 
L 108.139931 93.159576 
L 108.351441 93.225697 
L 108.562952 93.453024 
L 108.774462 93.109919 
L 108.985973 93.171387 
L 109.197483 93.382185 
L 110.466547 93.610087 
L 110.678057 94.68629 
L 110.889568 93.517252 
L 111.101078 93.539012 
L 111.312589 94.594505 
L 111.524099 93.43247 
L 112.158631 96.07415 
L 112.793162 97.767306 
L 113.216183 98.643443 
L 113.427694 99.799555 
L 113.639204 100.116632 
L 114.485246 102.17376 
L 114.696757 102.402106 
L 115.75431 104.186401 
L 119.349988 108.57581 
L 120.407541 109.740309 
L 124.00322 113.10294 
L 125.272283 113.907143 
L 126.329835 114.355826 
L 127.175878 114.588836 
L 127.598899 113.410037 
L 127.810409 113.251474 
L 128.656451 112.140001 
L 129.079472 111.783636 
L 136.48234 103.586577 
L 136.693851 103.393495 
L 137.116872 102.908215 
L 139.443488 100.970982 
L 139.654998 100.937649 
L 139.866509 100.743271 
L 140.078019 100.716828 
L 140.28953 100.501009 
L 140.50104 100.481729 
L 140.712551 100.214648 
L 140.924061 100.202756 
L 141.135572 99.991538 
L 141.770103 99.989469 
L 141.981614 99.531509 
L 143.250677 99.654079 
L 143.462187 89.301056 
L 143.885209 90.162032 
L 144.096719 79.62509 
L 144.30823 80.534051 
L 144.51974 74.689506 
L 144.731251 75.889222 
L 145.154272 66.778786 
L 145.365782 68.520589 
L 145.577293 62.514411 
L 146.000314 59.006183 
L 146.211824 61.429027 
L 146.423335 55.297387 
L 147.480887 48.531614 
L 147.903908 46.247428 
L 148.115419 45.910018 
L 148.74995 43.188612 
L 148.961461 43.063104 
L 149.172971 42.327988 
L 149.384482 42.302551 
L 149.595993 41.673974 
L 149.807503 41.822274 
L 150.019014 41.264283 
L 150.230524 41.502728 
L 150.442035 41.075351 
L 150.865056 41.75502 
L 151.076566 41.455784 
L 152.134119 44.063916 
L 153.403182 48.189256 
L 153.826203 50.427949 
L 154.037713 51.198668 
L 154.883755 55.475855 
L 155.095266 56.313615 
L 155.729798 60.12401 
L 155.941308 60.92421 
L 156.57584 64.575722 
L 156.78735 65.400486 
L 158.056413 73.307133 
L 158.902455 77.797429 
L 159.113966 78.343552 
L 160.171518 82.712444 
L 161.440582 87.430637 
L 162.286624 89.72144 
L 162.921155 91.446779 
L 163.132666 91.652264 
L 163.978708 93.399644 
L 164.190218 93.54095 
L 164.613239 94.331769 
L 164.82475 94.423901 
L 165.247771 95.051798 
L 165.882302 95.204591 
L 166.093813 95.43486 
L 166.305323 95.460178 
L 166.516834 95.692876 
L 167.997408 95.614008 
L 168.420429 95.475425 
L 168.631939 95.262213 
L 168.84345 95.275417 
L 169.05496 94.983897 
L 169.266471 95.003135 
L 169.689492 94.452284 
L 169.901002 94.366004 
L 170.324023 93.870454 
L 170.958555 92.481918 
L 171.381576 91.006309 
L 171.593086 94.151622 
L 171.804597 87.409271 
L 172.227618 87.691097 
L 172.439129 96.024142 
L 172.86215 98.229773 
L 173.919702 101.853742 
L 174.131213 102.266171 
L 174.342723 103.035502 
L 174.554234 103.377556 
L 174.765744 103.402285 
L 175.400276 104.550022 
L 175.823297 105.309931 
L 176.034807 105.479503 
L 176.669339 106.499406 
L 176.880849 106.66953 
L 177.515381 107.526399 
L 181.745591 112.407609 
L 184.072207 114.397642 
L 184.706739 114.750243 
L 185.552781 115.210475 
L 186.398823 115.449896 
L 187.456375 115.545544 
L 188.302417 115.405527 
L 188.725438 114.487683 
L 189.35997 113.75219 
L 189.571481 113.667111 
L 190.629033 112.489808 
L 190.840544 112.381433 
L 191.475075 111.562848 
L 192.321117 110.620938 
L 192.744138 110.035919 
L 193.59018 109.048726 
L 198.454922 102.990781 
L 200.358517 101.001172 
L 200.570028 100.967687 
L 200.781538 100.714639 
L 200.993049 100.687993 
L 201.204559 100.384193 
L 201.41607 100.364696 
L 201.62758 100.043871 
L 201.839091 100.031868 
L 202.050601 99.611439 
L 202.896643 99.617478 
L 203.108154 99.107127 
L 204.165706 99.22435 
L 204.377217 90.430478 
L 204.800238 91.175747 
L 205.011748 79.48793 
L 205.223259 80.397029 
L 205.434769 74.616058 
L 205.64628 75.813784 
L 206.069301 66.849233 
L 206.280812 68.586101 
L 206.492322 62.680152 
L 206.915343 59.240849 
L 207.126854 61.656986 
L 207.338364 55.59729 
L 208.395917 48.968545 
L 208.818938 46.759076 
L 209.030448 46.398848 
L 209.66498 43.753903 
L 209.87649 43.640576 
L 210.088001 42.929826 
L 210.299511 42.930915 
L 210.722532 41.792055 
L 211.145553 42.213108 
L 211.357064 41.800557 
L 211.780085 42.507918 
L 211.991596 42.224062 
L 212.837638 44.305042 
L 213.89519 47.567741 
L 214.318211 49.062439 
L 215.164253 53.288106 
L 215.375764 54.102595 
L 215.798785 56.365511 
L 216.010295 57.207746 
L 216.644827 61.007517 
L 216.856337 61.820504 
L 217.490869 65.49043 
L 217.70238 66.305548 
L 218.971443 74.445722 
L 219.182953 75.041741 
L 220.452016 81.178367 
L 221.298058 84.760801 
L 221.93259 87.36744 
L 222.1441 87.727907 
L 222.778632 89.934941 
L 222.990142 90.240503 
L 223.836185 92.562531 
L 224.470716 94.143784 
L 224.682227 94.285595 
L 224.893737 94.713484 
L 225.105248 94.850444 
L 225.316758 95.245787 
L 225.528269 95.360985 
L 225.95129 96.109875 
L 226.1628 96.165799 
L 226.585821 96.713821 
L 226.797332 96.783676 
L 227.008842 97.013996 
L 227.643374 97.033393 
L 227.854884 97.251265 
L 229.335458 97.053557 
L 229.546969 96.81385 
L 229.758479 96.760682 
L 230.393011 96.255927 
L 230.604521 96.179533 
L 232.296605 94.134693 
L 232.508116 93.60884 
L 232.719626 93.512648 
L 232.931137 96.76721 
L 233.142647 92.66879 
L 233.354158 96.645145 
L 233.565668 91.362477 
L 233.777179 97.081947 
L 234.2002 99.769745 
L 234.411711 100.682776 
L 234.623221 102.450396 
L 235.046242 103.479567 
L 235.257753 104.642079 
L 235.680774 105.168911 
L 238.641921 109.509035 
L 239.064942 109.910643 
L 239.699473 110.651239 
L 242.660621 113.719329 
L 245.198747 115.665924 
L 246.2563 116.090925 
L 247.102342 116.241094 
L 247.313852 116.124452 
L 248.159894 116.093472 
L 249.005936 115.841639 
L 249.217447 115.724577 
L 249.640468 115.098358 
L 250.063489 114.674891 
L 250.274999 114.616152 
L 250.909531 113.8944 
L 251.332552 113.479474 
L 251.544063 113.170458 
L 251.755573 113.06092 
L 252.390105 112.223669 
L 253.447657 111.04507 
L 253.870678 110.410422 
L 260.004483 102.4784 
L 261.273546 101.015217 
L 261.485057 100.981724 
L 261.696567 100.703246 
L 261.908078 100.676553 
L 262.119588 100.333127 
L 262.331099 100.31359 
L 262.542609 99.969323 
L 262.75412 99.957313 
L 262.965631 99.399861 
L 263.811673 99.407046 
L 264.023183 98.915606 
L 265.080736 99.035374 
L 265.292246 90.232711 
L 265.715267 90.97882 
L 265.926778 79.428447 
L 266.138288 80.336543 
L 266.349799 74.580463 
L 266.561309 75.776907 
L 266.98433 66.873159 
L 267.195841 68.608181 
L 267.407351 62.745224 
L 267.830372 59.33518 
L 268.041883 61.74928 
L 268.253393 55.719577 
L 269.310946 49.150283 
L 269.733967 46.975135 
L 269.945478 46.603108 
L 270.580009 43.99266 
L 270.79152 43.885859 
L 271.00303 43.185773 
L 271.214541 43.198848 
L 271.637562 42.074113 
L 272.060583 42.509961 
L 272.272093 42.106496 
L 272.695114 42.8284 
L 272.906625 42.553299 
L 273.752667 44.658634 
L 274.81022 47.953135 
L 275.02173 48.690733 
L 275.444751 50.648668 
L 278.828919 68.153732 
L 279.886472 74.68177 
L 280.097983 75.310554 
L 281.367046 81.549292 
L 282.213088 85.224569 
L 282.636109 87.039731 
L 282.847619 87.436472 
L 283.693661 90.536106 
L 284.328193 92.405837 
L 284.751214 93.587921 
L 284.962724 93.797049 
L 285.385746 94.848249 
L 285.597256 94.999338 
L 286.020277 95.908879 
L 286.231788 96.025989 
L 286.443298 96.402971 
L 286.654809 96.521924 
L 287.07783 97.138495 
L 288.135382 97.850074 
L 288.346893 97.865653 
L 288.558403 98.063452 
L 289.192935 98.079321 
L 290.038977 97.974939 
L 290.250487 97.74431 
L 290.673508 97.660066 
L 290.885019 97.428543 
L 291.30804 97.351032 
L 291.942572 96.620698 
L 292.154082 96.546127 
L 292.788614 95.768777 
L 293.211635 95.00957 
L 293.634656 94.32261 
L 293.846166 98.177298 
L 294.057677 93.252216 
L 294.269187 98.50285 
L 294.692208 101.236912 
L 295.32674 103.570962 
L 295.749761 104.682511 
L 295.961271 105.711529 
L 296.595803 106.640769 
L 298.499398 109.449618 
L 298.710908 109.597022 
L 299.34544 110.326745 
L 300.191482 111.184182 
L 301.037524 112.192605 
L 301.460545 112.552999 
L 302.941119 114.016832 
L 303.57565 114.551308 
L 303.998671 114.951493 
L 304.633203 115.362559 
L 305.056224 115.759071 
L 306.959818 116.566474 
L 308.017371 116.660801 
L 308.440392 116.510596 
L 309.286434 116.333673 
L 309.920966 116.023208 
L 310.132476 115.893961 
L 310.767008 115.221121 
L 312.670602 113.393307 
L 313.305134 112.542453 
L 314.362687 111.296899 
L 314.997218 110.403731 
L 316.477792 108.383672 
L 316.689302 107.991991 
L 316.900813 107.859805 
L 318.381386 105.693732 
L 321.554044 101.854123 
L 322.611597 100.698993 
L 322.823107 100.6723 
L 323.034618 100.311346 
L 323.246128 100.291808 
L 323.457639 99.937168 
L 323.669149 99.925169 
L 323.88066 99.306642 
L 324.726702 99.314411 
L 324.938212 98.831581 
L 325.995765 98.952484 
L 326.207276 90.14458 
L 326.630297 90.891222 
L 326.841807 79.40043 
L 327.053318 80.308273 
L 327.264828 74.562354 
L 327.476339 75.758488 
L 327.89936 66.88025 
L 328.11087 68.614844 
L 328.322381 62.769945 
L 328.745402 59.372308 
L 328.956912 61.786066 
L 329.168423 55.768577 
L 330.225975 49.224629 
L 330.648997 47.064457 
L 330.860507 46.687056 
L 331.495039 44.091699 
L 331.706549 43.987821 
L 331.91806 43.292461 
L 332.12957 43.310986 
L 332.552591 42.192576 
L 332.975612 42.635399 
L 333.187123 42.236103 
L 333.610144 42.966092 
L 333.821654 42.694841 
L 334.667696 44.812262 
L 335.725249 48.123833 
L 335.936759 48.863927 
L 336.359781 50.820593 
L 336.782802 52.708869 
L 337.628844 56.975447 
L 337.840354 57.820845 
L 338.474886 61.615673 
L 338.686396 62.441265 
L 339.320928 66.09894 
L 342.493586 82.831914 
L 342.916607 84.590316 
L 343.762649 88.203241 
L 343.974159 88.593747 
L 345.031712 92.078969 
L 345.454733 93.383948 
L 345.666243 93.616301 
L 346.089264 94.735882 
L 346.300775 94.924929 
L 346.723796 95.906871 
L 346.935306 96.055622 
L 347.569838 97.207794 
L 348.838901 98.37345 
L 349.684943 98.441374 
L 349.684943 98.441374 
" style="fill:none;stroke:#1f77b4;stroke-linecap:square;stroke-width:1.5;"/>
   </g>
   <g id="line2d_18">
    <path clip-path="url(#pdd12a0a10d)" d="M 45.321307 105.666558 
L 45.744328 97.389373 
L 46.167349 94.981941 
L 46.59037 94.390646 
L 46.80188 94.326158 
L 47.013391 93.6856 
L 47.436412 93.471681 
L 47.647923 93.752691 
L 47.859433 93.790083 
L 48.493965 95.304347 
L 48.705475 95.331214 
L 49.763028 97.401225 
L 50.186049 97.8562 
L 50.397559 97.418858 
L 50.82058 97.669445 
L 51.032091 97.628922 
L 51.243601 97.761585 
L 51.666622 97.711063 
L 51.878133 97.529874 
L 52.089643 97.534386 
L 52.301154 97.379843 
L 52.724175 96.946528 
L 54.416259 94.536824 
L 54.62777 94.051688 
L 54.83928 92.794056 
L 56.742875 88.814175 
L 57.377406 87.063432 
L 57.800427 86.030423 
L 58.434959 84.274119 
L 58.646469 85.133807 
L 58.85798 82.953599 
L 59.069491 83.889017 
L 59.281001 81.674023 
L 60.127043 85.193245 
L 60.550064 86.542867 
L 60.761575 89.053368 
L 60.973085 89.504641 
L 61.184596 91.428937 
L 61.396106 91.751826 
L 62.030638 94.098089 
L 62.242148 94.712326 
L 62.453659 94.800856 
L 62.87668 95.798782 
L 63.08819 95.848896 
L 63.511211 96.617095 
L 63.722722 96.640103 
L 64.145743 97.176998 
L 64.568764 97.186055 
L 65.203296 97.717924 
L 65.414806 97.704718 
L 65.626317 97.81977 
L 66.260848 97.876369 
L 66.89538 97.98773 
L 67.952932 98.011066 
L 68.587464 97.933427 
L 69.221995 97.84707 
L 70.068038 97.741426 
L 70.91408 97.604576 
L 73.663716 97.170547 
L 75.14429 96.960068 
L 77.893927 96.696957 
L 81.912627 96.612381 
L 82.124137 93.631534 
L 82.758669 93.959296 
L 82.970179 86.616367 
L 83.18169 87.04641 
L 83.3932 84.031909 
L 83.604711 84.607129 
L 83.816221 80.928885 
L 84.027732 79.227411 
L 84.239242 80.123889 
L 84.662263 75.880893 
L 85.085284 73.891956 
L 85.296795 75.259737 
L 85.508305 71.771131 
L 87.4119 64.047073 
L 88.257942 61.468107 
L 88.469453 61.100081 
L 89.315495 58.729602 
L 89.527005 58.443668 
L 89.738516 57.837509 
L 89.950026 57.592815 
L 90.161537 56.947035 
L 90.584558 56.519059 
L 90.796068 55.944785 
L 91.219089 55.604524 
L 91.4306 55.042266 
L 92.699663 54.196587 
L 92.911174 53.731328 
L 94.814768 52.755335 
L 95.026279 52.210784 
L 95.66081 51.721815 
L 96.295342 49.21429 
L 96.506852 47.703773 
L 96.929873 38.935545 
L 98.410447 45.502526 
L 98.621958 46.049606 
L 99.256489 49.075137 
L 99.468 49.604198 
L 100.314042 53.106426 
L 101.160084 56.508804 
L 101.371594 57.011368 
L 102.006126 59.330147 
L 102.217636 59.837545 
L 102.852168 62.56001 
L 103.063678 63.016939 
L 103.69821 65.194039 
L 104.121231 66.065228 
L 104.544252 67.291141 
L 104.755763 67.716232 
L 105.178784 68.928154 
L 106.236336 70.860541 
L 106.447847 71.609086 
L 106.659357 71.599317 
L 107.505399 72.995426 
L 107.71691 72.977942 
L 108.139931 73.649694 
L 108.351441 73.621287 
L 108.562952 73.943616 
L 108.774462 72.945852 
L 108.985973 72.922344 
L 109.197483 73.23681 
L 110.466547 73.0072 
L 110.678057 75.826585 
L 110.889568 72.583055 
L 111.101078 72.53559 
L 111.312589 75.368756 
L 111.524099 72.100969 
L 112.158631 79.317545 
L 112.793162 83.959633 
L 113.216183 86.315501 
L 113.427694 89.495421 
L 113.639204 90.294625 
L 113.850715 91.839655 
L 114.062225 92.487353 
L 114.485246 95.574066 
L 114.696757 96.021481 
L 115.542799 99.21364 
L 116.388841 101.379515 
L 117.023373 102.490808 
L 117.234883 102.59242 
L 117.657904 103.361011 
L 118.503946 104.177866 
L 119.349988 104.761979 
L 121.253583 105.388872 
L 123.157178 105.369551 
L 123.791709 105.294478 
L 127.175878 104.338278 
L 127.598899 103.2078 
L 128.02192 102.691726 
L 128.656451 101.959634 
L 129.290983 101.443585 
L 131.194577 100.059498 
L 132.040619 99.552135 
L 132.886662 99.075972 
L 134.578746 98.180709 
L 135.636298 97.715666 
L 139.443488 96.454871 
L 140.078019 96.382487 
L 140.712551 96.190137 
L 141.770103 96.124604 
L 141.981614 95.927762 
L 143.250677 95.979374 
L 143.462187 91.552028 
L 143.885209 91.888123 
L 144.096719 87.345746 
L 144.30823 87.700586 
L 144.51974 85.14447 
L 144.731251 85.616263 
L 145.154272 81.55202 
L 145.365782 82.243997 
L 145.577293 79.543497 
L 146.000314 77.820827 
L 146.211824 78.799274 
L 146.423335 75.971024 
L 147.903908 70.845004 
L 148.115419 70.506346 
L 148.74995 68.614406 
L 148.961461 68.328464 
L 149.172971 67.739809 
L 149.384482 67.48069 
L 149.595993 66.917477 
L 149.807503 66.72118 
L 150.019014 66.165802 
L 150.230524 65.991992 
L 150.442035 65.474541 
L 150.865056 65.180225 
L 151.076566 64.691153 
L 152.134119 64.248084 
L 153.403182 64.075502 
L 153.826203 64.494959 
L 154.037713 64.505806 
L 154.249224 64.779257 
L 154.460734 64.807755 
L 155.095266 65.344624 
L 155.306777 65.820303 
L 155.518287 65.894713 
L 155.729798 66.39589 
L 155.941308 66.441376 
L 156.152819 66.95283 
L 156.364329 67.022962 
L 156.57584 67.552412 
L 156.78735 67.631559 
L 157.421882 69.134008 
L 157.633392 69.483185 
L 157.844903 70.469861 
L 158.056413 70.741121 
L 158.902455 72.582074 
L 159.113966 72.603917 
L 159.960008 74.400027 
L 160.171518 74.407674 
L 162.075113 77.994842 
L 162.286624 77.969158 
L 162.921155 79.086735 
L 163.132666 79.041292 
L 163.978708 80.270507 
L 164.190218 80.206698 
L 164.613239 80.838718 
L 164.82475 80.748655 
L 165.247771 81.262159 
L 165.882302 80.938053 
L 166.093813 81.118249 
L 166.305323 80.977862 
L 166.516834 81.195777 
L 167.785897 80.101641 
L 168.208918 79.654139 
L 168.420429 79.264607 
L 168.631939 78.619782 
L 168.84345 78.534954 
L 169.05496 77.683863 
L 169.266471 77.609677 
L 169.689492 75.960347 
L 169.901002 75.565096 
L 170.324023 74.022686 
L 170.958555 69.839365 
L 171.381576 65.465173 
L 171.593086 74.036228 
L 171.804597 55.108148 
L 172.227618 55.364852 
L 172.439129 79.025619 
L 172.86215 85.294423 
L 173.708192 94.242074 
L 174.131213 96.496287 
L 174.342723 98.6093 
L 174.554234 99.435981 
L 174.765744 99.426359 
L 175.188765 101.15096 
L 175.823297 103.855063 
L 176.034807 104.097995 
L 176.669339 105.987425 
L 176.880849 106.122926 
L 177.30387 106.96956 
L 178.361423 108.412762 
L 179.418976 109.024615 
L 180.053507 109.211493 
L 181.745591 108.983956 
L 183.649186 108.118472 
L 185.552781 106.901283 
L 188.302417 104.896888 
L 188.725438 103.970046 
L 189.35997 103.191872 
L 189.782991 102.824677 
L 191.475075 101.337118 
L 195.070754 98.874952 
L 195.493775 98.644275 
L 196.762838 97.988055 
L 197.185859 97.778958 
L 200.358517 96.467276 
L 200.993049 96.36912 
L 201.62758 96.115642 
L 201.839091 96.119977 
L 202.050601 95.942944 
L 202.896643 95.968494 
L 203.108154 95.748317 
L 204.165706 95.794839 
L 204.377217 92.033585 
L 204.800238 92.32343 
L 205.011748 87.287853 
L 205.223259 87.64195 
L 205.434769 85.112692 
L 205.64628 85.583225 
L 206.069301 81.582005 
L 206.280812 82.272024 
L 206.492322 79.615635 
L 206.915343 77.92455 
L 207.126854 78.900721 
L 207.338364 76.105241 
L 208.818938 71.084783 
L 209.030448 70.737293 
L 209.66498 68.887345 
L 209.87649 68.609632 
L 210.088001 68.034864 
L 210.299511 67.790996 
L 210.722532 66.710479 
L 211.145553 66.351052 
L 211.357064 65.845657 
L 211.780085 65.574404 
L 211.991596 65.097778 
L 213.049148 64.710813 
L 214.318211 64.598999 
L 214.741232 65.040886 
L 214.952743 65.062265 
L 215.164253 65.338106 
L 215.375764 65.377346 
L 215.587274 65.852809 
L 216.010295 65.943398 
L 216.221806 66.426746 
L 216.433316 66.503484 
L 216.644827 67.012592 
L 216.856337 67.076587 
L 217.067848 67.603292 
L 217.279358 67.680941 
L 217.490869 68.205534 
L 217.70238 68.294202 
L 218.971443 71.639745 
L 219.182953 71.66528 
L 219.605974 72.674889 
L 219.817485 72.744241 
L 221.298058 76.056455 
L 221.93259 77.534294 
L 222.1441 77.554238 
L 222.778632 78.94863 
L 222.990142 78.973891 
L 224.047695 81.012443 
L 224.470716 81.839923 
L 224.682227 81.803018 
L 224.893737 82.181363 
L 225.105248 82.159165 
L 225.316758 82.52665 
L 225.528269 82.496304 
L 225.95129 83.241636 
L 226.1628 83.164268 
L 226.585821 83.750021 
L 226.797332 83.695811 
L 227.008842 83.978543 
L 227.643374 83.660638 
L 227.854884 83.932471 
L 228.912437 83.191548 
L 229.335458 82.82488 
L 229.546969 82.228631 
L 229.758479 82.004388 
L 230.393011 80.519334 
L 230.604521 80.262621 
L 232.296605 74.107078 
L 232.508116 72.544613 
L 232.719626 72.160999 
L 232.931137 81.229863 
L 233.142647 69.631097 
L 233.354158 80.830128 
L 233.565668 65.770344 
L 233.777179 82.01205 
L 234.2002 89.643953 
L 234.411711 92.205024 
L 234.623221 97.232573 
L 235.046242 99.948129 
L 235.257753 103.15101 
L 235.469263 104.026488 
L 235.680774 104.352981 
L 236.315305 106.804612 
L 236.738326 108.020993 
L 237.584368 110.431342 
L 237.795879 110.487285 
L 238.2189 111.293729 
L 238.43041 111.324761 
L 238.641921 111.685794 
L 239.064942 111.823319 
L 239.276452 112.025815 
L 240.545516 112.123903 
L 240.757026 112.096493 
L 240.968537 111.927658 
L 241.603068 111.814005 
L 242.2376 111.413387 
L 242.44911 111.355697 
L 242.872131 110.99206 
L 243.083642 110.919517 
L 244.141194 109.981271 
L 244.352705 109.897613 
L 245.198747 109.112511 
L 247.102342 107.307568 
L 247.525363 106.792808 
L 249.217447 105.165409 
L 249.640468 104.452862 
L 250.69802 103.32757 
L 252.390105 101.752758 
L 255.774273 99.23813 
L 255.985783 99.206343 
L 256.620315 98.720284 
L 257.254847 98.371729 
L 258.946931 97.499342 
L 261.696567 96.361984 
L 261.908078 96.363774 
L 262.119588 96.222732 
L 262.331099 96.225826 
L 262.542609 96.083101 
L 262.75412 96.087491 
L 262.965631 95.85164 
L 263.811673 95.878016 
L 264.023183 95.665965 
L 265.080736 95.71363 
L 265.292246 91.948271 
L 265.715267 92.238265 
L 265.926778 87.261304 
L 266.138288 87.615095 
L 266.349799 85.09654 
L 266.561309 85.566643 
L 266.98433 81.592015 
L 267.195841 82.281438 
L 267.407351 79.644076 
L 267.830372 77.966533 
L 268.041883 78.942112 
L 268.253393 76.160357 
L 269.733967 71.18648 
L 269.945478 70.834251 
L 270.580009 69.002911 
L 270.79152 68.729238 
L 271.00303 68.160589 
L 271.214541 67.923597 
L 271.637562 66.852411 
L 272.060583 66.502983 
L 272.272093 66.003613 
L 272.695114 65.74328 
L 272.906625 65.272819 
L 273.964177 64.914143 
L 275.02173 64.822034 
L 275.233241 65.106359 
L 275.444751 65.100731 
L 275.656262 65.286868 
L 275.867772 65.314142 
L 276.079283 65.591917 
L 276.290793 65.637096 
L 276.502304 66.118643 
L 276.925325 66.224347 
L 277.136835 66.710336 
L 277.348346 66.787215 
L 277.559856 67.299889 
L 277.771367 67.37344 
L 277.982877 67.900579 
L 278.194388 67.984451 
L 278.617409 68.857864 
L 278.828919 69.159187 
L 279.886472 71.834953 
L 280.097983 71.890928 
L 280.521004 72.951838 
L 280.732514 73.042331 
L 282.636109 77.589252 
L 282.847619 77.63728 
L 283.905172 79.983228 
L 284.751214 81.885889 
L 284.962724 81.913864 
L 285.385746 82.825251 
L 285.597256 82.824622 
L 286.020277 83.693657 
L 286.231788 83.691597 
L 286.443298 84.068917 
L 286.654809 84.09695 
L 287.07783 84.778045 
L 287.28934 84.875273 
L 287.500851 85.127101 
L 287.712361 85.07619 
L 287.923872 85.455188 
L 288.346893 85.342982 
L 288.558403 85.599391 
L 288.981424 85.513638 
L 290.038977 84.95 
L 290.250487 84.419034 
L 290.673508 84.093864 
L 290.885019 83.52733 
L 291.30804 83.191519 
L 292.788614 78.724569 
L 293.211635 76.505751 
L 293.634656 74.422779 
L 293.846166 85.167154 
L 294.057677 71.286376 
L 294.269187 86.074307 
L 294.692208 93.830513 
L 295.32674 100.345002 
L 295.749761 103.327206 
L 295.961271 106.179421 
L 296.384292 107.986893 
L 296.595803 108.358634 
L 297.864866 112.137765 
L 298.499398 113.505967 
L 298.710908 113.562821 
L 299.133929 114.185508 
L 299.55695 114.132203 
L 299.768461 114.356574 
L 299.979971 114.400252 
L 300.191482 114.273642 
L 300.402992 114.456513 
L 301.249034 114.2311 
L 302.095076 113.779391 
L 303.36414 112.799975 
L 304.210182 111.928898 
L 310.132476 105.304786 
L 310.767008 104.454944 
L 312.036071 103.186292 
L 313.516644 101.784204 
L 314.785708 100.754522 
L 316.689302 99.348312 
L 317.112323 99.133077 
L 317.535344 98.812827 
L 317.958365 98.564133 
L 321.342534 96.807316 
L 321.765555 96.716998 
L 323.457639 96.069069 
L 323.669149 96.073486 
L 323.88066 95.811415 
L 324.726702 95.838182 
L 324.938212 95.62983 
L 325.995765 95.678002 
L 326.207276 91.910258 
L 326.630297 92.200384 
L 326.841807 87.248837 
L 327.053318 87.60257 
L 327.264828 85.088383 
L 327.476339 85.558401 
L 327.89936 81.594924 
L 328.11087 82.284245 
L 328.322381 79.654872 
L 328.745402 77.983062 
L 328.956912 78.958617 
L 329.168423 76.182453 
L 330.648997 71.228539 
L 330.860507 70.874121 
L 331.495039 69.050869 
L 331.706549 68.778977 
L 331.91806 68.213017 
L 332.12957 67.979114 
L 332.552591 66.912046 
L 332.975612 66.567208 
L 333.187123 66.070555 
L 333.610144 65.815685 
L 333.821654 65.347977 
L 334.879207 65.002894 
L 335.936759 64.924639 
L 336.14827 65.196282 
L 336.571291 65.232546 
L 337.205823 65.761826 
L 337.417333 66.231066 
L 337.840354 66.351379 
L 338.051865 66.841702 
L 338.263375 66.920471 
L 338.474886 67.436739 
L 338.686396 67.516356 
L 338.897907 68.045084 
L 339.109417 68.133051 
L 339.532438 68.995047 
L 339.743949 69.29652 
L 340.589991 71.36872 
L 340.801501 71.462807 
L 341.436033 73.113532 
L 341.647543 73.21445 
L 343.762649 78.431133 
L 343.974159 78.507379 
L 345.454733 81.922724 
L 345.666243 81.966958 
L 346.089264 82.944375 
L 346.300775 82.983422 
L 346.723796 83.92925 
L 346.935306 83.964121 
L 347.569838 85.196409 
L 348.20437 85.776879 
L 348.41588 86.041335 
L 348.627391 86.025101 
L 348.838901 86.441272 
L 349.684943 86.307497 
L 349.684943 86.307497 
" style="fill:none;stroke:#ff7f0e;stroke-linecap:square;stroke-width:1.5;"/>
   </g>
   <g id="patch_3">
    <path d="M 30.103125 121.154489 
L 30.103125 22.318125 
" style="fill:none;stroke:#000000;stroke-linecap:square;stroke-linejoin:miter;stroke-width:0.8;"/>
   </g>
   <g id="patch_4">
    <path d="M 364.903125 121.154489 
L 364.903125 22.318125 
" style="fill:none;stroke:#000000;stroke-linecap:square;stroke-linejoin:miter;stroke-width:0.8;"/>
   </g>
   <g id="patch_5">
    <path d="M 30.103125 121.154489 
L 364.903125 121.154489 
" style="fill:none;stroke:#000000;stroke-linecap:square;stroke-linejoin:miter;stroke-width:0.8;"/>
   </g>
   <g id="patch_6">
    <path d="M 30.103125 22.318125 
L 364.903125 22.318125 
" style="fill:none;stroke:#000000;stroke-linecap:square;stroke-linejoin:miter;stroke-width:0.8;"/>
   </g>
   <g id="text_9">
    <!-- Percent Qin volume change -->
    <defs>
     <path d="M 19.671875 64.796875 
L 19.671875 37.40625 
L 32.078125 37.40625 
Q 38.96875 37.40625 42.71875 40.96875 
Q 46.484375 44.53125 46.484375 51.125 
Q 46.484375 57.671875 42.71875 61.234375 
Q 38.96875 64.796875 32.078125 64.796875 
z
M 9.8125 72.90625 
L 32.078125 72.90625 
Q 44.34375 72.90625 50.609375 67.359375 
Q 56.890625 61.8125 56.890625 51.125 
Q 56.890625 40.328125 50.609375 34.8125 
Q 44.34375 29.296875 32.078125 29.296875 
L 19.671875 29.296875 
L 19.671875 0 
L 9.8125 0 
z
" id="DejaVuSans-80"/>
     <path d="M 56.203125 29.59375 
L 56.203125 25.203125 
L 14.890625 25.203125 
Q 15.484375 15.921875 20.484375 11.0625 
Q 25.484375 6.203125 34.421875 6.203125 
Q 39.59375 6.203125 44.453125 7.46875 
Q 49.3125 8.734375 54.109375 11.28125 
L 54.109375 2.78125 
Q 49.265625 0.734375 44.1875 -0.34375 
Q 39.109375 -1.421875 33.890625 -1.421875 
Q 20.796875 -1.421875 13.15625 6.1875 
Q 5.515625 13.8125 5.515625 26.8125 
Q 5.515625 40.234375 12.765625 48.109375 
Q 20.015625 56 32.328125 56 
Q 43.359375 56 49.78125 48.890625 
Q 56.203125 41.796875 56.203125 29.59375 
z
M 47.21875 32.234375 
Q 47.125 39.59375 43.09375 43.984375 
Q 39.0625 48.390625 32.421875 48.390625 
Q 24.90625 48.390625 20.390625 44.140625 
Q 15.875 39.890625 15.1875 32.171875 
z
" id="DejaVuSans-101"/>
     <path d="M 41.109375 46.296875 
Q 39.59375 47.171875 37.8125 47.578125 
Q 36.03125 48 33.890625 48 
Q 26.265625 48 22.1875 43.046875 
Q 18.109375 38.09375 18.109375 28.8125 
L 18.109375 0 
L 9.078125 0 
L 9.078125 54.6875 
L 18.109375 54.6875 
L 18.109375 46.1875 
Q 20.953125 51.171875 25.484375 53.578125 
Q 30.03125 56 36.53125 56 
Q 37.453125 56 38.578125 55.875 
Q 39.703125 55.765625 41.0625 55.515625 
z
" id="DejaVuSans-114"/>
     <path d="M 48.78125 52.59375 
L 48.78125 44.1875 
Q 44.96875 46.296875 41.140625 47.34375 
Q 37.3125 48.390625 33.40625 48.390625 
Q 24.65625 48.390625 19.8125 42.84375 
Q 14.984375 37.3125 14.984375 27.296875 
Q 14.984375 17.28125 19.8125 11.734375 
Q 24.65625 6.203125 33.40625 6.203125 
Q 37.3125 6.203125 41.140625 7.25 
Q 44.96875 8.296875 48.78125 10.40625 
L 48.78125 2.09375 
Q 45.015625 0.34375 40.984375 -0.53125 
Q 36.96875 -1.421875 32.421875 -1.421875 
Q 20.0625 -1.421875 12.78125 6.34375 
Q 5.515625 14.109375 5.515625 27.296875 
Q 5.515625 40.671875 12.859375 48.328125 
Q 20.21875 56 33.015625 56 
Q 37.15625 56 41.109375 55.140625 
Q 45.0625 54.296875 48.78125 52.59375 
z
" id="DejaVuSans-99"/>
     <path d="M 54.890625 33.015625 
L 54.890625 0 
L 45.90625 0 
L 45.90625 32.71875 
Q 45.90625 40.484375 42.875 44.328125 
Q 39.84375 48.1875 33.796875 48.1875 
Q 26.515625 48.1875 22.3125 43.546875 
Q 18.109375 38.921875 18.109375 30.90625 
L 18.109375 0 
L 9.078125 0 
L 9.078125 54.6875 
L 18.109375 54.6875 
L 18.109375 46.1875 
Q 21.34375 51.125 25.703125 53.5625 
Q 30.078125 56 35.796875 56 
Q 45.21875 56 50.046875 50.171875 
Q 54.890625 44.34375 54.890625 33.015625 
z
" id="DejaVuSans-110"/>
     <path d="M 18.3125 70.21875 
L 18.3125 54.6875 
L 36.8125 54.6875 
L 36.8125 47.703125 
L 18.3125 47.703125 
L 18.3125 18.015625 
Q 18.3125 11.328125 20.140625 9.421875 
Q 21.96875 7.515625 27.59375 7.515625 
L 36.8125 7.515625 
L 36.8125 0 
L 27.59375 0 
Q 17.1875 0 13.234375 3.875 
Q 9.28125 7.765625 9.28125 18.015625 
L 9.28125 47.703125 
L 2.6875 47.703125 
L 2.6875 54.6875 
L 9.28125 54.6875 
L 9.28125 70.21875 
z
" id="DejaVuSans-116"/>
     <path id="DejaVuSans-32"/>
     <path d="M 39.40625 66.21875 
Q 28.65625 66.21875 22.328125 58.203125 
Q 16.015625 50.203125 16.015625 36.375 
Q 16.015625 22.609375 22.328125 14.59375 
Q 28.65625 6.59375 39.40625 6.59375 
Q 50.140625 6.59375 56.421875 14.59375 
Q 62.703125 22.609375 62.703125 36.375 
Q 62.703125 50.203125 56.421875 58.203125 
Q 50.140625 66.21875 39.40625 66.21875 
z
M 53.21875 1.3125 
L 66.21875 -12.890625 
L 54.296875 -12.890625 
L 43.5 -1.21875 
Q 41.890625 -1.3125 41.03125 -1.359375 
Q 40.1875 -1.421875 39.40625 -1.421875 
Q 24.03125 -1.421875 14.8125 8.859375 
Q 5.609375 19.140625 5.609375 36.375 
Q 5.609375 53.65625 14.8125 63.9375 
Q 24.03125 74.21875 39.40625 74.21875 
Q 54.734375 74.21875 63.90625 63.9375 
Q 73.09375 53.65625 73.09375 36.375 
Q 73.09375 23.6875 67.984375 14.640625 
Q 62.890625 5.609375 53.21875 1.3125 
z
" id="DejaVuSans-81"/>
     <path d="M 9.421875 54.6875 
L 18.40625 54.6875 
L 18.40625 0 
L 9.421875 0 
z
M 9.421875 75.984375 
L 18.40625 75.984375 
L 18.40625 64.59375 
L 9.421875 64.59375 
z
" id="DejaVuSans-105"/>
     <path d="M 2.984375 54.6875 
L 12.5 54.6875 
L 29.59375 8.796875 
L 46.6875 54.6875 
L 56.203125 54.6875 
L 35.6875 0 
L 23.484375 0 
z
" id="DejaVuSans-118"/>
     <path d="M 30.609375 48.390625 
Q 23.390625 48.390625 19.1875 42.75 
Q 14.984375 37.109375 14.984375 27.296875 
Q 14.984375 17.484375 19.15625 11.84375 
Q 23.34375 6.203125 30.609375 6.203125 
Q 37.796875 6.203125 41.984375 11.859375 
Q 46.1875 17.53125 46.1875 27.296875 
Q 46.1875 37.015625 41.984375 42.703125 
Q 37.796875 48.390625 30.609375 48.390625 
z
M 30.609375 56 
Q 42.328125 56 49.015625 48.375 
Q 55.71875 40.765625 55.71875 27.296875 
Q 55.71875 13.875 49.015625 6.21875 
Q 42.328125 -1.421875 30.609375 -1.421875 
Q 18.84375 -1.421875 12.171875 6.21875 
Q 5.515625 13.875 5.515625 27.296875 
Q 5.515625 40.765625 12.171875 48.375 
Q 18.84375 56 30.609375 56 
z
" id="DejaVuSans-111"/>
     <path d="M 9.421875 75.984375 
L 18.40625 75.984375 
L 18.40625 0 
L 9.421875 0 
z
" id="DejaVuSans-108"/>
     <path d="M 8.5 21.578125 
L 8.5 54.6875 
L 17.484375 54.6875 
L 17.484375 21.921875 
Q 17.484375 14.15625 20.5 10.265625 
Q 23.53125 6.390625 29.59375 6.390625 
Q 36.859375 6.390625 41.078125 11.03125 
Q 45.3125 15.671875 45.3125 23.6875 
L 45.3125 54.6875 
L 54.296875 54.6875 
L 54.296875 0 
L 45.3125 0 
L 45.3125 8.40625 
Q 42.046875 3.421875 37.71875 1 
Q 33.40625 -1.421875 27.6875 -1.421875 
Q 18.265625 -1.421875 13.375 4.4375 
Q 8.5 10.296875 8.5 21.578125 
z
M 31.109375 56 
z
" id="DejaVuSans-117"/>
     <path d="M 52 44.1875 
Q 55.375 50.25 60.0625 53.125 
Q 64.75 56 71.09375 56 
Q 79.640625 56 84.28125 50.015625 
Q 88.921875 44.046875 88.921875 33.015625 
L 88.921875 0 
L 79.890625 0 
L 79.890625 32.71875 
Q 79.890625 40.578125 77.09375 44.375 
Q 74.3125 48.1875 68.609375 48.1875 
Q 61.625 48.1875 57.5625 43.546875 
Q 53.515625 38.921875 53.515625 30.90625 
L 53.515625 0 
L 44.484375 0 
L 44.484375 32.71875 
Q 44.484375 40.625 41.703125 44.40625 
Q 38.921875 48.1875 33.109375 48.1875 
Q 26.21875 48.1875 22.15625 43.53125 
Q 18.109375 38.875 18.109375 30.90625 
L 18.109375 0 
L 9.078125 0 
L 9.078125 54.6875 
L 18.109375 54.6875 
L 18.109375 46.1875 
Q 21.1875 51.21875 25.484375 53.609375 
Q 29.78125 56 35.6875 56 
Q 41.65625 56 45.828125 52.96875 
Q 50 49.953125 52 44.1875 
z
" id="DejaVuSans-109"/>
     <path d="M 54.890625 33.015625 
L 54.890625 0 
L 45.90625 0 
L 45.90625 32.71875 
Q 45.90625 40.484375 42.875 44.328125 
Q 39.84375 48.1875 33.796875 48.1875 
Q 26.515625 48.1875 22.3125 43.546875 
Q 18.109375 38.921875 18.109375 30.90625 
L 18.109375 0 
L 9.078125 0 
L 9.078125 75.984375 
L 18.109375 75.984375 
L 18.109375 46.1875 
Q 21.34375 51.125 25.703125 53.5625 
Q 30.078125 56 35.796875 56 
Q 45.21875 56 50.046875 50.171875 
Q 54.890625 44.34375 54.890625 33.015625 
z
" id="DejaVuSans-104"/>
     <path d="M 34.28125 27.484375 
Q 23.390625 27.484375 19.1875 25 
Q 14.984375 22.515625 14.984375 16.5 
Q 14.984375 11.71875 18.140625 8.90625 
Q 21.296875 6.109375 26.703125 6.109375 
Q 34.1875 6.109375 38.703125 11.40625 
Q 43.21875 16.703125 43.21875 25.484375 
L 43.21875 27.484375 
z
M 52.203125 31.203125 
L 52.203125 0 
L 43.21875 0 
L 43.21875 8.296875 
Q 40.140625 3.328125 35.546875 0.953125 
Q 30.953125 -1.421875 24.3125 -1.421875 
Q 15.921875 -1.421875 10.953125 3.296875 
Q 6 8.015625 6 15.921875 
Q 6 25.140625 12.171875 29.828125 
Q 18.359375 34.515625 30.609375 34.515625 
L 43.21875 34.515625 
L 43.21875 35.40625 
Q 43.21875 41.609375 39.140625 45 
Q 35.0625 48.390625 27.6875 48.390625 
Q 23 48.390625 18.546875 47.265625 
Q 14.109375 46.140625 10.015625 43.890625 
L 10.015625 52.203125 
Q 14.9375 54.109375 19.578125 55.046875 
Q 24.21875 56 28.609375 56 
Q 40.484375 56 46.34375 49.84375 
Q 52.203125 43.703125 52.203125 31.203125 
z
" id="DejaVuSans-97"/>
     <path d="M 45.40625 27.984375 
Q 45.40625 37.75 41.375 43.109375 
Q 37.359375 48.484375 30.078125 48.484375 
Q 22.859375 48.484375 18.828125 43.109375 
Q 14.796875 37.75 14.796875 27.984375 
Q 14.796875 18.265625 18.828125 12.890625 
Q 22.859375 7.515625 30.078125 7.515625 
Q 37.359375 7.515625 41.375 12.890625 
Q 45.40625 18.265625 45.40625 27.984375 
z
M 54.390625 6.78125 
Q 54.390625 -7.171875 48.1875 -13.984375 
Q 42 -20.796875 29.203125 -20.796875 
Q 24.46875 -20.796875 20.265625 -20.09375 
Q 16.0625 -19.390625 12.109375 -17.921875 
L 12.109375 -9.1875 
Q 16.0625 -11.328125 19.921875 -12.34375 
Q 23.78125 -13.375 27.78125 -13.375 
Q 36.625 -13.375 41.015625 -8.765625 
Q 45.40625 -4.15625 45.40625 5.171875 
L 45.40625 9.625 
Q 42.625 4.78125 38.28125 2.390625 
Q 33.9375 0 27.875 0 
Q 17.828125 0 11.671875 7.65625 
Q 5.515625 15.328125 5.515625 27.984375 
Q 5.515625 40.671875 11.671875 48.328125 
Q 17.828125 56 27.875 56 
Q 33.9375 56 38.28125 53.609375 
Q 42.625 51.21875 45.40625 46.390625 
L 45.40625 54.6875 
L 54.390625 54.6875 
z
" id="DejaVuSans-103"/>
    </defs>
    <g transform="translate(114.362813 16.318125)scale(0.12 -0.12)">
     <use xlink:href="#DejaVuSans-80"/>
     <use x="60.255859" xlink:href="#DejaVuSans-101"/>
     <use x="121.779297" xlink:href="#DejaVuSans-114"/>
     <use x="162.861328" xlink:href="#DejaVuSans-99"/>
     <use x="217.841797" xlink:href="#DejaVuSans-101"/>
     <use x="279.365234" xlink:href="#DejaVuSans-110"/>
     <use x="342.744141" xlink:href="#DejaVuSans-116"/>
     <use x="381.953125" xlink:href="#DejaVuSans-32"/>
     <use x="413.740234" xlink:href="#DejaVuSans-81"/>
     <use x="492.451172" xlink:href="#DejaVuSans-105"/>
     <use x="520.234375" xlink:href="#DejaVuSans-110"/>
     <use x="583.613281" xlink:href="#DejaVuSans-32"/>
     <use x="615.400391" xlink:href="#DejaVuSans-118"/>
     <use x="674.580078" xlink:href="#DejaVuSans-111"/>
     <use x="735.761719" xlink:href="#DejaVuSans-108"/>
     <use x="763.544922" xlink:href="#DejaVuSans-117"/>
     <use x="826.923828" xlink:href="#DejaVuSans-109"/>
     <use x="924.335938" xlink:href="#DejaVuSans-101"/>
     <use x="985.859375" xlink:href="#DejaVuSans-32"/>
     <use x="1017.646484" xlink:href="#DejaVuSans-99"/>
     <use x="1072.626953" xlink:href="#DejaVuSans-104"/>
     <use x="1136.005859" xlink:href="#DejaVuSans-97"/>
     <use x="1197.285156" xlink:href="#DejaVuSans-110"/>
     <use x="1260.664062" xlink:href="#DejaVuSans-103"/>
     <use x="1324.140625" xlink:href="#DejaVuSans-101"/>
    </g>
   </g>
   <g id="legend_1">
    <g id="patch_7">
     <path d="M 288.265625 60.230625 
L 357.903125 60.230625 
Q 359.903125 60.230625 359.903125 58.230625 
L 359.903125 29.318125 
Q 359.903125 27.318125 357.903125 27.318125 
L 288.265625 27.318125 
Q 286.265625 27.318125 286.265625 29.318125 
L 286.265625 58.230625 
Q 286.265625 60.230625 288.265625 60.230625 
z
" style="fill:#ffffff;opacity:0.8;stroke:#cccccc;stroke-linejoin:miter;"/>
    </g>
    <g id="line2d_19">
     <path d="M 290.265625 35.416562 
L 310.265625 35.416562 
" style="fill:none;stroke:#1f77b4;stroke-linecap:square;stroke-width:1.5;"/>
    </g>
    <g id="line2d_20"/>
    <g id="text_10">
     <!-- Vadd_C -->
     <defs>
      <path d="M 28.609375 0 
L 0.78125 72.90625 
L 11.078125 72.90625 
L 34.1875 11.53125 
L 57.328125 72.90625 
L 67.578125 72.90625 
L 39.796875 0 
z
" id="DejaVuSans-86"/>
      <path d="M 45.40625 46.390625 
L 45.40625 75.984375 
L 54.390625 75.984375 
L 54.390625 0 
L 45.40625 0 
L 45.40625 8.203125 
Q 42.578125 3.328125 38.25 0.953125 
Q 33.9375 -1.421875 27.875 -1.421875 
Q 17.96875 -1.421875 11.734375 6.484375 
Q 5.515625 14.40625 5.515625 27.296875 
Q 5.515625 40.1875 11.734375 48.09375 
Q 17.96875 56 27.875 56 
Q 33.9375 56 38.25 53.625 
Q 42.578125 51.265625 45.40625 46.390625 
z
M 14.796875 27.296875 
Q 14.796875 17.390625 18.875 11.75 
Q 22.953125 6.109375 30.078125 6.109375 
Q 37.203125 6.109375 41.296875 11.75 
Q 45.40625 17.390625 45.40625 27.296875 
Q 45.40625 37.203125 41.296875 42.84375 
Q 37.203125 48.484375 30.078125 48.484375 
Q 22.953125 48.484375 18.875 42.84375 
Q 14.796875 37.203125 14.796875 27.296875 
z
" id="DejaVuSans-100"/>
      <path d="M 50.984375 -16.609375 
L 50.984375 -23.578125 
L -0.984375 -23.578125 
L -0.984375 -16.609375 
z
" id="DejaVuSans-95"/>
      <path d="M 64.40625 67.28125 
L 64.40625 56.890625 
Q 59.421875 61.53125 53.78125 63.8125 
Q 48.140625 66.109375 41.796875 66.109375 
Q 29.296875 66.109375 22.65625 58.46875 
Q 16.015625 50.828125 16.015625 36.375 
Q 16.015625 21.96875 22.65625 14.328125 
Q 29.296875 6.6875 41.796875 6.6875 
Q 48.140625 6.6875 53.78125 8.984375 
Q 59.421875 11.28125 64.40625 15.921875 
L 64.40625 5.609375 
Q 59.234375 2.09375 53.4375 0.328125 
Q 47.65625 -1.421875 41.21875 -1.421875 
Q 24.65625 -1.421875 15.125 8.703125 
Q 5.609375 18.84375 5.609375 36.375 
Q 5.609375 53.953125 15.125 64.078125 
Q 24.65625 74.21875 41.21875 74.21875 
Q 47.75 74.21875 53.53125 72.484375 
Q 59.328125 70.75 64.40625 67.28125 
z
" id="DejaVuSans-67"/>
     </defs>
     <g transform="translate(318.265625 38.916562)scale(0.1 -0.1)">
      <use xlink:href="#DejaVuSans-86"/>
      <use x="68.298828" xlink:href="#DejaVuSans-97"/>
      <use x="129.578125" xlink:href="#DejaVuSans-100"/>
      <use x="193.054688" xlink:href="#DejaVuSans-100"/>
      <use x="256.53125" xlink:href="#DejaVuSans-95"/>
      <use x="306.53125" xlink:href="#DejaVuSans-67"/>
     </g>
    </g>
    <g id="line2d_21">
     <path d="M 290.265625 50.372812 
L 310.265625 50.372812 
" style="fill:none;stroke:#ff7f0e;stroke-linecap:square;stroke-width:1.5;"/>
    </g>
    <g id="line2d_22"/>
    <g id="text_11">
     <!-- Vadd_E -->
     <defs>
      <path d="M 9.8125 72.90625 
L 55.90625 72.90625 
L 55.90625 64.59375 
L 19.671875 64.59375 
L 19.671875 43.015625 
L 54.390625 43.015625 
L 54.390625 34.71875 
L 19.671875 34.71875 
L 19.671875 8.296875 
L 56.78125 8.296875 
L 56.78125 0 
L 9.8125 0 
z
" id="DejaVuSans-69"/>
     </defs>
     <g transform="translate(318.265625 53.872812)scale(0.1 -0.1)">
      <use xlink:href="#DejaVuSans-86"/>
      <use x="68.298828" xlink:href="#DejaVuSans-97"/>
      <use x="129.578125" xlink:href="#DejaVuSans-100"/>
      <use x="193.054688" xlink:href="#DejaVuSans-100"/>
      <use x="256.53125" xlink:href="#DejaVuSans-95"/>
      <use x="306.53125" xlink:href="#DejaVuSans-69"/>
     </g>
    </g>
   </g>
  </g>
  <g id="axes_2">
   <g id="patch_8">
    <path d="M 30.103125 239.758125 
L 364.903125 239.758125 
L 364.903125 140.921761 
L 30.103125 140.921761 
z
" style="fill:#ffffff;"/>
   </g>
   <g id="matplotlib.axis_3">
    <g id="xtick_6">
     <g id="line2d_23">
      <path clip-path="url(#p6fc0e6e1ce)" d="M 45.109796 239.758125 
L 45.109796 140.921761 
" style="fill:none;stroke:#b0b0b0;stroke-linecap:square;stroke-width:0.8;"/>
     </g>
     <g id="line2d_24">
      <g>
       <use style="stroke:#000000;stroke-width:0.8;" x="45.109796" xlink:href="#m1904e8226b" y="239.758125"/>
      </g>
     </g>
     <g id="text_12">
      <!-- 0 -->
      <g transform="translate(41.928546 254.356562)scale(0.1 -0.1)">
       <use xlink:href="#DejaVuSans-48"/>
      </g>
     </g>
    </g>
    <g id="xtick_7">
     <g id="line2d_25">
      <path clip-path="url(#p6fc0e6e1ce)" d="M 115.613303 239.758125 
L 115.613303 140.921761 
" style="fill:none;stroke:#b0b0b0;stroke-linecap:square;stroke-width:0.8;"/>
     </g>
     <g id="line2d_26">
      <g>
       <use style="stroke:#000000;stroke-width:0.8;" x="115.613303" xlink:href="#m1904e8226b" y="239.758125"/>
      </g>
     </g>
     <g id="text_13">
      <!-- 100000 -->
      <g transform="translate(96.525803 254.356562)scale(0.1 -0.1)">
       <use xlink:href="#DejaVuSans-49"/>
       <use x="63.623047" xlink:href="#DejaVuSans-48"/>
       <use x="127.246094" xlink:href="#DejaVuSans-48"/>
       <use x="190.869141" xlink:href="#DejaVuSans-48"/>
       <use x="254.492188" xlink:href="#DejaVuSans-48"/>
       <use x="318.115234" xlink:href="#DejaVuSans-48"/>
      </g>
     </g>
    </g>
    <g id="xtick_8">
     <g id="line2d_27">
      <path clip-path="url(#p6fc0e6e1ce)" d="M 186.116809 239.758125 
L 186.116809 140.921761 
" style="fill:none;stroke:#b0b0b0;stroke-linecap:square;stroke-width:0.8;"/>
     </g>
     <g id="line2d_28">
      <g>
       <use style="stroke:#000000;stroke-width:0.8;" x="186.116809" xlink:href="#m1904e8226b" y="239.758125"/>
      </g>
     </g>
     <g id="text_14">
      <!-- 200000 -->
      <g transform="translate(167.029309 254.356562)scale(0.1 -0.1)">
       <use xlink:href="#DejaVuSans-50"/>
       <use x="63.623047" xlink:href="#DejaVuSans-48"/>
       <use x="127.246094" xlink:href="#DejaVuSans-48"/>
       <use x="190.869141" xlink:href="#DejaVuSans-48"/>
       <use x="254.492188" xlink:href="#DejaVuSans-48"/>
       <use x="318.115234" xlink:href="#DejaVuSans-48"/>
      </g>
     </g>
    </g>
    <g id="xtick_9">
     <g id="line2d_29">
      <path clip-path="url(#p6fc0e6e1ce)" d="M 256.620315 239.758125 
L 256.620315 140.921761 
" style="fill:none;stroke:#b0b0b0;stroke-linecap:square;stroke-width:0.8;"/>
     </g>
     <g id="line2d_30">
      <g>
       <use style="stroke:#000000;stroke-width:0.8;" x="256.620315" xlink:href="#m1904e8226b" y="239.758125"/>
      </g>
     </g>
     <g id="text_15">
      <!-- 300000 -->
      <g transform="translate(237.532815 254.356562)scale(0.1 -0.1)">
       <use xlink:href="#DejaVuSans-51"/>
       <use x="63.623047" xlink:href="#DejaVuSans-48"/>
       <use x="127.246094" xlink:href="#DejaVuSans-48"/>
       <use x="190.869141" xlink:href="#DejaVuSans-48"/>
       <use x="254.492188" xlink:href="#DejaVuSans-48"/>
       <use x="318.115234" xlink:href="#DejaVuSans-48"/>
      </g>
     </g>
    </g>
    <g id="xtick_10">
     <g id="line2d_31">
      <path clip-path="url(#p6fc0e6e1ce)" d="M 327.123821 239.758125 
L 327.123821 140.921761 
" style="fill:none;stroke:#b0b0b0;stroke-linecap:square;stroke-width:0.8;"/>
     </g>
     <g id="line2d_32">
      <g>
       <use style="stroke:#000000;stroke-width:0.8;" x="327.123821" xlink:href="#m1904e8226b" y="239.758125"/>
      </g>
     </g>
     <g id="text_16">
      <!-- 400000 -->
      <g transform="translate(308.036321 254.356562)scale(0.1 -0.1)">
       <use xlink:href="#DejaVuSans-52"/>
       <use x="63.623047" xlink:href="#DejaVuSans-48"/>
       <use x="127.246094" xlink:href="#DejaVuSans-48"/>
       <use x="190.869141" xlink:href="#DejaVuSans-48"/>
       <use x="254.492188" xlink:href="#DejaVuSans-48"/>
       <use x="318.115234" xlink:href="#DejaVuSans-48"/>
      </g>
     </g>
    </g>
   </g>
   <g id="matplotlib.axis_4">
    <g id="ytick_4">
     <g id="line2d_33">
      <path clip-path="url(#p6fc0e6e1ce)" d="M 30.103125 235.265563 
L 364.903125 235.265563 
" style="fill:none;stroke:#b0b0b0;stroke-linecap:square;stroke-width:0.8;"/>
     </g>
     <g id="line2d_34">
      <g>
       <use style="stroke:#000000;stroke-width:0.8;" x="30.103125" xlink:href="#m52262a020f" y="235.265563"/>
      </g>
     </g>
     <g id="text_17">
      <!-- 2.5 -->
      <defs>
       <path d="M 10.796875 72.90625 
L 49.515625 72.90625 
L 49.515625 64.59375 
L 19.828125 64.59375 
L 19.828125 46.734375 
Q 21.96875 47.46875 24.109375 47.828125 
Q 26.265625 48.1875 28.421875 48.1875 
Q 40.625 48.1875 47.75 41.5 
Q 54.890625 34.8125 54.890625 23.390625 
Q 54.890625 11.625 47.5625 5.09375 
Q 40.234375 -1.421875 26.90625 -1.421875 
Q 22.3125 -1.421875 17.546875 -0.640625 
Q 12.796875 0.140625 7.71875 1.703125 
L 7.71875 11.625 
Q 12.109375 9.234375 16.796875 8.0625 
Q 21.484375 6.890625 26.703125 6.890625 
Q 35.15625 6.890625 40.078125 11.328125 
Q 45.015625 15.765625 45.015625 23.390625 
Q 45.015625 31 40.078125 35.4375 
Q 35.15625 39.890625 26.703125 39.890625 
Q 22.75 39.890625 18.8125 39.015625 
Q 14.890625 38.140625 10.796875 36.28125 
z
" id="DejaVuSans-53"/>
      </defs>
      <g transform="translate(7.2 239.064782)scale(0.1 -0.1)">
       <use xlink:href="#DejaVuSans-50"/>
       <use x="63.623047" xlink:href="#DejaVuSans-46"/>
       <use x="95.410156" xlink:href="#DejaVuSans-53"/>
      </g>
     </g>
    </g>
    <g id="ytick_5">
     <g id="line2d_35">
      <path clip-path="url(#p6fc0e6e1ce)" d="M 30.103125 190.397103 
L 364.903125 190.397103 
" style="fill:none;stroke:#b0b0b0;stroke-linecap:square;stroke-width:0.8;"/>
     </g>
     <g id="line2d_36">
      <g>
       <use style="stroke:#000000;stroke-width:0.8;" x="30.103125" xlink:href="#m52262a020f" y="190.397103"/>
      </g>
     </g>
     <g id="text_18">
      <!-- 3.0 -->
      <g transform="translate(7.2 194.196322)scale(0.1 -0.1)">
       <use xlink:href="#DejaVuSans-51"/>
       <use x="63.623047" xlink:href="#DejaVuSans-46"/>
       <use x="95.410156" xlink:href="#DejaVuSans-48"/>
      </g>
     </g>
    </g>
    <g id="ytick_6">
     <g id="line2d_37">
      <path clip-path="url(#p6fc0e6e1ce)" d="M 30.103125 145.528643 
L 364.903125 145.528643 
" style="fill:none;stroke:#b0b0b0;stroke-linecap:square;stroke-width:0.8;"/>
     </g>
     <g id="line2d_38">
      <g>
       <use style="stroke:#000000;stroke-width:0.8;" x="30.103125" xlink:href="#m52262a020f" y="145.528643"/>
      </g>
     </g>
     <g id="text_19">
      <!-- 3.5 -->
      <g transform="translate(7.2 149.327862)scale(0.1 -0.1)">
       <use xlink:href="#DejaVuSans-51"/>
       <use x="63.623047" xlink:href="#DejaVuSans-46"/>
       <use x="95.410156" xlink:href="#DejaVuSans-53"/>
      </g>
     </g>
    </g>
   </g>
   <g id="line2d_39">
    <path clip-path="url(#p6fc0e6e1ce)" d="M 45.321307 189.418303 
L 49.128496 172.32648 
L 51.243601 163.86595 
L 52.935685 157.985745 
L 54.416259 153.643013 
L 55.685322 150.598293 
L 56.742875 148.579346 
L 57.800427 147.057499 
L 58.646469 146.210296 
L 59.492512 145.699381 
L 60.127043 145.539321 
L 60.761575 145.571348 
L 61.396106 145.795326 
L 62.242148 146.390778 
L 63.08819 147.321145 
L 63.934232 148.579346 
L 64.991785 150.598293 
L 66.049338 153.090342 
L 67.318401 156.663209 
L 68.798974 161.556213 
L 70.491059 167.962873 
L 72.606164 176.904897 
L 76.201843 193.331641 
L 79.586011 208.467727 
L 81.701116 216.928256 
L 83.3932 222.808462 
L 84.873774 227.151194 
L 86.142837 230.195913 
L 87.20039 232.214861 
L 88.257942 233.736707 
L 89.103984 234.58391 
L 89.950026 235.094825 
L 90.584558 235.254886 
L 91.219089 235.222858 
L 91.853621 234.99888 
L 92.699663 234.403428 
L 93.545705 233.473062 
L 94.391747 232.214861 
L 95.4493 230.195913 
L 96.506852 227.703864 
L 97.775915 224.130997 
L 99.256489 219.237993 
L 100.948573 212.831333 
L 103.063678 203.889309 
L 106.659357 187.462566 
L 110.043526 172.32648 
L 112.158631 163.86595 
L 113.850715 157.985745 
L 115.331288 153.643013 
L 116.600352 150.598293 
L 117.657904 148.579346 
L 118.715457 147.057499 
L 119.561499 146.210296 
L 120.407541 145.699381 
L 121.042073 145.539321 
L 121.676604 145.571348 
L 122.311136 145.795326 
L 123.157178 146.390778 
L 124.00322 147.321145 
L 124.849262 148.579346 
L 125.906814 150.598293 
L 126.964367 153.090342 
L 128.23343 156.663209 
L 129.714004 161.556213 
L 131.406088 167.962873 
L 133.521193 176.904897 
L 137.116872 193.331641 
L 140.50104 208.467727 
L 142.616145 216.928256 
L 144.30823 222.808462 
L 145.788803 227.151194 
L 147.057866 230.195913 
L 148.115419 232.214861 
L 149.172971 233.736707 
L 150.019014 234.58391 
L 150.865056 235.094825 
L 151.499587 235.254886 
L 152.134119 235.222858 
L 152.76865 234.99888 
L 153.614692 234.403428 
L 154.460734 233.473062 
L 155.306777 232.214861 
L 156.364329 230.195913 
L 157.421882 227.703864 
L 158.690945 224.130997 
L 160.171518 219.237993 
L 161.863603 212.831333 
L 163.978708 203.889309 
L 167.574387 187.462566 
L 170.958555 172.32648 
L 173.07366 163.86595 
L 174.765744 157.985745 
L 176.246318 153.643013 
L 177.515381 150.598293 
L 178.572934 148.579346 
L 179.630486 147.057499 
L 180.476528 146.210296 
L 181.32257 145.699381 
L 181.957102 145.539321 
L 182.591633 145.571348 
L 183.226165 145.795326 
L 184.072207 146.390778 
L 184.918249 147.321145 
L 185.764291 148.579346 
L 186.821844 150.598293 
L 187.879396 153.090342 
L 189.14846 156.663209 
L 190.629033 161.556213 
L 192.321117 167.962873 
L 194.436222 176.904897 
L 198.031901 193.331641 
L 201.41607 208.467727 
L 203.531175 216.928256 
L 205.223259 222.808462 
L 206.703833 227.151194 
L 207.972896 230.195913 
L 209.030448 232.214861 
L 210.088001 233.736707 
L 210.934043 234.58391 
L 211.780085 235.094825 
L 212.414617 235.254886 
L 213.049148 235.222858 
L 213.68368 234.99888 
L 214.529722 234.403428 
L 215.375764 233.473062 
L 216.221806 232.214861 
L 217.279358 230.195913 
L 218.336911 227.703864 
L 219.605974 224.130997 
L 221.086548 219.237993 
L 222.778632 212.831333 
L 224.893737 203.889309 
L 228.489416 187.462566 
L 231.873584 172.32648 
L 233.988689 163.86595 
L 235.680774 157.985745 
L 237.161347 153.643013 
L 238.43041 150.598293 
L 239.487963 148.579346 
L 240.545516 147.057499 
L 241.391558 146.210296 
L 242.2376 145.699381 
L 242.872131 145.539321 
L 243.506663 145.571348 
L 244.141194 145.795326 
L 244.987236 146.390778 
L 245.833279 147.321145 
L 246.679321 148.579346 
L 247.736873 150.598293 
L 248.794426 153.090342 
L 250.063489 156.663209 
L 251.544063 161.556213 
L 253.236147 167.962873 
L 255.351252 176.904897 
L 258.946931 193.331641 
L 262.331099 208.467727 
L 264.446204 216.928256 
L 266.138288 222.808462 
L 267.618862 227.151194 
L 268.887925 230.195913 
L 269.945478 232.214861 
L 271.00303 233.736707 
L 271.849072 234.58391 
L 272.695114 235.094825 
L 273.329646 235.254886 
L 273.964177 235.222858 
L 274.598709 234.99888 
L 275.444751 234.403428 
L 276.290793 233.473062 
L 277.136835 232.214861 
L 278.194388 230.195913 
L 279.25194 227.703864 
L 280.521004 224.130997 
L 282.001577 219.237993 
L 283.693661 212.831333 
L 285.808767 203.889309 
L 289.404445 187.462566 
L 292.788614 172.32648 
L 294.903719 163.86595 
L 296.595803 157.985745 
L 298.076377 153.643013 
L 299.34544 150.598293 
L 300.402992 148.579346 
L 301.460545 147.057499 
L 302.306587 146.210296 
L 303.152629 145.699381 
L 303.787161 145.539321 
L 304.421692 145.571348 
L 305.056224 145.795326 
L 305.902266 146.390778 
L 306.748308 147.321145 
L 307.59435 148.579346 
L 308.651903 150.598293 
L 309.709455 153.090342 
L 310.978518 156.663209 
L 312.459092 161.556213 
L 314.151176 167.962873 
L 316.266281 176.904897 
L 319.86196 193.331641 
L 323.246128 208.467727 
L 325.361234 216.928256 
L 327.053318 222.808462 
L 328.533891 227.151194 
L 329.802954 230.195913 
L 330.860507 232.214861 
L 331.91806 233.736707 
L 332.764102 234.58391 
L 333.610144 235.094825 
L 334.244675 235.254886 
L 334.879207 235.222858 
L 335.513738 234.99888 
L 336.359781 234.403428 
L 337.205823 233.473062 
L 338.051865 232.214861 
L 339.109417 230.195913 
L 340.16697 227.703864 
L 341.436033 224.130997 
L 342.916607 219.237993 
L 344.608691 212.831333 
L 346.723796 203.889309 
L 349.684943 190.397103 
L 349.684943 190.397103 
" style="fill:none;stroke:#1f77b4;stroke-linecap:square;stroke-width:1.5;"/>
   </g>
   <g id="line2d_40">
    <path clip-path="url(#p6fc0e6e1ce)" d="M 45.321307 189.418303 
L 45.744328 187.704039 
L 47.224901 180.622219 
L 49.340007 171.537795 
L 51.666622 162.485421 
L 53.358707 156.80434 
L 54.83928 152.641708 
L 55.896833 150.175848 
L 56.954385 148.202934 
L 57.800427 146.977988 
L 58.646469 146.077645 
L 59.704022 145.456948 
L 60.338554 145.422178 
L 60.973085 145.611551 
L 61.607617 145.964519 
L 62.453659 146.715818 
L 63.299701 147.756139 
L 64.357253 149.511369 
L 65.414806 151.734958 
L 66.683869 154.999194 
L 67.952932 158.867981 
L 69.433506 164.053457 
L 71.337101 171.607334 
L 73.875227 182.755571 
L 80.220542 211.226347 
L 82.124137 218.589205 
L 84.450753 225.662452 
L 86.354347 230.049292 
L 87.4119 231.885878 
L 88.469453 233.251044 
L 89.315495 233.987954 
L 90.161537 234.398075 
L 91.007579 234.472418 
L 91.64211 234.313076 
L 92.276642 233.973035 
L 93.122684 233.218689 
L 93.968726 232.142723 
L 95.026279 230.34455 
L 96.083831 228.039275 
L 96.929873 225.759164 
L 100.102531 215.547096 
L 102.006126 208.027141 
L 104.332742 197.891043 
L 111.312589 166.933023 
L 113.427694 159.371893 
L 115.331288 153.81278 
L 116.600352 150.828293 
L 117.657904 148.843417 
L 118.715457 147.347369 
L 119.561499 146.517958 
L 120.407541 146.021076 
L 121.042073 145.870941 
L 121.676604 145.911302 
L 122.311136 146.142366 
L 123.157178 146.745222 
L 124.00322 147.681348 
L 124.849262 148.941918 
L 125.906814 150.961825 
L 126.964367 153.451339 
L 128.23343 156.98531 
L 129.714004 161.84232 
L 131.406088 168.212233 
L 133.521193 177.110475 
L 136.905361 192.501359 
L 140.50104 208.571945 
L 142.616145 217.018079 
L 144.096719 222.101594 
L 147.057866 229.73789 
L 148.115419 231.68479 
L 148.961461 232.904924 
L 149.807503 233.812939 
L 150.653545 234.394395 
L 151.288077 234.616038 
L 151.922608 234.657741 
L 152.55714 234.509453 
L 153.191671 234.171661 
L 154.037713 233.438313 
L 154.883755 232.374206 
L 155.729798 230.993793 
L 156.78735 228.838188 
L 158.056413 225.657596 
L 159.536987 221.159507 
L 161.017561 215.933988 
L 162.921155 208.337203 
L 165.459281 197.146603 
L 171.593086 169.397843 
L 172.016108 167.540338 
L 172.86215 164.611353 
L 174.765744 158.172436 
L 176.034807 154.468841 
L 177.30387 151.365891 
L 178.361423 149.281973 
L 179.418976 147.683482 
L 180.265018 146.768095 
L 181.11106 146.182332 
L 181.745591 145.964257 
L 182.380123 145.937079 
L 183.014654 146.100434 
L 183.649186 146.454248 
L 184.495228 147.216978 
L 185.34127 148.311192 
L 186.398823 150.127905 
L 187.456375 152.424757 
L 188.725438 155.764352 
L 189.994502 159.695602 
L 191.686586 165.754797 
L 193.59018 173.46875 
L 196.339817 185.694263 
L 201.62758 209.461584 
L 203.742685 217.795874 
L 205.011748 222.113463 
L 206.280812 225.700945 
L 207.338364 228.4039 
L 209.241959 232.030784 
L 210.299511 233.406451 
L 211.145553 234.15312 
L 211.991596 234.577416 
L 212.837638 234.667162 
L 213.472169 234.519368 
L 214.106701 234.182255 
L 214.952743 233.449426 
L 215.798785 232.391161 
L 216.856337 230.616502 
L 217.91389 228.358249 
L 219.182953 225.078529 
L 220.663527 220.469632 
L 222.1441 215.158313 
L 224.259206 206.566927 
L 226.797332 195.242769 
L 232.296605 170.400559 
L 233.777179 164.382043 
L 234.411711 162.360201 
L 236.103795 156.931048 
L 237.584368 152.902486 
L 238.853431 150.120041 
L 239.910984 148.316476 
L 240.757026 147.232894 
L 241.603068 146.477374 
L 242.44911 146.055849 
L 243.083642 145.961844 
L 243.718173 146.059107 
L 244.352705 146.345593 
L 245.198747 147.023911 
L 246.044789 148.031348 
L 246.890831 149.362471 
L 247.948384 151.463036 
L 249.217447 154.596716 
L 250.48651 158.335681 
L 251.967084 163.396326 
L 253.659168 169.951557 
L 255.985783 179.947313 
L 263.600162 213.762651 
L 265.292246 220.063393 
L 268.041883 227.860218 
L 268.887925 229.743538 
L 269.945478 231.693164 
L 270.79152 232.914209 
L 271.637562 233.823724 
L 272.483604 234.406452 
L 273.118135 234.628997 
L 273.752667 234.671258 
L 274.387199 234.52373 
L 275.02173 234.186974 
L 275.867772 233.454414 
L 276.713814 232.396771 
L 277.771367 230.622092 
L 278.828919 228.36872 
L 280.097983 225.081993 
L 281.578556 220.475727 
L 283.27064 214.350912 
L 285.174235 206.580599 
L 287.712361 195.262429 
L 293.211635 170.432416 
L 294.480698 165.467548 
L 296.807314 157.630112 
L 298.287887 153.477148 
L 299.55695 150.577592 
L 300.614503 148.674799 
L 301.672055 147.265082 
L 302.518098 146.506058 
L 303.36414 146.081384 
L 303.998671 145.987682 
L 304.633203 146.079907 
L 305.267734 146.366896 
L 306.113776 147.039351 
L 306.959818 148.044293 
L 307.80586 149.372723 
L 308.863413 151.470296 
L 310.132476 154.60023 
L 311.401539 158.341403 
L 312.882113 163.401962 
L 314.574197 169.955553 
L 316.900813 179.95043 
L 324.515191 213.761522 
L 326.207276 220.062413 
L 328.956912 227.860645 
L 329.802954 229.744202 
L 330.860507 231.694193 
L 331.706549 232.915353 
L 332.552591 233.825079 
L 333.398633 234.407971 
L 334.033165 234.63067 
L 334.667696 234.673031 
L 335.302228 234.525637 
L 335.936759 234.189065 
L 336.782802 233.453221 
L 337.628844 232.398679 
L 338.686396 230.624601 
L 339.743949 228.371194 
L 341.013012 225.074896 
L 342.282075 221.181095 
L 343.762649 215.969779 
L 345.666243 208.386266 
L 348.41588 196.243016 
L 349.684943 190.397333 
L 349.684943 190.397333 
" style="fill:none;stroke:#ff7f0e;stroke-linecap:square;stroke-width:1.5;"/>
   </g>
   <g id="patch_9">
    <path d="M 30.103125 239.758125 
L 30.103125 140.921761 
" style="fill:none;stroke:#000000;stroke-linecap:square;stroke-linejoin:miter;stroke-width:0.8;"/>
   </g>
   <g id="patch_10">
    <path d="M 364.903125 239.758125 
L 364.903125 140.921761 
" style="fill:none;stroke:#000000;stroke-linecap:square;stroke-linejoin:miter;stroke-width:0.8;"/>
   </g>
   <g id="patch_11">
    <path d="M 30.103125 239.758125 
L 364.903125 239.758125 
" style="fill:none;stroke:#000000;stroke-linecap:square;stroke-linejoin:miter;stroke-width:0.8;"/>
   </g>
   <g id="patch_12">
    <path d="M 30.103125 140.921761 
L 364.903125 140.921761 
" style="fill:none;stroke:#000000;stroke-linecap:square;stroke-linejoin:miter;stroke-width:0.8;"/>
   </g>
   <g id="legend_2">
    <g id="patch_13">
     <path d="M 237.78125 206.518068 
L 357.903125 206.518068 
Q 359.903125 206.518068 359.903125 204.518068 
L 359.903125 176.161818 
Q 359.903125 174.161818 357.903125 174.161818 
L 237.78125 174.161818 
Q 235.78125 174.161818 235.78125 176.161818 
L 235.78125 204.518068 
Q 235.78125 206.518068 237.78125 206.518068 
z
" style="fill:#ffffff;opacity:0.8;stroke:#cccccc;stroke-linejoin:miter;"/>
    </g>
    <g id="line2d_41">
     <path d="M 239.78125 182.260256 
L 259.78125 182.260256 
" style="fill:none;stroke:#1f77b4;stroke-linecap:square;stroke-width:1.5;"/>
    </g>
    <g id="line2d_42"/>
    <g id="text_20">
     <!-- Qin -->
     <g transform="translate(267.78125 185.760256)scale(0.1 -0.1)">
      <use xlink:href="#DejaVuSans-81"/>
      <use x="78.710938" xlink:href="#DejaVuSans-105"/>
      <use x="106.494141" xlink:href="#DejaVuSans-110"/>
     </g>
    </g>
    <g id="line2d_43">
     <path d="M 239.78125 196.938381 
L 259.78125 196.938381 
" style="fill:none;stroke:#ff7f0e;stroke-linecap:square;stroke-width:1.5;"/>
    </g>
    <g id="line2d_44"/>
    <g id="text_21">
     <!-- Qin compensated -->
     <defs>
      <path d="M 18.109375 8.203125 
L 18.109375 -20.796875 
L 9.078125 -20.796875 
L 9.078125 54.6875 
L 18.109375 54.6875 
L 18.109375 46.390625 
Q 20.953125 51.265625 25.265625 53.625 
Q 29.59375 56 35.59375 56 
Q 45.5625 56 51.78125 48.09375 
Q 58.015625 40.1875 58.015625 27.296875 
Q 58.015625 14.40625 51.78125 6.484375 
Q 45.5625 -1.421875 35.59375 -1.421875 
Q 29.59375 -1.421875 25.265625 0.953125 
Q 20.953125 3.328125 18.109375 8.203125 
z
M 48.6875 27.296875 
Q 48.6875 37.203125 44.609375 42.84375 
Q 40.53125 48.484375 33.40625 48.484375 
Q 26.265625 48.484375 22.1875 42.84375 
Q 18.109375 37.203125 18.109375 27.296875 
Q 18.109375 17.390625 22.1875 11.75 
Q 26.265625 6.109375 33.40625 6.109375 
Q 40.53125 6.109375 44.609375 11.75 
Q 48.6875 17.390625 48.6875 27.296875 
z
" id="DejaVuSans-112"/>
      <path d="M 44.28125 53.078125 
L 44.28125 44.578125 
Q 40.484375 46.53125 36.375 47.5 
Q 32.28125 48.484375 27.875 48.484375 
Q 21.1875 48.484375 17.84375 46.4375 
Q 14.5 44.390625 14.5 40.28125 
Q 14.5 37.15625 16.890625 35.375 
Q 19.28125 33.59375 26.515625 31.984375 
L 29.59375 31.296875 
Q 39.15625 29.25 43.1875 25.515625 
Q 47.21875 21.78125 47.21875 15.09375 
Q 47.21875 7.46875 41.1875 3.015625 
Q 35.15625 -1.421875 24.609375 -1.421875 
Q 20.21875 -1.421875 15.453125 -0.5625 
Q 10.6875 0.296875 5.421875 2 
L 5.421875 11.28125 
Q 10.40625 8.6875 15.234375 7.390625 
Q 20.0625 6.109375 24.8125 6.109375 
Q 31.15625 6.109375 34.5625 8.28125 
Q 37.984375 10.453125 37.984375 14.40625 
Q 37.984375 18.0625 35.515625 20.015625 
Q 33.0625 21.96875 24.703125 23.78125 
L 21.578125 24.515625 
Q 13.234375 26.265625 9.515625 29.90625 
Q 5.8125 33.546875 5.8125 39.890625 
Q 5.8125 47.609375 11.28125 51.796875 
Q 16.75 56 26.8125 56 
Q 31.78125 56 36.171875 55.265625 
Q 40.578125 54.546875 44.28125 53.078125 
z
" id="DejaVuSans-115"/>
     </defs>
     <g transform="translate(267.78125 200.438381)scale(0.1 -0.1)">
      <use xlink:href="#DejaVuSans-81"/>
      <use x="78.710938" xlink:href="#DejaVuSans-105"/>
      <use x="106.494141" xlink:href="#DejaVuSans-110"/>
      <use x="169.873047" xlink:href="#DejaVuSans-32"/>
      <use x="201.660156" xlink:href="#DejaVuSans-99"/>
      <use x="256.640625" xlink:href="#DejaVuSans-111"/>
      <use x="317.822266" xlink:href="#DejaVuSans-109"/>
      <use x="415.234375" xlink:href="#DejaVuSans-112"/>
      <use x="478.710938" xlink:href="#DejaVuSans-101"/>
      <use x="540.234375" xlink:href="#DejaVuSans-110"/>
      <use x="603.613281" xlink:href="#DejaVuSans-115"/>
      <use x="655.712891" xlink:href="#DejaVuSans-97"/>
      <use x="716.992188" xlink:href="#DejaVuSans-116"/>
      <use x="756.201172" xlink:href="#DejaVuSans-101"/>
      <use x="817.724609" xlink:href="#DejaVuSans-100"/>
     </g>
    </g>
   </g>
  </g>
 </g>
 <defs>
  <clipPath id="pdd12a0a10d">
   <rect height="98.836364" width="334.8" x="30.103125" y="22.318125"/>
  </clipPath>
  <clipPath id="p6fc0e6e1ce">
   <rect height="98.836364" width="334.8" x="30.103125" y="140.921761"/>
  </clipPath>
 </defs>
</svg>
